<svg id="Capa_1" data-name="Capa 1" xmlns="http://www.w3.org/2000/svg" xmlns:xlink="http://www.w3.org/1999/xlink" viewBox="0 0 50 50"><defs><style>.cls-1{fill:#ffd86e;}.cls-2{fill:#ffb509;}.cls-3{fill:#838383;}.cls-4{fill:#5a5a5a;}.cls-5{fill:#acacac;}.cls-6{fill:#9c9c9c;}.cls-7{fill:#64dcfc;}.cls-8{fill:#00d1fc;}.cls-9{fill:#80e0dc;}.cls-10{fill:#00a8b0;}.cls-11{fill:url(#Degradado_sin_nombre_8);}</style><linearGradient id="Degradado_sin_nombre_8" x1="32.08" y1="53.99" x2="47.58" y2="27.01" gradientUnits="userSpaceOnUse"><stop offset="0" stop-color="#feb200"/><stop offset="0.41" stop-color="#fec700"/><stop offset="1" stop-color="#ffe100"/></linearGradient></defs><title>icoGithub2</title><path class="cls-1" d="M46.74,42.07H3.5A2.48,2.48,0,0,1,1,39.6V4.4A2.48,2.48,0,0,1,3.5,1.92H46.74A2.48,2.48,0,0,1,49.22,4.4V39.6A2.48,2.48,0,0,1,46.74,42.07Z"/><path class="cls-2" d="M49.22,4.4V39.6a2.48,2.48,0,0,1-2.48,2.47h-3A2.48,2.48,0,0,0,46.2,39.6V4.4a2.48,2.48,0,0,0-2.48-2.48h3A2.48,2.48,0,0,1,49.22,4.4Z"/><path class="cls-3" d="M49.22,36.11H1V39.6A2.48,2.48,0,0,0,3.5,42.07H46.74a2.48,2.48,0,0,0,2.48-2.47Z"/><path class="cls-4" d="M49.22,36.11V39.6a2.48,2.48,0,0,1-2.48,2.47h-3A2.48,2.48,0,0,0,46.2,39.6V36.11Z"/><path class="cls-5" d="M47.07,9.2H4.32V3.91a2.2,2.2,0,0,1,2.19-2.2H44.87a2.2,2.2,0,0,1,2.2,2.2Z"/><path class="cls-6" d="M47.07,3.91V9.2H44.34V3.91a2.2,2.2,0,0,0-2.2-2.2h2.73A2.2,2.2,0,0,1,47.07,3.91Z"/><path class="cls-4" d="M18.38,42.07H31.86v4.07H18.38Z"/><path class="cls-3" d="M36.23,50.12H14a.49.49,0,0,1-.49-.48V48.07a1.93,1.93,0,0,1,1.93-1.93H34.79a1.92,1.92,0,0,1,1.92,1.93v1.57A.47.47,0,0,1,36.23,50.12Z"/><path class="cls-4" d="M36.71,48.07v1.57a.47.47,0,0,1-.48.48H34.52v-2a1.93,1.93,0,0,0-1.93-1.93h2.2A1.92,1.92,0,0,1,36.71,48.07Z"/><path class="cls-7" d="M29,27.91H44.73v3H29Z"/><path class="cls-7" d="M29,35.83H44.73v3H29Z"/><path class="cls-8" d="M42.87,27.91h1.86v3H42.87Z"/><path class="cls-8" d="M42.87,35.83h1.86v3H42.87Z"/><path class="cls-1" d="M14.45,5.44A1.25,1.25,0,1,1,13.2,4.19,1.25,1.25,0,0,1,14.45,5.44Z"/><path class="cls-9" d="M19.27,5.44A1.25,1.25,0,1,1,18,4.19,1.25,1.25,0,0,1,19.27,5.44Z"/><path class="cls-2" d="M14.45,5.44A1.25,1.25,0,0,1,13.2,6.69a1.28,1.28,0,0,1-.86-.35,1.25,1.25,0,0,0,.83-2.15h0A1.25,1.25,0,0,1,14.45,5.44Z"/><path class="cls-10" d="M19.27,5.44A1.25,1.25,0,0,1,18,6.69a1.28,1.28,0,0,1-.86-.35A1.25,1.25,0,0,0,18,4.19h0A1.25,1.25,0,0,1,19.27,5.44Z"/><path d="M6,19.31a.74.74,0,0,0,1,0,.74.74,0,0,0,0-1L5.28,16.51l1.77-1.76a.74.74,0,0,0,0-1,.72.72,0,0,0-1,0L3.74,16a.7.7,0,0,0-.22.51.73.73,0,0,0,.22.52Z"/><path d="M13.24,16.51l-1.77,1.77A.73.73,0,0,0,12,19.52a.73.73,0,0,0,.51-.21L14.78,17a.74.74,0,0,0,0-1L12.5,13.72a.72.72,0,0,0-1,0,.74.74,0,0,0,0,1Z"/><path d="M8.17,19.47a.86.86,0,0,0,.27.05.72.72,0,0,0,.68-.46l1.79-4.56A.73.73,0,1,0,9.56,14l-1.8,4.56A.74.74,0,0,0,8.17,19.47Z"/><path d="M4.66,23.79h4.9a.73.73,0,1,0,0-1.46H4.66a.73.73,0,0,0,0,1.46Z"/><path d="M20.85,22.33H12.24a.73.73,0,1,0,0,1.46h8.61a.73.73,0,1,0,0-1.46Z"/><path d="M4.66,26.86H6.75a.73.73,0,1,0,0-1.46H4.66a.73.73,0,0,0,0,1.46Z"/><path d="M18.19,25.4a.73.73,0,0,0,0,1.46h1.27a.73.73,0,1,0,0-1.46Z"/><path d="M16.28,26.13a.73.73,0,0,0-.73-.73H9.3a.73.73,0,0,0,0,1.46h6.25A.73.73,0,0,0,16.28,26.13Z"/><path d="M21,26.13a.73.73,0,0,0,.73.73h2.38a.73.73,0,1,0,0-1.46H21.77A.73.73,0,0,0,21,26.13Z"/><path d="M17.08,17.1h2.51a.73.73,0,0,0,0-1.46H17.08a.73.73,0,0,0,0,1.46Z"/><path d="M22.4,17.1H37.73a.73.73,0,0,0,0-1.46H22.4a.73.73,0,0,0,0,1.46Z"/><path d="M35.4,18.84H29.19a.73.73,0,0,0,0,1.46H35.4a.73.73,0,0,0,0-1.46Z"/><path d="M26.87,18.84H24.73a.73.73,0,0,0,0,1.46h2.14a.73.73,0,0,0,0-1.46Z"/><path d="M17.08,20.3h5.23a.73.73,0,0,0,0-1.46H17.08a.73.73,0,0,0,0,1.46Z"/><path d="M15.56,28.44h-4.9a.73.73,0,1,0,0,1.46h4.9a.73.73,0,0,0,0-1.46Z"/><path d="M8.43,28.44H4.66a.73.73,0,0,0,0,1.46H8.43a.73.73,0,1,0,0-1.46Z"/><path d="M24.44,28.44H18a.73.73,0,1,0,0,1.46h6.4a.73.73,0,0,0,0-1.46Z"/><path d="M46.8,1.2H3.5A3.21,3.21,0,0,0,.29,4.4V39.6A3.21,3.21,0,0,0,3.5,42.8H6.23a.73.73,0,1,0,0-1.46H3.5A1.74,1.74,0,0,1,1.75,39.6V36.84h26.5v1.25h-.57a1.44,1.44,0,0,0-1.44,1.43v1.82H10.66a.73.73,0,1,0,0,1.46h7v2.61h-2.2a2.66,2.66,0,0,0-2.65,2.66v1.57A1.21,1.21,0,0,0,14,50.85H36.23a1.21,1.21,0,0,0,1.21-1.21V48.07a2.66,2.66,0,0,0-2.66-2.66H32.59v-.92H46a1.43,1.43,0,0,0,1.43-1.43v-.34A3.21,3.21,0,0,0,50,39.6L50,4.4A3.2,3.2,0,0,0,46.8,1.2ZM28.16,35.11V31.62H46.47v3.49Zm-9,7.69h7.13v.26a1.44,1.44,0,0,0,1.44,1.43h3.45v.92h-12Zm15.68,4.06A1.21,1.21,0,0,1,36,48.07v1.32H14.25V48.07a1.21,1.21,0,0,1,1.2-1.21ZM46,43H27.7V39.55H46Zm2.48-3.43a1.76,1.76,0,0,1-1,1.59V39.52A1.43,1.43,0,0,0,46,38.09h-.58V36.84h3Zm0-4.22H47.44c0-.08,0-3.79,0-3.79A1.44,1.44,0,0,0,46,30.16h-.58V28.63H46a1.43,1.43,0,0,0,1.43-1.43V23.67A1.43,1.43,0,0,0,46,22.24H41.93a.73.73,0,1,0,0,1.45H46v3.49H27.7V23.69h9.7a.73.73,0,1,0,0-1.45H27.68a1.44,1.44,0,0,0-1.44,1.43V27.2a1.44,1.44,0,0,0,1.44,1.43h.57v1.53h-.57a1.44,1.44,0,0,0-1.44,1.43s0,3.71,0,3.79H1.75V11.09H48.49Zm0-25.74H1.8V4.4A1.76,1.76,0,0,1,3.55,2.65H46.74A1.75,1.75,0,0,1,48.49,4.4Z"/><path d="M8.38,3.54a1.9,1.9,0,1,0,1.9,1.9A1.9,1.9,0,0,0,8.38,3.54Zm0,2.5a.6.6,0,0,1-.6-.6.6.6,0,1,1,1.2,0A.6.6,0,0,1,8.38,6Z"/><path d="M13.2,3.54a1.9,1.9,0,1,0,1.9,1.9A1.9,1.9,0,0,0,13.2,3.54Zm0,2.5a.6.6,0,0,1-.6-.6.61.61,0,1,1,1.21,0A.6.6,0,0,1,13.2,6Z"/><path d="M18,3.54a1.9,1.9,0,1,0,1.9,1.9A1.9,1.9,0,0,0,18,3.54ZM18,6a.6.6,0,0,1-.6-.6.61.61,0,1,1,1.21,0A.6.6,0,0,1,18,6Z"/><path d="M50,41.56a13.63,13.63,0,0,0,.17-2,6.86,6.86,0,0,0-1.83-4.86c.43-2.43-.07-3.53-.31-3.91-.87-.31-3,.8-4.2,1.57a15.57,15.57,0,0,0-7.49.15c-2.81-2-4.29-1.7-4.29-1.7A5.89,5.89,0,0,0,31.81,35a5.68,5.68,0,0,0-1.61,4.22,14.45,14.45,0,0,0,.08,1.5c.8,4.18,4.11,6,7.36,6.3a2.94,2.94,0,0,0-1.16,1.89,3.72,3.72,0,0,1-2.81.22c-1.35-.42-1.86-3.09-3.88-2.71-.44.08-.35.37,0,.62a4,4,0,0,1,1.64,2,3.29,3.29,0,0,0,3.34,2.27,9.89,9.89,0,0,0,1.54-.11s0,2.08,0,2.89-1.26,1.19-1.26,1.64c0,.18.42.19.75.19.66,0,2-.55,2-1.52,0-.76,0-3.35,0-3.8a1.48,1.48,0,0,1,.53-1.31s.06,5.28-.13,6-.63.72-.63,1.09c0,.55,1.65.13,2.2-1.08.42-.94.23-6.12.23-6.12h.45s0,2.37,0,3.45-.14,2.54.53,3.21c.44.44,1.78,1.22,1.78.51,0-.41-.94-.75-.94-1.86v-5.1c.57,0,.69,1.67.69,1.67l.2,3.12A1.61,1.61,0,0,0,44,55.74c.49.17,1.52.21,1.57-.07s-1.25-.7-1.26-1.59c0-.53,0-.85,0-3.18S44.05,47.7,43,47C46.13,46.69,49.42,45.27,50,41.56Z"/><path d="M39.87,22.83A17.68,17.68,0,1,0,57.54,40.51,17.7,17.7,0,0,0,39.87,22.83Zm-3.2,32.94a3.36,3.36,0,0,0,.08-.71V50.92c0-1.52.53-1.75,1.13-2.68a1,1,0,0,0,.08-1,1,1,0,0,0-.79-.6C33,46,31.42,43.91,30.79,42.23a7.07,7.07,0,0,1,1.09-6.77,1.3,1.3,0,0,0,.26-1.21,6.31,6.31,0,0,1-.07-3.07,7.78,7.78,0,0,1,2.69,1.22c.55.34.94.65,1.61.47a12.54,12.54,0,0,1,7,0c.66.18,1.06-.14,1.61-.47a7.74,7.74,0,0,1,2.68-1.22,6.15,6.15,0,0,1-.07,3.06,1.29,1.29,0,0,0,.27,1.22A7.07,7.07,0,0,1,49,42.23c-.63,1.68-2.25,3.8-6.37,4.42a1,1,0,0,0-.72,1.59c.6.93,1.13,1.16,1.13,2.68v4.15a3.27,3.27,0,0,0,.08.7,15.68,15.68,0,0,1-6.4,0Zm8.41-.56a.76.76,0,0,1,0-.15V50.92a5,5,0,0,0-.59-2.55A8.91,8.91,0,0,0,50.89,43a9.1,9.1,0,0,0-1.19-8.53c.33-1.42.32-3.66-.46-4.68a1.57,1.57,0,0,0-1.36-.67,8.94,8.94,0,0,0-4.24,1.71,15.66,15.66,0,0,0-3.76-.5h0a15.66,15.66,0,0,0-3.76.5,8.86,8.86,0,0,0-4.24-1.71,1.56,1.56,0,0,0-1.36.67c-.77,1-.78,3.26-.46,4.68A9.13,9.13,0,0,0,28.85,43a8.93,8.93,0,0,0,6.41,5.41,4.56,4.56,0,0,0-.55,1.85,2.3,2.3,0,0,1-3-1,4.27,4.27,0,0,0-3.83-2.38,1,1,0,0,0-.94,1.13,1,1,0,0,0,1.12.94c.74-.06,1.48.71,1.87,1.37a4.28,4.28,0,0,0,4.78,2.14v2.66a.81.81,0,0,1,0,.16,15.59,15.59,0,1,1,10.42,0Z"/><path class="cls-11" d="M39.84,25a15.56,15.56,0,0,0-5.2,30.23.86.86,0,0,0,0-.16V52.36a4.29,4.29,0,0,1-4.78-2.13c-.38-.66-1.12-1.43-1.86-1.36a1,1,0,0,1-.18-2.07,4.27,4.27,0,0,1,3.83,2.37,2.29,2.29,0,0,0,3,1,4.72,4.72,0,0,1,.55-1.85A8.91,8.91,0,0,1,28.84,43,9.11,9.11,0,0,1,30,34.45c-.33-1.43-.32-3.66.45-4.68a1.63,1.63,0,0,1,1.37-.67,9,9,0,0,1,4.23,1.71,16,16,0,0,1,3.75-.5h0a16.17,16.17,0,0,1,3.75.5,9,9,0,0,1,4.23-1.71,1.61,1.61,0,0,1,1.36.67c.77,1,.78,3.26.46,4.68A9.11,9.11,0,0,1,50.84,43a8.93,8.93,0,0,1-6.4,5.39A5,5,0,0,1,45,50.9V55a.77.77,0,0,0,0,.15A15.56,15.56,0,0,0,39.84,25Z"/></svg>