<svg id="Capa_1" data-name="Capa 1" xmlns="http://www.w3.org/2000/svg" viewBox="0 0 50 50"><defs><style>.cls-1,.cls-4{fill:none;stroke-linecap:round;stroke-miterlimit:10;stroke-width:2px;}.cls-1{stroke:#7383bf;}.cls-2{fill:#efce4a;}.cls-3{fill:#363e4b;}.cls-4{stroke:#fff;}</style></defs><title>icoVideo</title><line class="cls-1" x1="20.69" y1="32.6" x2="13.06" y2="49.42"/><line class="cls-1" x1="20.69" y1="32.6" x2="28.31" y2="49.42"/><path class="cls-2" d="M51.4,30.42,38.54,17.85a1.91,1.91,0,0,1,0-2.66L51.44,3.05a1.78,1.78,0,0,1,3,1.35V29.11A1.79,1.79,0,0,1,51.4,30.42Z"/><path class="cls-3" d="M35.79,32.6H3.9a3.94,3.94,0,0,1-3.9-4V4.14A4.1,4.1,0,0,1,4.05,0H36a4.09,4.09,0,0,1,4,4.14V28.21A4.35,4.35,0,0,1,35.79,32.6Z"/><ellipse class="cls-2" cx="11.82" cy="12.09" rx="5.65" ry="5.78"/><line class="cls-4" x1="13.36" y1="12.62" x2="18.5" y2="17.87"/></svg>