<svg id="Capa_1" data-name="Capa 1" xmlns="http://www.w3.org/2000/svg" viewBox="0 0 60 60"><defs><style>.cls-1{fill:#505050;}.cls-2{fill:#ffb412;}.cls-3{fill:#53c2c9;}.cls-4{fill:#fff;}</style></defs><title>Contactame</title><path class="cls-1" d="M37.94,50.56l-7.17-9.35a.51.51,0,0,0-.57-.08L26.49,44a.49.49,0,0,0-.08.56l.08.08c-2.58-.24-7.17-3.46-9.91-6.93s-4.6-8.87-4.2-11.37l.08.08a.51.51,0,0,0,.57.08l3.71-2.82a.49.49,0,0,0,.08-.56L9.56,13.79A.49.49,0,0,0,9,13.71L5.29,16.54a.49.49,0,0,0-.08.56c-1.94,2-2.58,4.35-1.94,7.74.33,1.69,1.21,8.38,7.9,17s13,11.21,14.52,11.93c3.06,1.54,5.48,1.45,8,.08a.46.46,0,0,0,.56.08l3.71-2.82A.68.68,0,0,0,37.94,50.56Z"/><path class="cls-2" d="M41.81,21.78c6.85,0,12.34,4.43,12.34,9.83a7.84,7.84,0,0,1-1.13,4A8.15,8.15,0,0,0,57,40.56c-4.52.24-6.21-1.05-6.77-1.85a14.33,14.33,0,0,1-8.47,2.66c-6.85,0-12.33-4.44-12.33-9.84S35,21.78,41.81,21.78Z"/><path class="cls-3" d="M35.12,5.09c-8.63,0-15.64,5.56-15.64,12.49a10.45,10.45,0,0,0,1.37,5.16A10.61,10.61,0,0,1,15.77,29c5.64.33,7.82-1.37,8.63-2.34A17.8,17.8,0,0,0,35,30.08c8.63,0,15.64-5.56,15.64-12.5S43.75,5.09,35.12,5.09Z"/><path class="cls-4" d="M40.36,13.8c0,2.82-3.55,3.62-3.55,4.75V19H33.27v-1c0-1.54,2.66-2.42,2.66-4a1.34,1.34,0,0,0-1.37-1.46c-1.13,0-1.38.89-1.38,1.78v.56H29.4c0-.24-.09-.48-.09-.8,0-2.66,2.42-4.36,5.65-4.36S40.36,11.22,40.36,13.8ZM37.14,24H33V20.16h4.12Z"/><path class="cls-4" d="M39.8,35.89a1.21,1.21,0,1,1-1.21-1.21A1.24,1.24,0,0,1,39.8,35.89Z"/><path class="cls-4" d="M43.34,35.89a1.21,1.21,0,1,1-1.21-1.21A1.23,1.23,0,0,1,43.34,35.89Z"/><path class="cls-4" d="M47,35.89a1.21,1.21,0,1,1-1.21-1.21A1.29,1.29,0,0,1,47,35.89Z"/></svg>