<svg id="Capa_1" data-name="Capa 1" xmlns="http://www.w3.org/2000/svg" viewBox="0 0 40 40"><defs><style>.cls-1{fill:#f16723;}.cls-2{fill:#fbd20a;}.cls-3{fill:#4e9bd4;}.cls-4{fill:#fbfeff;}.cls-5{fill:#feb200;}.cls-6{fill:#ffe100;}.cls-7{fill:#fff;}</style></defs><title>IconoPortafolio</title><path class="cls-1" d="M39.31,26.28a.73.73,0,1,1,0-1.44.73.73,0,1,1,0,1.44Zm0-1a.26.26,0,0,0-.27.23.25.25,0,0,0,.27.23.25.25,0,0,0,.26-.23A.25.25,0,0,0,39.31,25.33Z"/><path d="M24.09,5.24a.17.17,0,0,0,.17-.15A.16.16,0,0,0,24.09,5a.15.15,0,0,0-.17.14A.16.16,0,0,0,24.09,5.24Z"/><path d="M1.87,24.05A.16.16,0,0,0,2,23.91a.17.17,0,0,0-.34,0A.16.16,0,0,0,1.87,24.05Z"/><path d="M38.75,19.85a.15.15,0,0,0,.17-.14.16.16,0,0,0-.17-.15.16.16,0,0,0-.16.15A.15.15,0,0,0,38.75,19.85Z"/><path d="M1.48,30a.15.15,0,1,0,0-.3.15.15,0,1,0,0,.3Z"/><path class="cls-2" d="M10,8.35a.9.9,0,0,1-1-.83.9.9,0,0,1,1-.83.89.89,0,0,1,.95.83A.89.89,0,0,1,10,8.35Zm0-1.17a.34.34,0,1,0,.39.34A.37.37,0,0,0,10,7.18Z"/><path class="cls-1" d="M2,20.07H.91a.25.25,0,1,1,0-.49H2a.25.25,0,1,1,0,.49Z"/><path class="cls-1" d="M1.48,20.56a.27.27,0,0,1-.29-.24v-1a.28.28,0,0,1,.29-.25.28.28,0,0,1,.28.25v1A.27.27,0,0,1,1.48,20.56Z"/><path d="M5.42,7.52a.22.22,0,1,0,0-.44.22.22,0,1,0,0,.44Z"/><path d="M32.55,10.92a.24.24,0,0,0,.25-.22.25.25,0,0,0-.5,0A.24.24,0,0,0,32.55,10.92Z"/><path class="cls-3" d="M4.85,9.69H4.57V9.45a.27.27,0,0,0-.29-.25A.27.27,0,0,0,4,9.45v.24H3.72a.25.25,0,1,0,0,.49H4v.24a.27.27,0,0,0,.28.25.27.27,0,0,0,.29-.25v-.24h.28a.25.25,0,1,0,0-.49Z"/><path class="cls-2" d="M34.31,8.21H34V8a.26.26,0,0,0-.28-.24.27.27,0,0,0-.28.24v.25h-.28a.25.25,0,1,0,0,.49h.28v.24a.27.27,0,0,0,.28.25A.26.26,0,0,0,34,8.94V8.7h.28a.25.25,0,1,0,0-.49Z"/><path class="cls-4" d="M25.1,7H15.69a3.88,3.88,0,0,0-4.12,3.59V12.9h3V11.35a2.36,2.36,0,0,1,2.51-2.18h6.67a2.37,2.37,0,0,1,2.52,2.18V12.9h3V10.56A3.89,3.89,0,0,0,25.1,7Z"/><path class="cls-5" d="M25.1,7.07l-8-.1A3.88,3.88,0,0,0,13,10.56v1.85h1.57V11.35a2.36,2.36,0,0,1,2.51-2.18h6.67a2.37,2.37,0,0,1,2.52,2.18v1.08h3V10.66A3.89,3.89,0,0,0,25.1,7.07Z"/><path d="M29.23,13.32h-3a.45.45,0,0,1-.48-.42V11.35a1.91,1.91,0,0,0-2-1.76H17.06a1.9,1.9,0,0,0-2,1.76V12.9a.45.45,0,0,1-.48.42h-3a.46.46,0,0,1-.49-.42V10.56c0-2.21,2.07-4,4.61-4H25.1c2.54,0,4.61,1.8,4.61,4V12.9A.46.46,0,0,1,29.23,13.32Zm-2.5-.84h2V10.56A3.44,3.44,0,0,0,25.1,7.39H15.69a3.44,3.44,0,0,0-3.64,3.17v1.92h2V11.35a2.81,2.81,0,0,1,3-2.6h6.67a2.82,2.82,0,0,1,3,2.6Z"/><path class="cls-5" d="M35.79,30.52h-2V12.41h2a1.2,1.2,0,0,1,1.28,1.11V29.4A1.21,1.21,0,0,1,35.79,30.52Z"/><path class="cls-4" d="M6.83,30.52H5A1.21,1.21,0,0,1,3.72,29.4V13.52A1.2,1.2,0,0,1,5,12.41H6.83Z"/><path class="cls-6" d="M34,30.52H6.41A1.2,1.2,0,0,1,5.14,29.4V13.52a1.19,1.19,0,0,1,1.27-1.11H34a1.2,1.2,0,0,1,1.28,1.11V29.4A1.21,1.21,0,0,1,34,30.52Z"/><path d="M23.14,20.4a.48.48,0,0,1-.39-.18.38.38,0,0,1,.12-.58l12.65-7.57a.52.52,0,0,1,.67.1.38.38,0,0,1-.13.58L23.41,20.32A.43.43,0,0,1,23.14,20.4Z"/><path d="M17.65,20.43a.43.43,0,0,1-.27-.08L4.73,12.77a.38.38,0,0,1-.12-.58.51.51,0,0,1,.66-.1l12.65,7.58a.38.38,0,0,1,.12.58A.47.47,0,0,1,17.65,20.43Z"/><path d="M35.79,30.93H5A1.66,1.66,0,0,1,3.24,29.4V13.52A1.66,1.66,0,0,1,5,12H35.79a1.66,1.66,0,0,1,1.76,1.53V29.4A1.66,1.66,0,0,1,35.79,30.93ZM5,12.83a.75.75,0,0,0-.8.69V29.4a.75.75,0,0,0,.8.7H35.79a.75.75,0,0,0,.8-.7V13.52a.75.75,0,0,0-.8-.69Z"/><path class="cls-5" d="M21.6,23.91H19.19a1.33,1.33,0,0,1-1.41-1.23V19.11a1.33,1.33,0,0,1,1.41-1.22H21.6A1.33,1.33,0,0,1,23,19.11v3.57A1.32,1.32,0,0,1,21.6,23.91Z"/><path class="cls-4" d="M20.33,23.91H19.19a1.33,1.33,0,0,1-1.41-1.23V19.11a1.33,1.33,0,0,1,1.41-1.22h1.14s.07,0,.07.05v5.91S20.36,23.91,20.33,23.91Z"/><path class="cls-6" d="M20.22,23.91a1,1,0,0,1-1-.9V18.79a1,1,0,0,1,2.07,0V23A1,1,0,0,1,20.22,23.91Z"/><path d="M21.6,24.33H19.19a1.79,1.79,0,0,1-1.89-1.65V19.11a1.78,1.78,0,0,1,1.89-1.64H21.6a1.78,1.78,0,0,1,1.89,1.64v3.57A1.5,1.5,0,0,1,23,23.84,2.07,2.07,0,0,1,21.6,24.33Zm-2.41-6a.88.88,0,0,0-.93.81v3.57a.88.88,0,0,0,.93.81H21.6a1,1,0,0,0,.67-.24.75.75,0,0,0,.26-.57V19.11a.88.88,0,0,0-.93-.81Z"/><path class="cls-7" d="M6.16,28.82a.27.27,0,0,1-.28-.25V26.28A.27.27,0,0,1,6.16,26a.26.26,0,0,1,.28.24v2.29A.26.26,0,0,1,6.16,28.82Z"/><path class="cls-7" d="M6.16,16a.27.27,0,0,1-.28-.24,2.13,2.13,0,0,1,2.26-2,.24.24,0,1,1,0,.48,1.61,1.61,0,0,0-1.7,1.48A.26.26,0,0,1,6.16,16Z"/><path class="cls-7" d="M6.16,17.32a.27.27,0,0,1-.28-.25v-.38a.27.27,0,0,1,.28-.24.26.26,0,0,1,.28.24v.38A.26.26,0,0,1,6.16,17.32Z"/></svg>