<svg id="Capa_1" data-name="Capa 1" xmlns="http://www.w3.org/2000/svg" viewBox="0 0 40 40"><defs><style>.cls-1{fill:#fff;}.cls-2{fill:#d0481f;}.cls-3{fill:#f16723;}.cls-4{fill:#f05225;}.cls-5{fill:#ffe4b8;}.cls-6{fill:#e7d0a9;}.cls-7{fill:#d99816;}.cls-8{fill:#fbd20a;}.cls-9{fill:#faaf1a;}.cls-10{fill:#3769a5;}.cls-11{fill:#4e9bd4;}.cls-12{fill:#4077bb;}</style></defs><title>IconoInicio</title><path class="cls-1" d="M25.75,34.56c-.12.08.06.13,0,0Z"/><path class="cls-1" d="M31.48,28.79l4-13.82c.65-2.23-.91-4.49-3.48-5a4.87,4.87,0,0,0-5.81,3l-4,13.91h0a.17.17,0,0,0-.05.23l3.6,7.46,1.6-1.68Z"/><path class="cls-2" d="M33.34,29.29l-9.31-2,4-13.92a4.88,4.88,0,0,1,5.81-3c2.57.56,4.13,2.81,3.48,5Z"/><path class="cls-3" d="M32.76,9.93C30.34,9.72,28.06,11,27.48,13l-4,13.91,8.25,1.8,4-13.92C36.31,12.79,35,10.74,32.76,9.93Z"/><path class="cls-4" d="M35.24,16.52l.49-1.71c.58-2-.72-4.07-3-4.88C30.34,9.72,28.06,11,27.48,13L27,14.73Z"/><path class="cls-5" d="M33.17,29.16,23.43,27l2.1,5.45.5,2.13c.06.12-.12.08,0,0l7.24-5.11A.2.2,0,0,0,33.17,29.16Z"/><path class="cls-3" d="M24.58,32.29l1.09,2.25a.24.24,0,0,0,.36.08l2.19-1.55Z"/><path class="cls-6" d="M31.68,28.84,27.7,33l.71.16L33,29.71l.17-.56Z"/><path class="cls-1" d="M28.64,12.84h-.08a.27.27,0,0,1-.22-.32,1.88,1.88,0,0,1,1-1.12,2.37,2.37,0,0,1,1.6-.2.25.25,0,0,1,.21.31.29.29,0,0,1-.36.19,1.69,1.69,0,0,0-1.13.15,1.3,1.3,0,0,0-.68.8A.31.31,0,0,1,28.64,12.84Z"/><path d="M36.94,12a6.19,6.19,0,0,0-3.85-2.46,7,7,0,0,0-4.73.61,5.51,5.51,0,0,0-2.84,3.34l-.81,2.8a.44.44,0,0,0,.26.51.5.5,0,0,0-.51.33l-.41,1.42a.43.43,0,0,0,.23.49.51.51,0,0,0-.47.34l-2.09,7.22a2.19,2.19,0,0,0,.13,1.53l3.06,6.41a1.13,1.13,0,0,0,.81.61,1.3,1.3,0,0,0,1-.21l6.17-4.4a2.4,2.4,0,0,0,.93-1.26s0,0,0,0,0,0,0,0l1-3.41a.43.43,0,0,0-.25-.5.52.52,0,0,0,.49-.33l2.56-8.84A4.93,4.93,0,0,0,36.94,12Zm-.3,3.89-2.55,8.84a.43.43,0,0,0,.24.5.52.52,0,0,0-.49.34l-.87,3-9.39-2a.52.52,0,0,0-.63.33.45.45,0,0,0,.38.55l9.31,2a1.73,1.73,0,0,1-.4.41l-6.17,4.4a.13.13,0,0,1-.13,0,.14.14,0,0,1-.1-.07l-3.06-6.41a1.36,1.36,0,0,1-.07-1l2.08-7.23a.42.42,0,0,0-.23-.49.5.5,0,0,0,.47-.34l.41-1.41a.44.44,0,0,0-.26-.51.51.51,0,0,0,.51-.33l.4-1.4,9.41,2h.13a.51.51,0,0,0,.5-.33.45.45,0,0,0-.38-.55l-9.41-2,.16-.54a4.6,4.6,0,0,1,2.38-2.78,5.92,5.92,0,0,1,4-.51A5.13,5.13,0,0,1,36,12.43,3.94,3.94,0,0,1,36.64,15.84Z"/><path class="cls-1" d="M28.31,14h-.07a.27.27,0,0,1-.22-.32l.09-.33a.31.31,0,0,1,.36-.2.28.28,0,0,1,.23.32l-.1.33A.29.29,0,0,1,28.31,14Z"/><path class="cls-1" d="M24.83,26.06h-.07a.27.27,0,0,1-.23-.31l.58-2a.31.31,0,0,1,.36-.2.28.28,0,0,1,.23.32l-.58,2A.29.29,0,0,1,24.83,26.06Z"/><path class="cls-1" d="M14.4,34.6c-.06.13.11.09,0,0Z"/><path class="cls-1" d="M16.28,27.16,12.2,13.36a4.89,4.89,0,0,0-5.84-3c-2.56.57-4.11,2.83-3.45,5.06L7,29.32h0a.17.17,0,0,0,.08.21L14.4,34.6l.49-2.13Z"/><path class="cls-7" d="M18.17,26.83,8.89,28.9,4.78,15c-.65-2.22.89-4.48,3.45-5.06a4.9,4.9,0,0,1,5.84,3Z"/><path class="cls-8" d="M7,10.05c-2.25.81-3.54,2.88-2.94,4.9l4.1,13.89L16.43,27l-4.1-13.9C11.74,11.09,9.46,9.82,7,10.05Z"/><path class="cls-9" d="M12.84,14.82l-.51-1.71c-.6-2-2.88-3.29-5.3-3.07-2.25.82-3.55,2.88-2.95,4.9l.51,1.71Z"/><path class="cls-5" d="M18,26.79,8.22,29l4.83,3.93,1.61,1.66c.12.09-.06.13,0,0l3.56-7.47C18.3,26.91,18.15,26.75,18,26.79Z"/><path class="cls-8" d="M12.11,33.08l2.2,1.54a.26.26,0,0,0,.36-.08l1.08-2.27Z"/><path class="cls-6" d="M16.47,27.12,15.23,32.4l.71-.17,2.15-4.87-.17-.56Z"/><path class="cls-1" d="M4.87,14.35a.29.29,0,0,1-.29-.2,1.82,1.82,0,0,1,1.51-2.22.31.31,0,0,1,.37.19.26.26,0,0,1-.22.32A1.3,1.3,0,0,0,5.16,14a.25.25,0,0,1-.21.32Z"/><path d="M18.59,26.61a.19.19,0,0,0,0-.08.33.33,0,0,0,0-.06l-1-3.38a.51.51,0,0,0-.48-.34.42.42,0,0,0,.24-.5l-2.6-8.81a5.5,5.5,0,0,0-2.87-3.32,7.12,7.12,0,0,0-4.75-.6c-3.34.74-5.36,3.71-4.5,6.61l.82,2.8a.52.52,0,0,0,.49.34.41.41,0,0,0-.24.5l.42,1.4a.5.5,0,0,0,.47.34.42.42,0,0,0-.23.49l2.13,7.22a2.41,2.41,0,0,0,1,1.3l6.19,4.37a1.33,1.33,0,0,0,.74.24l.3,0a1.18,1.18,0,0,0,.8-.61l3-6.42A2.24,2.24,0,0,0,18.59,26.61Zm-1.11,1.11-3,6.43a.12.12,0,0,1-.09.07.14.14,0,0,1-.12,0l-6.2-4.37a1.53,1.53,0,0,1-.6-.83L5.33,21.79a.5.5,0,0,0-.48-.34A.44.44,0,0,0,5.09,21l-.43-1.41a.49.49,0,0,0-.48-.33.43.43,0,0,0,.24-.51L4,17.31l9.4-2.1a.44.44,0,0,0,.37-.54.53.53,0,0,0-.63-.32l-9.4,2.09-.15-.54a3.94,3.94,0,0,1,.57-3.43,5.17,5.17,0,0,1,3.19-2.08,5.81,5.81,0,0,1,4,.5,4.65,4.65,0,0,1,2.4,2.77l2.6,8.82a.51.51,0,0,0,.49.33.44.44,0,0,0-.25.5l.89,3L8.08,28.4a.45.45,0,0,0-.37.55.51.51,0,0,0,.5.34l.13,0,9.29-2.07A1.41,1.41,0,0,1,17.48,27.72Z"/><path class="cls-1" d="M5.21,15.48a.32.32,0,0,1-.3-.2L4.81,15A.27.27,0,0,1,5,14.62a.32.32,0,0,1,.37.19l.1.34a.26.26,0,0,1-.22.32Z"/><path class="cls-1" d="M8.77,27.54a.32.32,0,0,1-.3-.2l-.58-2A.26.26,0,0,1,8.1,25a.3.3,0,0,1,.37.19l.59,2a.27.27,0,0,1-.22.32Z"/><path class="cls-1" d="M20,35c-.11.13.11.13,0,0Z"/><path class="cls-1" d="M24.65,26.92V10.11C24.65,7.4,22.11,5.2,19,5.2s-5.65,2.2-5.65,4.91V27h0a.2.2,0,0,0,0,.26L20,35l1.29-2.31Z"/><path class="cls-10" d="M26.93,27H15.61V10.11c0-2.71,2.54-4.91,5.66-4.91s5.65,2.2,5.65,4.91V27Z"/><path class="cls-11" d="M19.87,5c-2.84.36-5,2.39-5,4.84V26.78h10V9.85C24.89,7.4,22.72,5.37,19.87,5Z"/><path class="cls-12" d="M24.89,11.94V9.85c0-2.45-2.18-4.48-5-4.84-2.84.36-5,2.39-5,4.84v2.09Z"/><path class="cls-5" d="M26.7,26.92H14.85L19,32.64,20.33,35c.11.13-.11.13,0,0l6.59-7.64A.24.24,0,0,0,26.7,26.92Z"/><path class="cls-12" d="M17.9,32.64l2,2.31a.3.3,0,0,0,.44,0l2-2.31Z"/><path class="cls-6" d="M24.89,26.92l-3.2,5.72h.86l4.11-5v-.68Z"/><path class="cls-1" d="M16,9.33a.29.29,0,0,1-.3-.26A2.28,2.28,0,0,1,18.16,7a.26.26,0,1,1,0,.52,1.72,1.72,0,0,0-1.82,1.58A.29.29,0,0,1,16,9.33Z"/><path d="M13.34,14.81a.49.49,0,0,0-.52.45V17a.52.52,0,0,0,1,0V15.26A.48.48,0,0,0,13.34,14.81Z"/><path d="M13.33,14.69a.48.48,0,0,0,.51-.45V12.46H25.4a.49.49,0,0,0,.51-.45.48.48,0,0,0-.51-.45H13.84v-.73c0-3,2.82-5.43,6.26-5.43s6.26,2.43,6.26,5.43V21.57a.49.49,0,0,0,.52.45.49.49,0,0,0,.52-.45V10.83c0-3.49-3.28-6.33-7.3-6.33s-7.29,2.84-7.29,6.33v3.41A.49.49,0,0,0,13.33,14.69Z"/><path d="M26.89,22.15a.49.49,0,0,0-.52.44v3.74H14.84a.45.45,0,1,0,0,.9H26.31a1.82,1.82,0,0,1-.37.7l-5.61,6.58a.31.31,0,0,1-.23.09.25.25,0,0,1-.2-.09l-5.62-6.58a1.8,1.8,0,0,1-.44-1.15V18a.52.52,0,0,0-1,0v8.79a2.58,2.58,0,0,0,.64,1.68L19.06,35a1.3,1.3,0,0,0,1,.46h0A1.38,1.38,0,0,0,21.16,35l5.61-6.58a2.59,2.59,0,0,0,.63-1.67V22.6A.48.48,0,0,0,26.89,22.15Z"/><path class="cls-1" d="M16,10.71a.29.29,0,0,1-.3-.26V10a.29.29,0,0,1,.3-.26.29.29,0,0,1,.31.26v.41A.29.29,0,0,1,16,10.71Z"/><path class="cls-1" d="M16,25.41a.29.29,0,0,1-.3-.27V22.7a.29.29,0,0,1,.3-.26.29.29,0,0,1,.31.26v2.44A.29.29,0,0,1,16,25.41Z"/><path class="cls-8" d="M30.13,6h-.3V5.7a.29.29,0,0,0-.3-.27.29.29,0,0,0-.31.27V6h-.3a.26.26,0,1,0,0,.52h.3v.26a.28.28,0,0,0,.31.26.28.28,0,0,0,.3-.26V6.48h.3a.26.26,0,1,0,0-.52Z"/><path class="cls-3" d="M3.51,24.53h-.3v-.26a.29.29,0,0,0-.3-.26.29.29,0,0,0-.31.26v.26H2.3a.26.26,0,1,0,0,.52h.3v.27a.29.29,0,0,0,.31.26.29.29,0,0,0,.3-.26v-.27h.3a.26.26,0,1,0,0-.52Z"/><path class="cls-11" d="M35.33,31.6H35v-.26a.29.29,0,0,0-.31-.26.29.29,0,0,0-.3.26v.26h-.3a.27.27,0,1,0,0,.53h.3v.26a.29.29,0,0,0,.3.26.29.29,0,0,0,.31-.26v-.26h.3a.27.27,0,1,0,0-.53Z"/><path class="cls-3" d="M37.11,23.18a.78.78,0,1,1,.89-.77A.84.84,0,0,1,37.11,23.18Zm0-1a.25.25,0,1,0,.29.25A.27.27,0,0,0,37.11,22.16Z"/><path d="M36.7,24.78a.16.16,0,1,0-.18-.16A.17.17,0,0,0,36.7,24.78Z"/><path d="M31.85,6.38a.16.16,0,1,0-.18-.16A.17.17,0,0,0,31.85,6.38Z"/><path d="M9.52,5.6a.16.16,0,1,0-.18-.16A.17.17,0,0,0,9.52,5.6Z"/><path d="M4,27.9a.16.16,0,1,0-.18-.16A.17.17,0,0,0,4,27.9Z"/><path d="M8.09,5.6a.23.23,0,1,0,0-.46.23.23,0,1,0,0,.46Z"/><path class="cls-8" d="M10.58,8.14a1,1,0,0,1-1-.89,1,1,0,0,1,1-.89,1,1,0,0,1,1,.89A1,1,0,0,1,10.58,8.14Zm0-1.25a.39.39,0,0,0-.42.36.4.4,0,0,0,.42.37A.4.4,0,0,0,11,7.25.39.39,0,0,0,10.58,6.89Z"/><path class="cls-11" d="M6.16,31.4a.63.63,0,1,0,0,1.25.63.63,0,1,0,0-1.25Zm0,.73A.11.11,0,0,1,6,32c0-.06,0-.1.12-.1s.12,0,.12.1A.11.11,0,0,1,6.16,32.13Z"/></svg>