<svg id="Capa_1" data-name="Capa 1" xmlns="http://www.w3.org/2000/svg" xmlns:xlink="http://www.w3.org/1999/xlink" viewBox="0 0 50 50"><defs><style>.cls-1,.cls-10,.cls-11,.cls-12,.cls-13,.cls-14,.cls-15,.cls-16,.cls-17,.cls-18,.cls-19,.cls-2,.cls-20,.cls-21,.cls-22,.cls-23,.cls-24,.cls-25,.cls-3,.cls-4,.cls-5,.cls-6,.cls-7,.cls-8,.cls-9{stroke:#7f7473;stroke-miterlimit:10;stroke-width:0.25px;}.cls-1{fill:url(#Degradado_sin_nombre_13);}.cls-2{fill:url(#Degradado_sin_nombre_13-2);}.cls-3{fill:url(#Degradado_sin_nombre_13-3);}.cls-4{fill:url(#Degradado_sin_nombre_13-4);}.cls-5{fill:url(#Degradado_sin_nombre_13-5);}.cls-6{fill:url(#Degradado_sin_nombre_13-6);}.cls-7{fill:url(#Degradado_sin_nombre_13-7);}.cls-8{fill:url(#Degradado_sin_nombre_13-8);}.cls-9{fill:url(#Degradado_sin_nombre_13-9);}.cls-10{fill:url(#Degradado_sin_nombre_13-10);}.cls-11{fill:url(#Degradado_sin_nombre_13-11);}.cls-12{fill:url(#Degradado_sin_nombre_13-12);}.cls-13{fill:url(#Degradado_sin_nombre_13-13);}.cls-14{fill:url(#Degradado_sin_nombre_13-14);}.cls-15{fill:url(#Degradado_sin_nombre_13-15);}.cls-16{fill:url(#Degradado_sin_nombre_13-16);}.cls-17{fill:url(#Degradado_sin_nombre_13-17);}.cls-18{fill:url(#Degradado_sin_nombre_13-18);}.cls-19{fill:url(#Degradado_sin_nombre_13-19);}.cls-20{fill:url(#Degradado_sin_nombre_13-20);}.cls-21{fill:url(#Degradado_sin_nombre_13-21);}.cls-22{fill:url(#Degradado_sin_nombre_13-22);}.cls-23{fill:url(#Degradado_sin_nombre_13-23);}.cls-24{fill:url(#Degradado_sin_nombre_13-24);}.cls-25{fill:url(#Degradado_sin_nombre_13-25);}</style><linearGradient id="Degradado_sin_nombre_13" x1="13.26" y1="37.19" x2="13.72" y2="37.19" gradientUnits="userSpaceOnUse"><stop offset="0.01" stop-color="#ffe100"/><stop offset="0.36" stop-color="#ffe100"/><stop offset="1" stop-color="#feb200"/></linearGradient><linearGradient id="Degradado_sin_nombre_13-2" x1="19.96" y1="40.65" x2="20.3" y2="40.65" xlink:href="#Degradado_sin_nombre_13"/><linearGradient id="Degradado_sin_nombre_13-3" x1="17.36" y1="40.93" x2="18.1" y2="40.93" xlink:href="#Degradado_sin_nombre_13"/><linearGradient id="Degradado_sin_nombre_13-4" x1="16.97" y1="37.52" x2="17.33" y2="37.52" xlink:href="#Degradado_sin_nombre_13"/><linearGradient id="Degradado_sin_nombre_13-5" x1="34.35" y1="37.52" x2="34.71" y2="37.52" xlink:href="#Degradado_sin_nombre_13"/><linearGradient id="Degradado_sin_nombre_13-6" x1="32.54" y1="37.77" x2="33.07" y2="37.77" xlink:href="#Degradado_sin_nombre_13"/><linearGradient id="Degradado_sin_nombre_13-7" x1="1.78" y1="25.03" x2="47.98" y2="25.03" xlink:href="#Degradado_sin_nombre_13"/><linearGradient id="Degradado_sin_nombre_13-8" x1="19.51" y1="37.56" x2="20.18" y2="37.56" xlink:href="#Degradado_sin_nombre_13"/><linearGradient id="Degradado_sin_nombre_13-9" x1="27.68" y1="40.9" x2="27.94" y2="40.9" xlink:href="#Degradado_sin_nombre_13"/><linearGradient id="Degradado_sin_nombre_13-10" x1="28.87" y1="41.09" x2="29.27" y2="41.09" xlink:href="#Degradado_sin_nombre_13"/><linearGradient id="Degradado_sin_nombre_13-11" x1="22.74" y1="40.9" x2="23.01" y2="40.9" xlink:href="#Degradado_sin_nombre_13"/><linearGradient id="Degradado_sin_nombre_13-12" x1="23.28" y1="37.54" x2="23.76" y2="37.54" xlink:href="#Degradado_sin_nombre_13"/><linearGradient id="Degradado_sin_nombre_13-13" x1="26.47" y1="32.93" x2="29.9" y2="32.93" xlink:href="#Degradado_sin_nombre_13"/><linearGradient id="Degradado_sin_nombre_13-14" x1="33.44" y1="11.9" x2="36.82" y2="11.9" xlink:href="#Degradado_sin_nombre_13"/><linearGradient id="Degradado_sin_nombre_13-15" x1="30.9" y1="26.6" x2="31.94" y2="26.6" xlink:href="#Degradado_sin_nombre_13"/><linearGradient id="Degradado_sin_nombre_13-16" x1="28.95" y1="26.16" x2="29.99" y2="26.16" xlink:href="#Degradado_sin_nombre_13"/><linearGradient id="Degradado_sin_nombre_13-17" x1="31.94" y1="16.84" x2="32.36" y2="16.84" xlink:href="#Degradado_sin_nombre_13"/><linearGradient id="Degradado_sin_nombre_13-18" x1="32.91" y1="17.1" x2="34.4" y2="17.1" xlink:href="#Degradado_sin_nombre_13"/><linearGradient id="Degradado_sin_nombre_13-19" x1="13.49" y1="19.9" x2="13.88" y2="19.9" xlink:href="#Degradado_sin_nombre_13"/><linearGradient id="Degradado_sin_nombre_13-20" x1="15.36" y1="14.09" x2="16.46" y2="14.09" xlink:href="#Degradado_sin_nombre_13"/><linearGradient id="Degradado_sin_nombre_13-21" x1="19.54" y1="14.01" x2="20.29" y2="14.01" xlink:href="#Degradado_sin_nombre_13"/><linearGradient id="Degradado_sin_nombre_13-22" x1="21.09" y1="21.86" x2="22.4" y2="21.86" xlink:href="#Degradado_sin_nombre_13"/><linearGradient id="Degradado_sin_nombre_13-23" x1="19.36" y1="23.01" x2="21.11" y2="23.01" xlink:href="#Degradado_sin_nombre_13"/><linearGradient id="Degradado_sin_nombre_13-24" x1="15.12" y1="23" x2="15.89" y2="23" xlink:href="#Degradado_sin_nombre_13"/><linearGradient id="Degradado_sin_nombre_13-25" x1="13.38" y1="21.73" x2="14.86" y2="21.73" xlink:href="#Degradado_sin_nombre_13"/></defs><title>LogoRedondo</title><polygon class="cls-1" points="13.57 36.86 13.26 37.52 13.72 37.52 13.58 36.86 13.57 36.86"/><polygon class="cls-2" points="20.19 40.41 19.96 40.9 20.3 40.9 20.2 40.41 20.19 40.41"/><path class="cls-3" d="M18,40.48a.28.28,0,0,0-.32,0,.71.71,0,0,0-.15.15.53.53,0,0,0-.09.2.67.67,0,0,0,0,.24.58.58,0,0,0,0,.19.34.34,0,0,0,.1.13.24.24,0,0,0,.14,0,.34.34,0,0,0,.17,0,.54.54,0,0,0,.15-.15.78.78,0,0,0,.11-.2.67.67,0,0,0,0-.24.45.45,0,0,0,0-.2A.29.29,0,0,0,18,40.48Z"/><path class="cls-4" d="M17.11,37.85a1,1,0,0,0,.14-.25l.06-.21a1.8,1.8,0,0,0,0-.22c0-.06,0-.09,0-.09s-.09.08-.17.24a1.66,1.66,0,0,0-.1.29.85.85,0,0,0-.05.25.84.84,0,0,0,0,.1A.65.65,0,0,0,17.11,37.85Z"/><path class="cls-5" d="M34.63,37.6q0-.09.06-.21a1.8,1.8,0,0,0,0-.22c0-.06,0-.09,0-.09s-.09.08-.17.24a1.66,1.66,0,0,0-.1.29.85.85,0,0,0,0,.25.84.84,0,0,0,0,.1.65.65,0,0,0,.12-.11A1,1,0,0,0,34.63,37.6Z"/><path class="cls-6" d="M33,37.31l-.09.09-.14.21a2.67,2.67,0,0,0-.21.41.16.16,0,0,0,0,.08.18.18,0,0,0,.18.14.22.22,0,0,0,.17-.09.47.47,0,0,0,.13-.23.73.73,0,0,0,0-.3.78.78,0,0,0,0-.22C33,37.34,33,37.31,33,37.31Z"/><path class="cls-7" d="M24.88,1.92A23.11,23.11,0,1,0,48,25,23.11,23.11,0,0,0,24.88,1.92ZM37.13,22.8a.76.76,0,0,1-.35.52.64.64,0,0,1-.57,0,.83.83,0,0,1-.42-.36.69.69,0,0,1-.09-.5.51.51,0,0,1,.1-.24.77.77,0,0,1,.18-.18.83.83,0,0,1,.54-.17.63.63,0,0,1,.49.27.7.7,0,0,1,.13.29A.74.74,0,0,1,37.13,22.8Zm-2.22,1.41a.73.73,0,0,1,.44-.25.82.82,0,0,1,.55.08.62.62,0,0,1,.34.46.79.79,0,0,1-.16.61.8.8,0,0,1-.55.31.67.67,0,0,1-.53-.21.79.79,0,0,1-.22-.51A.72.72,0,0,1,34.91,24.21ZM34.7,18.7a.74.74,0,0,1,0-.26.82.82,0,0,1,.21-.52.64.64,0,0,1,.52-.22.84.84,0,0,1,.3.08A.86.86,0,0,1,36,18a.72.72,0,0,1,.18.6.67.67,0,0,1-.31.47.86.86,0,0,1-.56.1.77.77,0,0,1-.44-.24A.72.72,0,0,1,34.7,18.7ZM37,20.88a.69.69,0,0,1-.5.29A.74.74,0,0,1,36,21a.65.65,0,0,1-.3-.41.68.68,0,0,1,.07-.5.85.85,0,0,1,.41-.38.64.64,0,0,1,.57,0,.82.82,0,0,1,.38.5A.81.81,0,0,1,37,20.88ZM23.29,17.25a.46.46,0,0,1,.62.16.46.46,0,0,1-.15.63.48.48,0,0,1-.63-.16A.46.46,0,0,1,23.29,17.25Zm2.85,3.43-1-.08-.37.91-.42-.88-1,.13L24,20l-.61-.77,1,.07.36-.91.43.89,1-.14-.55.81Zm1.71-1.34a1.15,1.15,0,1,1-1.18-2,1.15,1.15,0,1,1,1.18,2Zm1.08-3a1,1,0,0,1,.77-.05.8.8,0,0,1,.47.51A1,1,0,0,1,29.73,18a.94.94,0,0,1-1.19-.35A.86.86,0,0,1,28.93,16.37ZM28.2,25.5a.46.46,0,1,1,.15-.62A.46.46,0,0,1,28.2,25.5ZM26.5,38.07a.3.3,0,0,0,.23.11.28.28,0,0,0,.23-.13.54.54,0,0,0,.09-.31.6.6,0,0,0-.06-.27.62.62,0,0,0-.17-.22s-.05,0-.05,0,0,0,.07-.08L27,37l.17,0a.23.23,0,0,1,.14,0,.32.32,0,0,1,.12.11.56.56,0,0,1,.09.17,1.49,1.49,0,0,1,0,.21,1,1,0,0,1-.06.35.9.9,0,0,1-.18.29,1.25,1.25,0,0,1-.35.23,1.08,1.08,0,0,1-.38.08,1,1,0,0,1-.35-.06.69.69,0,0,1-.28-.16.53.53,0,0,1-.14-.39.94.94,0,0,1,.1-.39,1.27,1.27,0,0,1,.63-.61.85.85,0,0,1,.4-.1c.17,0,.26,0,.26.06s0,.07-.12.08a.46.46,0,0,0-.25.08.77.77,0,0,0-.22.19,1,1,0,0,0-.19.59A.56.56,0,0,0,26.5,38.07Zm-.88-15.31a.45.45,0,0,1,.15-.63.46.46,0,0,1,.47.79A.45.45,0,0,1,25.62,22.76Zm1,.69a.47.47,0,0,1,.62.16.45.45,0,0,1-.15.63.45.45,0,0,1-.62-.16A.46.46,0,0,1,26.6,23.45Zm-4.15-7.52a.46.46,0,0,1,.47.79.46.46,0,0,1-.47-.79Zm-1.12-1.26a.46.46,0,1,1-.15.62A.45.45,0,0,1,21.33,14.67Zm-7.88.39a.78.78,0,0,1,.54-.31.65.65,0,0,1,.53.21.8.8,0,0,1,.23.51.78.78,0,0,1-.14.49.7.7,0,0,1-.44.25.82.82,0,0,1-.55-.08.63.63,0,0,1-.33-.46A.79.79,0,0,1,13.45,15.06Zm-1.06,2.31a.77.77,0,0,1,.36-.52.64.64,0,0,1,.56,0,.9.9,0,0,1,.43.36.8.8,0,0,1,.09.5.66.66,0,0,1-.11.24.52.52,0,0,1-.18.18.81.81,0,0,1-.54.17.65.65,0,0,1-.49-.27.86.86,0,0,1-.13-.29A.93.93,0,0,1,12.39,17.37Zm-1,16.52a1.39,1.39,0,0,1-.83,0,1.44,1.44,0,0,1-.92-1.82l1.81-5.51,2-6.17a.41.41,0,0,1-.11.07.64.64,0,0,1-.57,0,.76.76,0,0,1-.38-.5.81.81,0,0,1,.1-.62A.65.65,0,0,1,13,19a.84.84,0,0,1,.54.15.72.72,0,0,1,.25.27l1.55-4.71a.71.71,0,0,1-.26-.23.61.61,0,0,1-.1-.55.77.77,0,0,1,.81-.57L16.6,11a1.4,1.4,0,0,1,.55-.73,1.45,1.45,0,0,0-.52,1.49l1.19,4.78,1.52-4.63a1.45,1.45,0,0,0-2-1.75,1.44,1.44,0,0,1,.36-.15A1.46,1.46,0,0,1,19.44,11l.61,2.46a.5.5,0,0,1,.44.26.51.51,0,0,1-.17.71h0l1.56,6.27a1.15,1.15,0,0,1,1,2.07,1.11,1.11,0,0,1-.45.16l.46,1.88,1.92,7.72a1.45,1.45,0,0,1-.34,1.33,1.52,1.52,0,0,1-.71.43A1.46,1.46,0,0,1,22,33.27l-1.91-7.7-.46-1.86a.77.77,0,0,1-.24-.37,1,1,0,0,1,0-.6L17.82,16.5l-1.93,5.84a.51.51,0,0,1,.3.06.64.64,0,0,1,.35.37.79.79,0,0,1,0,.55.64.64,0,0,1-.37.43.81.81,0,0,1-.63,0l-.12-.07-1.74,5.27-1.33,4A1.42,1.42,0,0,1,11.4,33.89Zm5.89-20.81a.82.82,0,0,1,1.16,0,.64.64,0,0,1,.17.54.87.87,0,0,1-.26.5.74.74,0,0,1-.47.2.72.72,0,0,1-.47-.19.76.76,0,0,1-.28-.48A.65.65,0,0,1,17.29,13.08ZM20.07,38c-.11.13-.21.23-.29.31a1.59,1.59,0,0,1-.25.17.41.41,0,0,1-.2.06.45.45,0,0,1-.32-.12.48.48,0,0,1-.12-.33A.83.83,0,0,1,19,37.8a1.57,1.57,0,0,1,.62-.77,1,1,0,0,1,.54-.18.63.63,0,0,1,.35.09.24.24,0,0,1,.14.22.35.35,0,0,1-.07.21.25.25,0,0,1,.12,0s0,0,0,.1v.07c0,.11,0,.21,0,.31v.21a.25.25,0,0,1,0,.08,1.42,1.42,0,0,0,0,.16.81.81,0,0,1-.2.14.32.32,0,0,1-.19,0c-.17,0-.26-.15-.26-.44V38ZM18.7,36.65a.26.26,0,0,1-.21.14h0a.17.17,0,0,1-.12,0,.29.29,0,0,1,0-.14.63.63,0,0,1,.05-.22.5.5,0,0,1,.1-.18.2.2,0,0,1,.14-.06.17.17,0,0,1,.13,0,.22.22,0,0,1,0,.14A.57.57,0,0,1,18.7,36.65Zm.05.45a1.53,1.53,0,0,1,0,.3,2.81,2.81,0,0,1-.1.39c-.05.16-.12.38-.23.68a1.57,1.57,0,0,1-.12.3,1.39,1.39,0,0,1-.15.22l-.05,0c-.05,0-.09,0-.13-.12a.75.75,0,0,1-.05-.31,1.72,1.72,0,0,1,0-.34c0-.1,0-.15.08-.15l0,0h0v-.07a.13.13,0,0,1,0-.06c0-.23,0-.4.06-.53a1.74,1.74,0,0,1,.1-.32.94.94,0,0,1,.12-.18.3.3,0,0,1,.18-.09.2.2,0,0,1,.15.06A.25.25,0,0,1,18.75,37.1Zm0-13a.89.89,0,0,1-.68.3.91.91,0,0,1-.69-.28.75.75,0,0,1-.2-.64,1,1,0,0,1,.31-.59.9.9,0,0,1,.56-.23,1,1,0,0,1,.88.8A.74.74,0,0,1,18.74,24.09ZM14.47,38.45a.45.45,0,0,1-.18,0,.31.31,0,0,1-.17,0,.68.68,0,0,1-.12-.12,2.1,2.1,0,0,1-.13-.32l0,0a.14.14,0,0,0,0-.06.74.74,0,0,1-.31.08h-.47l0,0a1.65,1.65,0,0,1-.17.31.41.41,0,0,1-.19.14.68.68,0,0,1-.27,0l-.13,0a.1.1,0,0,1,0-.07.9.9,0,0,1,.19-.31l.1-.14c-.12,0-.18-.06-.18-.13s.05-.12.14-.22a.31.31,0,0,1,.13-.09l.2,0,.18-.32a1.81,1.81,0,0,1,.1-.17l.13-.24.2-.36-.1-.19.07,0a1,1,0,0,1,.32,0,.39.39,0,0,1,.29.1.63.63,0,0,1,.14.27,2.47,2.47,0,0,1,.11.48c0,.1,0,.18,0,.24l.08.28s0,.11.07.2l.05.11s0,.09,0,.13l.17.35A1.14,1.14,0,0,1,14.47,38.45Zm1.7-1.35a1.51,1.51,0,0,1-.29.45,1.77,1.77,0,0,1-.17.14.37.37,0,0,1-.15.05s-.06,0-.06-.05a.29.29,0,0,1,.05-.1,2.37,2.37,0,0,0,.14-.28v0a.08.08,0,0,0,0-.06,2.64,2.64,0,0,0,.12-.4,1.6,1.6,0,0,0,0-.32s0,0,0,0,0,0-.1.12a1.89,1.89,0,0,0-.11.25c-.07.18-.12.34-.16.46a3,3,0,0,0-.07.3,2.28,2.28,0,0,0,0,.26.57.57,0,0,0,0,.16.1.1,0,0,0,.08.05.37.37,0,0,0,.21-.08.88.88,0,0,0,.21-.22c.05-.07.09-.1.12-.1s.05,0,.05.08a.69.69,0,0,1-.11.36.89.89,0,0,1-.3.28.72.72,0,0,1-.37.11.53.53,0,0,1-.37-.14.51.51,0,0,1-.14-.38,1.34,1.34,0,0,1,.08-.45,2.53,2.53,0,0,1,.22-.52,3.15,3.15,0,0,1,.3-.47,1.61,1.61,0,0,1,.32-.32.36.36,0,0,1,.22-.07.34.34,0,0,1,.17,0,.46.46,0,0,1,.11.16.59.59,0,0,1,0,.23A1.34,1.34,0,0,1,16.17,37.1Zm.22.94a1,1,0,0,1,.07-.35,1.41,1.41,0,0,1,.18-.37A1.29,1.29,0,0,1,17,37a.83.83,0,0,1,.46-.16.34.34,0,0,1,.26.1.41.41,0,0,1,.09.28.67.67,0,0,1-.08.29,1.06,1.06,0,0,1-.21.29,1.81,1.81,0,0,1-.23.18.41.41,0,0,1-.19.06L17,38a.11.11,0,0,0,.13.1.64.64,0,0,0,.34-.15.44.44,0,0,1,.16-.08l.09,0s.05,0,.05.06a.15.15,0,0,1-.05.08l-.21.18-.23.14a.85.85,0,0,1-.22.09l-.19,0a.49.49,0,0,1-.34-.12A.41.41,0,0,1,16.39,38Zm2.39,3.88a1.13,1.13,0,0,1-.38.19,1.73,1.73,0,0,1-.47.06,1.81,1.81,0,0,1-.54-.07,1.25,1.25,0,0,1-.41-.23.87.87,0,0,1-.25-.37,1.19,1.19,0,0,1-.09-.47,1.33,1.33,0,0,1,.07-.45,1,1,0,0,1,.2-.39.92.92,0,0,1,.3-.29l.2-.1.24-.06.25,0a1.16,1.16,0,0,1,.56.13.89.89,0,0,1,.39.35.94.94,0,0,1,.14.51.88.88,0,0,1-.11.45,1,1,0,0,1-.28.34.62.62,0,0,1-.38.13c-.13,0-.21-.05-.23-.14a.15.15,0,0,1,0-.07.66.66,0,0,1-.19.15.41.41,0,0,1-.2.06.35.35,0,0,1-.24-.08.67.67,0,0,1-.17-.2.72.72,0,0,1-.06-.29,1,1,0,0,1,.1-.4.91.91,0,0,1,.25-.3.51.51,0,0,1,.32-.12.42.42,0,0,1,.38.24l0-.2h.23l-.18.86v.09a.65.65,0,0,0,0,.11.05.05,0,0,0,0,0l.06,0a.19.19,0,0,0,.11,0l.14-.09a.64.64,0,0,0,.1-.13l.08-.13a.75.75,0,0,0,0-.16.41.41,0,0,0,0-.16.73.73,0,0,0-.12-.41.78.78,0,0,0-.33-.29,1,1,0,0,0-.46-.11,1.16,1.16,0,0,0-.42.08,1,1,0,0,0-.34.24,1,1,0,0,0-.23.35,1.23,1.23,0,0,0-.08.44,1,1,0,0,0,.14.52.82.82,0,0,0,.37.34,1.4,1.4,0,0,0,.6.12,1.36,1.36,0,0,0,.36-.05.93.93,0,0,0,.31-.13l.13-.09.09-.12h.23A.87.87,0,0,1,18.78,41.92Zm2.09-.33a.27.27,0,0,1-.14,0,.28.28,0,0,1-.13,0l-.09-.09a1.54,1.54,0,0,1-.09-.24l0,0v0a.69.69,0,0,1-.24.06H19.8v0a1.44,1.44,0,0,1-.13.23.33.33,0,0,1-.15.11.54.54,0,0,1-.19,0h-.1a.05.05,0,0,1,0,0,.55.55,0,0,1,.14-.23.9.9,0,0,0,.07-.11c-.09,0-.13,0-.13-.09a.26.26,0,0,1,.11-.17.18.18,0,0,1,.09-.07l.15,0c.07-.12.12-.2.13-.23l.08-.14.1-.17.15-.27L20,39.93a.09.09,0,0,1,.06,0,.55.55,0,0,1,.24,0,.29.29,0,0,1,.21.08.55.55,0,0,1,.11.2,1.64,1.64,0,0,1,.08.36,1.64,1.64,0,0,0,0,.18l.06.21s0,.08.05.15a.59.59,0,0,0,0,.08,1,1,0,0,0,0,.1c0,.07.07.16.13.27A1.19,1.19,0,0,1,20.87,41.59Zm1.27-1a1.06,1.06,0,0,1-.22.33.57.57,0,0,1-.13.1.16.16,0,0,1-.1,0s-.05,0-.05,0a.17.17,0,0,1,0-.07,1.47,1.47,0,0,0,.11-.22v0l0,0c0-.1.06-.2.08-.3a1.93,1.93,0,0,0,0-.24s0,0,0,0,0,0-.07.09-.06.13-.08.19-.09.25-.12.35a1.2,1.2,0,0,0-.05.23,1.11,1.11,0,0,0,0,.19.37.37,0,0,0,0,.12.07.07,0,0,0,.06,0,.27.27,0,0,0,.16-.07.58.58,0,0,0,.15-.16S22,41,22.05,41s0,0,0,.06a.48.48,0,0,1-.09.27.88.88,0,0,1-.22.21.56.56,0,0,1-.27.08.38.38,0,0,1-.28-.11.36.36,0,0,1-.11-.28,1.16,1.16,0,0,1,.06-.34,2.14,2.14,0,0,1,.16-.39,3,3,0,0,1,.23-.35.91.91,0,0,1,.24-.24.25.25,0,0,1,.16-.06.21.21,0,0,1,.13,0,.19.19,0,0,1,.09.12.41.41,0,0,1,0,.16A1.1,1.1,0,0,1,22.14,40.59Zm-.08-2.15a.41.41,0,0,1-.12-.18.77.77,0,0,1,0-.27,1,1,0,0,1,0-.23h0l-.12.13-.08.09-.33.39a.62.62,0,0,1-.09.12.17.17,0,0,1-.14.07.23.23,0,0,1-.18-.09.33.33,0,0,1-.07-.21,1.54,1.54,0,0,1,0-.19c0-.08,0-.16,0-.25a2.76,2.76,0,0,1,.08-.27l.09-.27a.87.87,0,0,1,.19-.32.22.22,0,0,1,.19-.08c.12,0,.17.08.17.23a2.18,2.18,0,0,1-.07.48h0l.1-.12.25-.26.16-.12a.42.42,0,0,1,.15,0,.18.18,0,0,1,.17.07.4.4,0,0,1,.05.22,1.64,1.64,0,0,1,0,.2,1.77,1.77,0,0,0,0,.32,2.18,2.18,0,0,0,0,.28.93.93,0,0,0,0,.13l0,.08a.05.05,0,0,1,0,0l-.14.08a.34.34,0,0,1-.15,0A.26.26,0,0,1,22.06,38.44Zm.8,2.91a.49.49,0,0,0,.25-.12.22.22,0,0,1,.12-.06.11.11,0,0,1,.07,0,.05.05,0,0,1,0,0,.07.07,0,0,1,0,.06.64.64,0,0,1-.15.13,1.2,1.2,0,0,1-.17.11l-.17.07-.14,0a.37.37,0,0,1-.26-.09.32.32,0,0,1-.09-.24.63.63,0,0,1,.05-.26,1.43,1.43,0,0,1,.13-.28,1,1,0,0,1,.25-.25.64.64,0,0,1,.35-.12.26.26,0,0,1,.19.08.33.33,0,0,1,.07.21.42.42,0,0,1-.06.21.82.82,0,0,1-.16.22.64.64,0,0,1-.17.13.24.24,0,0,1-.15.05h0A.09.09,0,0,0,22.86,41.35Zm1.19-.54a2.38,2.38,0,0,1-.07.29c0,.12-.09.29-.17.51a1.12,1.12,0,0,1-.1.22.85.85,0,0,1-.1.17l-.05,0s-.07,0-.09-.1a.51.51,0,0,1,0-.22,1,1,0,0,1,0-.26c0-.08,0-.11.06-.11h0v-.1a2.87,2.87,0,0,1,.05-.4.85.85,0,0,1,.08-.24.38.38,0,0,1,.08-.13.21.21,0,0,1,.14-.07.14.14,0,0,1,.11.05.17.17,0,0,1,0,.12A.91.91,0,0,1,24.05,40.81Zm0-.56a.19.19,0,0,1-.16.1h0a.1.1,0,0,1-.09,0,.15.15,0,0,1,0-.1.34.34,0,0,1,0-.16.37.37,0,0,1,.07-.14.15.15,0,0,1,.11,0s.08,0,.09,0a.16.16,0,0,1,0,.11A.48.48,0,0,1,24,40.25ZM24,38.5a.15.15,0,0,1-.14-.1.38.38,0,0,1,0-.13s0-.12,0-.27a2.42,2.42,0,0,1-.44.38.67.67,0,0,1-.33.14.28.28,0,0,1-.23-.12.49.49,0,0,1-.09-.3,1.09,1.09,0,0,1,.07-.37,1.75,1.75,0,0,1,.19-.39,1.93,1.93,0,0,1,.17-.21l.19-.16a.77.77,0,0,1,.34-.13.36.36,0,0,1,.18.09l0-.07c0-.16.07-.28.1-.38a2.23,2.23,0,0,1,.08-.24.49.49,0,0,1,.09-.15.37.37,0,0,1,.26-.07h.12a.09.09,0,0,1,.07,0,3.67,3.67,0,0,0-.12.38c0,.08,0,.2-.07.35a5.27,5.27,0,0,0-.05.65,2.8,2.8,0,0,0,0,.4,3.21,3.21,0,0,0,.1.46l-.17.11-.16.06Zm1.47,2.67a.67.67,0,0,1-.13.22,1,1,0,0,1-.26.17.79.79,0,0,1-.29.06.75.75,0,0,1-.26,0,.53.53,0,0,1-.21-.12.39.39,0,0,1-.1-.29.66.66,0,0,1,.07-.3.86.86,0,0,1,.2-.27,1,1,0,0,1,.27-.19.67.67,0,0,1,.31-.07c.12,0,.19,0,.19,0s0,0-.09,0a.33.33,0,0,0-.19.06.43.43,0,0,0-.16.14.7.7,0,0,0-.11.21.61.61,0,0,0,0,.24.32.32,0,0,0,.07.22.2.2,0,0,0,.17.09.24.24,0,0,0,.17-.1.48.48,0,0,0,.07-.24.46.46,0,0,0-.05-.2A.4.4,0,0,0,25,40.7s0,0,0,0L25,40.6a.39.39,0,0,1,.13-.06l.12,0a.23.23,0,0,1,.11,0l.09.08a.31.31,0,0,1,.06.13.41.41,0,0,1,0,.16A.75.75,0,0,1,25.45,41.17Zm0-3.4s-.06-.07-.06-.21a.92.92,0,0,0,0-.18.3.3,0,0,0,0-.1,1.14,1.14,0,0,0-.07.44c0,.13,0,.21,0,.25v0a.25.25,0,0,1,0,.08.46.46,0,0,1,0,.14l0,.09-.07.07a.35.35,0,0,1-.25.12.16.16,0,0,1-.15-.08.48.48,0,0,1,0-.24,2.23,2.23,0,0,1,0-.33c0-.13.05-.24.07-.35l0,0a.08.08,0,0,1,0,0,3,3,0,0,1,.11-.35.83.83,0,0,1,.13-.18.3.3,0,0,1,.15,0q.12,0,.15.15l0-.05.08-.08.06,0c.1,0,.15.1.15.29a1.09,1.09,0,0,1-.12.55C25.52,37.74,25.48,37.77,25.45,37.77Zm1.61,2.33s-.09.11-.17.23,0,0-.09.12l-.07.09a5.21,5.21,0,0,0-.37.58l0,0v0l.27,0,.29,0,.09,0s.07,0,.07.06a.37.37,0,0,1-.05.16.48.48,0,0,1-.11.15.35.35,0,0,1-.16.09.71.71,0,0,1-.22.06l-.27,0a1.69,1.69,0,0,1-.33,0,.52.52,0,0,1-.21-.07.14.14,0,0,1-.08-.11.25.25,0,0,1,.07-.15l.28-.33.11-.12.11-.12.15-.17.12-.14a1.47,1.47,0,0,1,.1-.13l0,0,0,0-.25,0a1.28,1.28,0,0,1-.28.05H26c-.09,0-.13,0-.13-.1a.24.24,0,0,1,0-.12.76.76,0,0,1,.11-.14l.05,0h1a.13.13,0,0,1,.09,0l0,0S27.12,40,27.06,40.1Zm.73,1.25a.49.49,0,0,0,.25-.12l.12-.06a.1.1,0,0,1,.07,0,.05.05,0,0,1,0,0,.07.07,0,0,1,0,.06.64.64,0,0,1-.15.13,1.2,1.2,0,0,1-.17.11l-.16.07-.15,0a.37.37,0,0,1-.26-.09.32.32,0,0,1-.09-.24.85.85,0,0,1,.05-.26,1,1,0,0,1,.14-.28.82.82,0,0,1,.24-.25.64.64,0,0,1,.35-.12.26.26,0,0,1,.19.08.33.33,0,0,1,.07.21.42.42,0,0,1-.06.21.65.65,0,0,1-.16.22.64.64,0,0,1-.17.13.22.22,0,0,1-.14.05h-.06A.09.09,0,0,0,27.79,41.35Zm1.83-.11a.89.89,0,0,1-.24.3.53.53,0,0,1-.3.11.24.24,0,0,1-.15,0,.29.29,0,0,1-.11-.13v.05l-.13.39c0,.09-.06.14-.09.16a.07.07,0,0,1-.06,0A.13.13,0,0,1,28.4,42a.5.5,0,0,1,0-.2,2.47,2.47,0,0,1,0-.34,3.24,3.24,0,0,1,.09-.4,2,2,0,0,1,.12-.37,1.5,1.5,0,0,1,.09-.18l.1-.11.08,0a.12.12,0,0,1,.09,0,.17.17,0,0,1,0,.1.45.45,0,0,1,0,.11.53.53,0,0,0,0,.13h0l0-.08.1-.16a.47.47,0,0,1,.09-.1.19.19,0,0,1,.09-.05h.09a.26.26,0,0,1,.17,0,.43.43,0,0,1,.12.17.83.83,0,0,1-.05.63Zm0-2.83a.34.34,0,0,1-.17.08l-.34,0-.34,0H28.7a.18.18,0,0,1-.09-.17,1.56,1.56,0,0,1,.05-.35c0-.16.09-.37.16-.61a6.19,6.19,0,0,1,.34-1,.36.36,0,0,1,.1-.11l.15,0a.78.78,0,0,1,.22,0,.34.34,0,0,1,.17,0,.11.11,0,0,1,0,.1,1.07,1.07,0,0,1-.06.26c0,.13-.1.29-.18.49l-.06.13c-.07.18-.14.35-.2.52s-.08.24-.14.44a1.69,1.69,0,0,0,.38-.06l.18,0s.06,0,.06,0a.35.35,0,0,1-.06.16A1.29,1.29,0,0,1,29.61,38.41Zm1.45,2.76a.67.67,0,0,1-.13.22,1,1,0,0,1-.26.17.79.79,0,0,1-.29.06.78.78,0,0,1-.26,0,.53.53,0,0,1-.21-.12.39.39,0,0,1-.1-.29.66.66,0,0,1,.07-.3,1.05,1.05,0,0,1,.2-.27,1,1,0,0,1,.27-.19.67.67,0,0,1,.31-.07c.12,0,.19,0,.19,0s0,0-.09,0a.33.33,0,0,0-.19.06.52.52,0,0,0-.16.14.7.7,0,0,0-.11.21.61.61,0,0,0,0,.24.32.32,0,0,0,.07.22.2.2,0,0,0,.17.09.24.24,0,0,0,.17-.1.48.48,0,0,0,.07-.24.46.46,0,0,0,0-.2.4.4,0,0,0-.13-.16s0,0,0,0l.06-.06a.52.52,0,0,1,.13-.06l.12,0a.2.2,0,0,1,.11,0,.34.34,0,0,1,.09.08.31.31,0,0,1,.06.13.41.41,0,0,1,0,.16A.58.58,0,0,1,31.06,41.17Zm-.32-2.69a1.13,1.13,0,0,1-.36-.06.72.72,0,0,1-.27-.16.53.53,0,0,1-.14-.39.81.81,0,0,1,.1-.39,1.27,1.27,0,0,1,.26-.36,1.15,1.15,0,0,1,.37-.25.85.85,0,0,1,.4-.1c.17,0,.26,0,.26.06s0,.07-.12.08A.5.5,0,0,0,31,37a.63.63,0,0,0-.21.19,1,1,0,0,0-.19.59.48.48,0,0,0,.08.3.3.3,0,0,0,.23.11.28.28,0,0,0,.23-.13.54.54,0,0,0,.09-.31.6.6,0,0,0-.06-.27.62.62,0,0,0-.17-.22s-.05,0-.05,0,0,0,.07-.08l.17-.09.17,0a.25.25,0,0,1,.14,0,.32.32,0,0,1,.12.11.53.53,0,0,1,.08.17.76.76,0,0,1,0,.21.84.84,0,0,1-.07.35.65.65,0,0,1-.18.29,1.2,1.2,0,0,1-.34.23A1.08,1.08,0,0,1,30.74,38.48Zm.14-2a0,0,0,0,1,0,0l.06,0,.07-.06a1.86,1.86,0,0,0,.18-.23l.05-.08,0,0,.19-.06.17,0a0,0,0,0,1,.05,0c0,.07-.06.16-.19.28a1.32,1.32,0,0,1-.29.21.56.56,0,0,1-.27.08C30.9,36.57,30.88,36.55,30.88,36.51Zm1.37,4.08a1.27,1.27,0,0,1-.22.33.91.91,0,0,1-.13.1.19.19,0,0,1-.11,0s0,0,0,0a.17.17,0,0,1,0-.07,1.64,1.64,0,0,0,.1-.22l0,0s0,0,0,0,.06-.2.09-.3a1.52,1.52,0,0,0,0-.24s0,0,0,0,0,0-.07.09a1.07,1.07,0,0,0-.09.19,2.68,2.68,0,0,0-.11.35,1.31,1.31,0,0,0-.06.23,1.15,1.15,0,0,0,0,.19.41.41,0,0,0,0,.12s0,0,.06,0a.25.25,0,0,0,.16-.07.61.61,0,0,0,.16-.16s.06-.07.08-.07,0,0,0,.06a.47.47,0,0,1-.08.27.88.88,0,0,1-.22.21.57.57,0,0,1-.28.08.38.38,0,0,1-.39-.39,1.16,1.16,0,0,1,.06-.34,3.29,3.29,0,0,1,.17-.39,3,3,0,0,1,.22-.35,1.1,1.1,0,0,1,.25-.24.25.25,0,0,1,.16-.06.21.21,0,0,1,.13,0,.23.23,0,0,1,.08.12.41.41,0,0,1,0,.16A1.09,1.09,0,0,1,32.25,40.59ZM33.53,38a1.05,1.05,0,0,1-.31.4.67.67,0,0,1-.41.15.39.39,0,0,1-.2-.05.47.47,0,0,1-.15-.18v.07a4.14,4.14,0,0,1-.18.52.54.54,0,0,1-.11.21.13.13,0,0,1-.09,0,.19.19,0,0,1-.15-.1.62.62,0,0,1-.05-.27,2.74,2.74,0,0,1,0-.45c0-.17.06-.35.11-.53a4.92,4.92,0,0,1,.16-.5A1.36,1.36,0,0,1,32.3,37a.92.92,0,0,1,.13-.14.19.19,0,0,1,.1,0,.14.14,0,0,1,.16.16.76.76,0,0,1,0,.15s0,.11,0,.18h0l0-.1c.05-.09.1-.16.14-.22a.81.81,0,0,1,.11-.13.67.67,0,0,1,.12-.06l.12,0a.36.36,0,0,1,.23.08.47.47,0,0,1,.16.22,1.09,1.09,0,0,1,0,.33A1.13,1.13,0,0,1,33.53,38Zm1,.14a.64.64,0,0,0,.34-.15.44.44,0,0,1,.16-.08l.09,0s0,0,0,.06a.15.15,0,0,1,0,.08l-.21.18-.23.14a.85.85,0,0,1-.22.09l-.19,0a.47.47,0,0,1-.34-.12.41.41,0,0,1-.13-.32,1,1,0,0,1,.07-.35,1.41,1.41,0,0,1,.18-.37,1.29,1.29,0,0,1,.33-.33.83.83,0,0,1,.46-.16.3.3,0,0,1,.25.1.37.37,0,0,1,.1.28.67.67,0,0,1-.08.29,1.06,1.06,0,0,1-.21.29,1.81,1.81,0,0,1-.23.18.41.41,0,0,1-.19.06l-.08,0A.11.11,0,0,0,34.5,38.11Zm1.57,0a1.16,1.16,0,0,0,.42-.08l.06,0s.06,0,.06.09a.5.5,0,0,1-.08.27.57.57,0,0,1-.22.19.67.67,0,0,1-.31.07,1.48,1.48,0,0,1-.38,0,.69.69,0,0,1-.27-.1.19.19,0,0,1-.1-.15.19.19,0,0,1,0-.11l.17-.19.09-.1.06-.06.06-.07,0-.05,0,0c.1-.1.18-.2.25-.28l.06-.09.09-.12h0l-.08,0a2.15,2.15,0,0,1-.59.14c-.09,0-.13,0-.13-.12a.27.27,0,0,1,0-.14.38.38,0,0,1,.09-.13.47.47,0,0,1,.12-.09.29.29,0,0,1,.14,0h.15l.45,0,.19,0a.13.13,0,0,1,.09,0,.09.09,0,0,1,0,.06,4.5,4.5,0,0,1-.6,1l-.06.1Zm2.06-3.91-.19,0H28.65a1.37,1.37,0,0,1-.38.15,1.42,1.42,0,0,1-.84,0,1.46,1.46,0,0,1-.37-.2,1.26,1.26,0,0,1-.32-.21,1.39,1.39,0,0,1-.43-.8v0a1.47,1.47,0,0,1,.38-1L28.5,27l3.44-9.62a.77.77,0,0,1-.45.16,1,1,0,0,1-.89-.8.74.74,0,0,1,.18-.64.92.92,0,0,1,.69-.3.91.91,0,0,1,.69.28.68.68,0,0,1,.15.26l1.13-3.15-8.83,0c-.4,0-.73-.49-.75-1.12v0c0-.73.37-1.37.83-1.37l10.27,0a1.49,1.49,0,0,1,.91,0h0a1.27,1.27,0,0,1,1,1.24,1.35,1.35,0,0,1-.1.5l0,.11L31.94,26a.57.57,0,0,1,.16.11.82.82,0,0,1,.29.48.69.69,0,0,1-.15.55.82.82,0,0,1-.58.25l-.2,0-.76,2.11-.8,2.24,8.2,0a1.25,1.25,0,0,1,1.21,1.26A1.41,1.41,0,0,1,38.13,34.16Zm-3.6-7.92a.79.79,0,0,1-.41.49.79.79,0,0,1-.62,0,.64.64,0,0,1-.39-.41.77.77,0,0,1,0-.56.69.69,0,0,1,.33-.38.67.67,0,0,1,.5-.05.84.84,0,0,1,.47.32A.64.64,0,0,1,34.53,26.24Z"/><path class="cls-8" d="M20.18,37.61h0l-.17,0s-.07,0-.07,0l0-.06a.54.54,0,0,0,.09-.27.59.59,0,0,0,0-.14s0-.06-.06-.06-.05,0-.08.06a1.33,1.33,0,0,0-.25.35.65.65,0,0,0-.1.32.34.34,0,0,0,0,.16.12.12,0,0,0,.1.06.37.37,0,0,0,.18-.11l.31-.27Z"/><path class="cls-9" d="M27.88,41c0-.05,0-.1.05-.16a.92.92,0,0,0,0-.16s0-.07,0-.07-.07.06-.12.18a.83.83,0,0,0-.08.22.67.67,0,0,0,0,.18.28.28,0,0,0,0,.08l.09-.08A.69.69,0,0,0,27.88,41Z"/><path class="cls-10" d="M29.23,40.74l-.07.07s-.07.1-.1.16a1.63,1.63,0,0,0-.17.31s0,0,0,0,.07.11.14.11a.16.16,0,0,0,.13-.07.45.45,0,0,0,.1-.17.78.78,0,0,0,0-.22.86.86,0,0,0,0-.17S29.24,40.74,29.23,40.74Z"/><path class="cls-11" d="M23,41a.75.75,0,0,0,0-.16,1,1,0,0,0,0-.16s0-.07,0-.07-.07.06-.12.18a.83.83,0,0,0-.08.22.45.45,0,0,0,0,.18s0,0,0,.08a.36.36,0,0,0,.09-.08A.72.72,0,0,0,23,41Z"/><path class="cls-12" d="M23.61,37.69a.08.08,0,0,1,0,0,.69.69,0,0,0,0-.2.71.71,0,0,0-.06-.28c0-.06,0-.08-.06-.08s0,0,0,0a.7.7,0,0,0-.11.18,1.6,1.6,0,0,0-.08.26,1.12,1.12,0,0,0,0,.24c0,.14,0,.2.12.2a.3.3,0,0,0,.16-.07,1.12,1.12,0,0,0,.2-.18v-.1c-.06,0-.1.08-.13.08S23.61,37.71,23.61,37.69Z"/><path class="cls-13" d="M29.28,33.42l.62-1.75H27.14a2,2,0,0,0-.45.4l-.14.37a1.45,1.45,0,0,0,.51,1.64,1.52,1.52,0,0,0,.75.09h.84A1.48,1.48,0,0,0,29.28,33.42Z"/><path class="cls-14" d="M36.77,12.4a1.44,1.44,0,0,0-.9-1.74l-.21,0H35a1.45,1.45,0,0,0-.94.9l-.58,1.63h2.24A1.18,1.18,0,0,0,36.77,12.4Z"/><path class="cls-15" d="M31.17,26.07a.82.82,0,0,0-.27.5.68.68,0,0,0,.18.54.74.74,0,0,0,.38.21L31.94,26a.79.79,0,0,0-.31-.08A.74.74,0,0,0,31.17,26.07Z"/><path class="cls-16" d="M29.74,26.61a.53.53,0,0,0,.17-.72.51.51,0,1,0-.88.53A.53.53,0,0,0,29.74,26.61Z"/><path class="cls-17" d="M32.36,16.7a.82.82,0,0,0,0-.38l-.37,1,.1-.07A1,1,0,0,0,32.36,16.7Z"/><path class="cls-18" d="M33.33,17.77a.69.69,0,0,0,.51,0,.84.84,0,0,0,.45-.33.67.67,0,0,0,.08-.57.81.81,0,0,0-1-.48.65.65,0,0,0-.38.43.85.85,0,0,0,0,.55A.71.71,0,0,0,33.33,17.77Z"/><path class="cls-19" d="M13.78,20.06a.64.64,0,0,0,.07-.5.74.74,0,0,0,0-.14l-.32.95A.78.78,0,0,0,13.78,20.06Z"/><path class="cls-20" d="M16.07,14.75a.69.69,0,0,0,.33-.38.89.89,0,0,0,0-.56A.69.69,0,0,0,16,13.4l-.22,0-.45,1.35a.72.72,0,0,0,.2.09A.7.7,0,0,0,16.07,14.75Z"/><path class="cls-21" d="M19.61,14.28a.51.51,0,0,0,.68.19l-.24-1a.56.56,0,0,0-.27.08A.51.51,0,0,0,19.61,14.28Z"/><path class="cls-22" d="M21.25,22.42A1.16,1.16,0,0,0,22.4,23l-.55-2.23-.18.09A1.16,1.16,0,0,0,21.25,22.42Z"/><path class="cls-23" d="M20.6,23.8A.87.87,0,0,0,21,22.56a.94.94,0,0,0-1.19-.36.86.86,0,0,0-.44.54l.24,1a.68.68,0,0,0,.23.14A1,1,0,0,0,20.6,23.8Z"/><path class="cls-24" d="M15.24,22.7a.71.71,0,0,0-.09.57.87.87,0,0,0,.31.39l.43-1.32a.64.64,0,0,0-.2,0A.81.81,0,0,0,15.24,22.7Z"/><path class="cls-25" d="M13.83,22.39a.84.84,0,0,0,.3.08.65.65,0,0,0,.52-.22.88.88,0,0,0,.21-.52.75.75,0,0,0,0-.26.57.57,0,0,0-.12-.23.71.71,0,0,0-.44-.24.87.87,0,0,0-.56.1.67.67,0,0,0-.31.47.72.72,0,0,0,.18.6A.9.9,0,0,0,13.83,22.39Z"/></svg>