<svg id="Capa_1" data-name="Capa 1" xmlns="http://www.w3.org/2000/svg" viewBox="0 0 138 138"><defs><style>.cls-1{fill:#fff;}.cls-2{fill:#113243;}.cls-3{fill:#f83321;}.cls-4{fill:#f7900c;}.cls-13,.cls-5,.cls-6{fill:#d62828;}.cls-5{stroke:#d62828;}.cls-5,.cls-7{stroke-miterlimit:10;stroke-width:2px;}.cls-12,.cls-7,.cls-8{fill:#003049;}.cls-7{stroke:#003049;}.cls-9{fill:#f77f00;}.cls-10{fill:#994900;}.cls-11{font-size:26.02px;fill:#00557a;}.cls-11,.cls-12{font-family:BerlinSansFB-Reg, Berlin Sans FB;}.cls-12{font-size:9.12px;}.cls-13{font-size:1.86px;font-family:MyriadPro-Regular, Myriad Pro;}</style></defs><title>Undervisa</title><path class="cls-1" d="M113.24,45.76l-16.5,4.06a2.13,2.13,0,0,0,.51,4.2,2.29,2.29,0,0,0,.51-.06l16.5-4.06a2.13,2.13,0,0,0-1-4.14Z"/><polygon class="cls-2" points="29.55 0.81 106.87 -33.83 184.19 -68.47 166.44 -4.49 148.68 59.49 89.12 30.15 29.55 0.81"/><polygon class="cls-3" points="89.42 -1.06 147.6 0 205.79 1.06 175.78 50.92 145.77 100.78 117.6 49.86 89.42 -1.06"/><polygon class="cls-4" points="99.25 -7.57 157.43 -6.5 215.61 -5.44 185.6 44.41 155.59 94.27 127.42 43.35 99.25 -7.57"/><polyline class="cls-5" points="45.74 50.99 45.8 57.51 45.81 58.89 45.88 65.42"/><rect class="cls-6" x="44.23" y="54.25" width="3.16" height="7.91" transform="translate(-0.56 0.45) rotate(-0.56)"/><polyline class="cls-7" points="40.05 56.67 40.09 60.78 40.09 61.65 40.13 65.75"/><rect class="cls-8" x="38.51" y="58.72" width="3.16" height="4.97" transform="translate(-0.59 0.39) rotate(-0.56)"/><polyline class="cls-7" points="50.91 56.57 50.95 60.15 50.95 60.91 50.99 64.49"/><rect class="cls-8" x="49.37" y="58.36" width="3.16" height="4.34" transform="translate(-0.59 0.5) rotate(-0.56)"/><polyline class="cls-5" points="56.15 49.77 56.21 56.55 56.23 57.99 56.29 64.78"/><rect class="cls-5" x="54.64" y="53.16" width="3.16" height="8.23" transform="translate(-0.55 0.55) rotate(-0.56)"/><polyline class="cls-5" points="34.53 56.76 34.58 60.86 34.58 61.73 34.62 65.83"/><rect class="cls-6" x="33" y="58.81" width="3.16" height="4.97" transform="translate(-0.59 0.34) rotate(-0.56)"/><polygon class="cls-9" points="104.1 67.7 101.02 63.69 97.95 59.68 103.64 58.52 109.33 57.36 106.71 62.53 104.1 67.7"/><path class="cls-9" d="M104.11,67.8c-.51-.43-1.13-1-1.79-1.55a24,24,0,0,1-2-2c-.54-.65-1.09-1.28-1.58-2s-.9-1.44-1.3-2.18l-.5-.92.85,0a21.74,21.74,0,0,0,2.91-.3,21.09,21.09,0,0,0,2.81-.73c.93-.3,1.84-.64,2.77-.93s1.87-.51,2.81-.76l2-.51-.88,1.94c-.4.88-.79,1.76-1.24,2.62s-.92,1.7-1.43,2.52A46.42,46.42,0,0,1,104.11,67.8Zm0-.2c.81-2.21,1.15-4,1.79-5.49.36-.9.76-1.78,1.18-2.65s.91-1.71,1.38-2.55l1.09,1.42c-1,.14-1.92.3-2.88.4s-2,.15-2.92.23a22.84,22.84,0,0,0-2.87.44,20,20,0,0,0-2.79.87l.36-1c.61.59,1.21,1.19,1.76,1.83s1,1.34,1.5,2a18.18,18.18,0,0,1,1.11,2C103.16,65.88,103.57,66.7,104.09,67.6Z"/><line class="cls-10" x1="13.74" y1="87.4" x2="31.07" y2="67.33"/><path class="cls-9" d="M13.67,87.33a15.66,15.66,0,0,1,1.65-3,16.71,16.71,0,0,1,2.12-2.54c.82-.76,1.79-1.38,2.56-2.18A14.53,14.53,0,0,0,22,77a26.12,26.12,0,0,1,1.86-2.76,32.72,32.72,0,0,1,2.08-2.59A27.44,27.44,0,0,1,31,67.26l.15.13A27,27,0,0,1,27.54,73c-.69.86-1.48,1.64-2.25,2.43a27.82,27.82,0,0,1-2.47,2.25,14.92,14.92,0,0,0-2.34,2.36c-.67.88-1.15,1.93-1.77,2.84A16.27,16.27,0,0,1,16.5,85.4a15.25,15.25,0,0,1-2.68,2.06Z"/><line class="cls-10" x1="41.9" y1="78.5" x2="31.07" y2="67.33"/><path class="cls-9" d="M41.83,78.57A5.9,5.9,0,0,1,40,77.64a5.45,5.45,0,0,1-1.4-1.35,17.64,17.64,0,0,0-1-1.76,5.27,5.27,0,0,0-1.52-1.24,9.48,9.48,0,0,1-1.64-1.12A11.91,11.91,0,0,1,33,70.86a10.1,10.1,0,0,1-2-3.47l.15-.13a10.06,10.06,0,0,1,3.4,2.12,11.26,11.26,0,0,1,1.27,1.48,9.52,9.52,0,0,1,1.07,1.67,4.94,4.94,0,0,0,1.19,1.55,17.45,17.45,0,0,0,1.72,1,5.67,5.67,0,0,1,1.32,1.44A6.06,6.06,0,0,1,42,78.43Z"/><line class="cls-10" x1="59.82" y1="70.23" x2="41.9" y2="78.5"/><path class="cls-9" d="M59.86,70.32a9.14,9.14,0,0,1-2,1.65,9.31,9.31,0,0,1-2.22,1.08c-.8.23-1.68.28-2.45.57a8.13,8.13,0,0,0-2.15,1.24A14.68,14.68,0,0,1,49,76.25a19.06,19.06,0,0,1-2.19,1.15,15.94,15.94,0,0,1-4.89,1.19l-.08-.18a15.7,15.7,0,0,1,4.07-3,20.8,20.8,0,0,1,2.3-.92,13.5,13.5,0,0,1,2.4-.67A8.46,8.46,0,0,0,53,73c.72-.4,1.33-1,2-1.5a10,10,0,0,1,4.79-1.4Z"/><line class="cls-10" x1="69.34" y1="83.03" x2="59.82" y2="70.23"/><path class="cls-9" d="M69.26,83.09a6.24,6.24,0,0,1-1.73-1.19,6.06,6.06,0,0,1-1.24-1.57,20.09,20.09,0,0,0-.78-1.91A5.27,5.27,0,0,0,64.14,77a10.43,10.43,0,0,1-1.51-1.37,13.29,13.29,0,0,1-1.29-1.52,10.88,10.88,0,0,1-1.6-3.78l.16-.12a10.6,10.6,0,0,1,3.16,2.62,13.42,13.42,0,0,1,1.09,1.68A9.94,9.94,0,0,1,65,76.3,5.48,5.48,0,0,0,66,78a20,20,0,0,0,1.6,1.29A5.91,5.91,0,0,1,68.78,81a6.26,6.26,0,0,1,.64,2Z"/><line class="cls-10" x1="99.77" y1="63.85" x2="69.34" y2="83.03"/><path class="cls-9" d="M99.82,63.93a27.54,27.54,0,0,1-3.44,3,30,30,0,0,1-3.77,2.45c-1.34.69-2.78,1.21-4.08,2a26.48,26.48,0,0,0-3.68,2.58c-1.17,1-2.35,1.89-3.59,2.74s-2.46,1.72-3.74,2.5a50.93,50.93,0,0,1-8.12,4L69.29,83a49.22,49.22,0,0,1,7.09-5.61c1.26-.82,2.56-1.57,3.87-2.3s2.64-1.43,4-2.06a27.51,27.51,0,0,0,3.93-2.21c1.23-.85,2.33-1.93,3.53-2.83a28.9,28.9,0,0,1,3.83-2.35,27.29,27.29,0,0,1,4.17-1.83Z"/><text class="cls-11" transform="matrix(1, -0.01, 0.01, 1, 9.34, 85.12)">Under<tspan class="cls-6" x="66.46" y="0">Visa</tspan></text><text class="cls-12" transform="translate(79.64 64.96) rotate(-0.56) scale(0.68 1)">Master Traders</text><text class="cls-13" transform="translate(116.37 69.86)">TM</text></svg>