<svg id="Capa_1" data-name="Capa 1" xmlns="http://www.w3.org/2000/svg" viewBox="0 0 40 40"><defs><style>.cls-1{fill:#5e3c16;}.cls-2{fill:#472e11;}.cls-3{fill:#df871e;}</style></defs><title>ai</title><circle class="cls-1" cx="19.02" cy="19.81" r="17.85"/><path class="cls-2" d="M36.82,18.41,29.6,11.19H26.3v3L28,15.92H26.3v2.76l-7.49-7.49H15.14L8.45,28.36,17.7,37.6c.43,0,.88,0,1.32,0A17.85,17.85,0,0,0,36.87,19.81C36.87,19.34,36.85,18.87,36.82,18.41Z"/><path class="cls-3" d="M25.69,28.36H21.91l-1.49-3.9H13.55l-1.42,3.9H8.45l6.69-17.17h3.67ZM19.3,21.57l-2.36-6.38-2.32,6.38Z"/><path class="cls-3" d="M26.3,14.23v-3h3.3v3Zm0,14.13V15.92h3.3V28.36Z"/></svg>