<svg xmlns="http://www.w3.org/2000/svg" viewBox="0 0 40 40"><defs><style>.cls-1{isolation:isolate;}.cls-2,.cls-3{fill:#d9eeff;}.cls-2{opacity:0.2;}.cls-15,.cls-16,.cls-20,.cls-4{fill:none;stroke-linecap:round;}.cls-4{stroke:#fff;}.cls-12,.cls-15,.cls-16,.cls-20,.cls-4{stroke-miterlimit:10;}.cls-14,.cls-5,.cls-8{fill:#abd5fd;}.cls-6{fill:#c1e4ff;}.cls-7{fill:#4c9fff;}.cls-8{opacity:0.3;}.cls-9{fill:#2460da;}.cls-10{fill:#27debf;}.cls-11{fill:#ffdb4c;}.cls-12,.cls-19{fill:#fff;}.cls-12{stroke:#d9eeff;}.cls-13{fill:#ffc000;}.cls-14{opacity:0.5;mix-blend-mode:multiply;}.cls-15{stroke:#abd5fd;stroke-width:1.2px;}.cls-16,.cls-20{stroke:#c1e4ff;stroke-width:1.5px;}.cls-17{fill:#f28f8f;}.cls-18{fill:#1bbc9d;}.cls-20{stroke-dasharray:6 5;}.cls-21{fill:#ffa8a7;}.cls-22{fill:#6f89d1;}.cls-23{fill:#002176;}.cls-24{fill:#2343ba;}</style></defs><title>EMarketing</title><g class="cls-1"><g id="Capa_1" data-name="Capa 1"><path class="cls-2" d="M5.93,30.41c7.48,3.91,19.61,3.91,27.1,0s7.48-10.24,0-14.15-19.62-3.91-27.1,0S-1.55,26.5,5.93,30.41Z"/><path class="cls-3" d="M5.07,26.53c-.05,0-.87.26-1.17-.14s.2-1-.08-1.26-1.09,0-1.28-.49.38-.69.06-1.18c-.2-.31-.77-.48-.74-.76s.81-.53,1.48-.08a1.07,1.07,0,0,0,1.2.05c.21,0,.68,0,.66.78S5.07,26.53,5.07,26.53Z"/><path class="cls-4" d="M2.34,22.55a4.37,4.37,0,0,1,2.78,2.87"/><path class="cls-4" d="M3.17,24.23A1.84,1.84,0,0,1,4.43,24"/><path class="cls-3" d="M4.69,17.28a.55.55,0,0,1,.23-.4L16.79,10a.49.49,0,0,1,.47,0l.26.15a.49.49,0,0,1,.23.4v9.1a.49.49,0,0,1-.23.4L5.65,26.94a.53.53,0,0,1-.46,0l-.27-.15a.56.56,0,0,1-.23-.41Z"/><path class="cls-5" d="M5.78,17.65l-1-.59a.47.47,0,0,0-.07.22v9.1a.56.56,0,0,0,.23.41l.27.15a.53.53,0,0,0,.46,0l.13-.08Z"/><path class="cls-6" d="M17.75,10.58v9.1a.44.44,0,0,1-.07.24.5.5,0,0,1-.14.15h0L5.65,26.94h0a.14.14,0,0,1-.23-.14V17.7a.2.2,0,0,1,.26-.2l5,1.18.65.16a.44.44,0,0,0,.42-.16l.76-1.05,5.1-7.1C17.68,10.41,17.75,10.43,17.75,10.58Z"/><path class="cls-5" d="M17.52,20.08h0a.5.5,0,0,0,.14-.15.55.55,0,0,0,.07-.23L12.5,17.63,16,21Z"/><path class="cls-5" d="M5.42,26.8a.14.14,0,0,0,.23.14h0l4.09-2.36.93-5.9-5.25,8Z"/><path class="cls-6" d="M17.68,19.92a.5.5,0,0,1-.14.15h0L5.65,26.94h0a.16.16,0,0,1-.16,0l5.68-9.07a.89.89,0,0,1,1.12-.34Z"/><path class="cls-5" d="M5.42,17.44l5.46,2.41A.9.9,0,0,0,12,19.5l5.73-9.17Z"/><path class="cls-6" d="M5.42,17.44l5.5,2A.89.89,0,0,0,12,19.14l5.75-8.81Z"/><path class="cls-7" d="M6.72,18.4A.52.52,0,0,1,7,18l11.87-6.85a.55.55,0,0,1,.47,0l.26.15a.49.49,0,0,1,.23.4v9.1a.49.49,0,0,1-.23.4L7.68,28.06a.55.55,0,0,1-.47,0L7,27.91a.53.53,0,0,1-.23-.41Z"/><path class="cls-8" d="M6.72,18.4A.52.52,0,0,1,7,18l11.87-6.85a.55.55,0,0,1,.47,0l.26.15a.49.49,0,0,1,.23.4v9.1a.49.49,0,0,1-.23.4L7.68,28.06a.55.55,0,0,1-.47,0L7,27.91a.53.53,0,0,1-.23-.41Z"/><path class="cls-9" d="M7.81,18.77l-1-.59a.47.47,0,0,0-.07.22v9.1a.53.53,0,0,0,.23.41l.26.15a.55.55,0,0,0,.47,0L7.81,28Z"/><path class="cls-7" d="M19.78,11.7v9.1a.55.55,0,0,1-.07.24.5.5,0,0,1-.14.15h0L7.68,28.06h0a.19.19,0,0,1-.16,0,.17.17,0,0,1-.07-.16v-9.1a.2.2,0,0,1,.26-.2l5,1.18.65.16a.45.45,0,0,0,.42-.16l.76-1.05,5.09-7.1C19.71,11.53,19.78,11.55,19.78,11.7Z"/><path class="cls-9" d="M19.55,21.2h0a.5.5,0,0,0,.14-.15.55.55,0,0,0,.07-.23l-5.25-2.06L18,22.07Z"/><path class="cls-9" d="M7.45,27.92a.17.17,0,0,0,.07.16.19.19,0,0,0,.16,0h0l4.08-2.36.94-5.9-5.25,8Z"/><path class="cls-7" d="M19.71,21a.5.5,0,0,1-.14.15h0L7.68,28.06h0a.19.19,0,0,1-.16,0L13.2,19a.89.89,0,0,1,1.12-.34Z"/><path class="cls-9" d="M7.45,18.56,12.91,21A.88.88,0,0,0,14,20.62l5.74-9.17Z"/><path class="cls-7" d="M7.45,18.56l5.49,2.05A.89.89,0,0,0,14,20.26l5.76-8.81Z"/><path class="cls-10" d="M28.42,19a.86.86,0,0,0,1-.74.78.78,0,0,1,.73-.84c.44-.09.57-.25.62-.53s-.28-.61-.19-1,.41-.42.72-.89c.2-.31-.21-.77-.89-.57s-.62.63-1.3.69a1.09,1.09,0,0,0-1.12,1C28,16.56,28.42,19,28.42,19Z"/><path class="cls-4" d="M30.82,14.59a5.65,5.65,0,0,0-2.53,3.23"/><path class="cls-11" d="M15.43,25.63v-9.1a1,1,0,0,1,.15-.49l5.66-7.88a.92.92,0,0,1,.94-.35L27.5,9.08a2.08,2.08,0,0,1,.49.19l.27.15a.56.56,0,0,1,.23.41v9.1a.55.55,0,0,1-.23.4L16.38,26.18a.53.53,0,0,1-.46,0L15.66,26A.49.49,0,0,1,15.43,25.63Z"/><path class="cls-12" d="M16.52,12.13V23.74c0,.15.1.21.23.14l11.14-6.44a.49.49,0,0,0,.23-.4V5.43c0-.15-.1-.21-.23-.14L16.75,11.73A.49.49,0,0,0,16.52,12.13Z"/><path class="cls-13" d="M16.27,16.75l-.8-.46a.71.71,0,0,0,0,.24v9.1a.49.49,0,0,0,.23.4l.26.15a.53.53,0,0,0,.46,0l.12-.06Z"/><path class="cls-11" d="M28.49,9.83v9.1a.49.49,0,0,1-.21.38h0L16.38,26.18h0a.14.14,0,0,1-.15,0,.15.15,0,0,1-.08-.15V17a.21.21,0,0,1,.26-.21l5,1.19.65.15a.43.43,0,0,0,.42-.15l.75-1.06,5.1-7.09C28.42,9.66,28.49,9.68,28.49,9.83Z"/><path class="cls-13" d="M28.26,19.33h0a.49.49,0,0,0,.21-.38l-5.26-2.06,3.52,3.33Z"/><path class="cls-13" d="M16.15,26.05a.15.15,0,0,0,.08.15.14.14,0,0,0,.15,0h0l4.09-2.36.94-5.89-5.26,8Z"/><path class="cls-11" d="M28.42,19.16a.51.51,0,0,1-.14.15h0L16.38,26.18h0a.14.14,0,0,1-.15,0l5.68-9.08A.9.9,0,0,1,23,16.78Z"/><path class="cls-5" d="M21.42,14.81a.66.66,0,0,1-.57-.2,1,1,0,0,1-.2-.7,2.52,2.52,0,0,1,.21-1,3,3,0,0,1,.62-.9,4.26,4.26,0,0,1,.93-.72,2.19,2.19,0,0,1,.86-.32.6.6,0,0,1,.54.18,1,1,0,0,1,.18.66,1.62,1.62,0,0,1-.2.83,1.37,1.37,0,0,1-.53.56.41.41,0,0,1-.26.07.18.18,0,0,1-.14-.14,1.75,1.75,0,0,1-.28.39,1.82,1.82,0,0,1-.38.29.74.74,0,0,1-.58.14c-.15,0-.22-.2-.22-.44a1.5,1.5,0,0,1,.27-.85A2.15,2.15,0,0,1,22.4,12a1.25,1.25,0,0,1,.39-.15.66.66,0,0,1,.31,0v.94c0,.08,0,.13,0,.14s.07,0,.13,0a.6.6,0,0,0,.24-.31,1.52,1.52,0,0,0,.08-.55.74.74,0,0,0-.15-.51.49.49,0,0,0-.42-.13,1.66,1.66,0,0,0-.61.23,2.92,2.92,0,0,0-1,.9,2,2,0,0,0-.36,1.18.85.85,0,0,0,.15.56.49.49,0,0,0,.44.15,1.63,1.63,0,0,0,.63-.23,2.26,2.26,0,0,0,.37-.26,1.61,1.61,0,0,0,.29-.3l0,0h0l.09.18v0s0,0,0,.06a2.88,2.88,0,0,1-.35.35,3.19,3.19,0,0,1-.44.31A2.33,2.33,0,0,1,21.42,14.81Zm1.17-1.68a.66.66,0,0,0,.14-.36v-.55a.79.79,0,0,0-.36.13,1.13,1.13,0,0,0-.42.39.88.88,0,0,0-.16.51c0,.15,0,.24.11.27a.54.54,0,0,0,.36-.1A1.28,1.28,0,0,0,22.59,13.13Z"/><path class="cls-5" d="M33.23,16.62v-.14h0a.51.51,0,0,0-.23-.23,1.4,1.4,0,0,0-1.29,0,.51.51,0,0,0-.23.23h0v.13a.45.45,0,0,0,.27.38A1.4,1.4,0,0,0,33,17,.44.44,0,0,0,33.23,16.62Z"/><ellipse class="cls-6" cx="32.32" cy="16.48" rx="0.91" ry="0.53"/><path class="cls-5" d="M32.09,12.1v4.31s0,.07.07.1a.38.38,0,0,0,.33,0s.07-.06.07-.1V12.1Z"/><path class="cls-3" d="M33.37,8.86a.58.58,0,0,0-.59,0h0l-2.89,1.67,1.45,2.91,2.9-1.68V10.44A2,2,0,0,0,33.37,8.86Z"/><path class="cls-5" d="M31.34,12.12v1.27l-1.74-1V11.11c0-.59.39-.84.87-.57a1.84,1.84,0,0,1,.73.92A1.74,1.74,0,0,1,31.34,12.12Z"/><path class="cls-14" d="M31.34,12.12v1.27l-1.74-1,1.6-.93A1.74,1.74,0,0,1,31.34,12.12Z"/><path class="cls-6" d="M31.05,12.55a3,3,0,0,0-1.16-1.34c-.48-.27-.74-.12-.58.34l.29.84,1.74,1Z"/><path class="cls-5" d="M32.25,12.16l-.1-.05h0a.12.12,0,0,0-.13,0,.42.42,0,0,0-.19.32.14.14,0,0,0,.06.12h0l.09,0,0,0,0,0a.42.42,0,0,0,.18-.32V12.2Z"/><path class="cls-6" d="M32.11,12.18a.39.39,0,0,0-.18.32c0,.11.08.16.18.1a.39.39,0,0,0,.19-.32C32.3,12.16,32.22,12.12,32.11,12.18Z"/><line class="cls-15" x1="32.11" y1="12.39" x2="32.11" y2="10.54"/><polygon class="cls-6" points="32.16 10.59 32.16 11.07 32.68 10.54 32.16 10.59"/><polygon class="cls-11" points="5.36 10.55 10.07 9.09 6.44 11.6 5.36 10.55"/><polygon class="cls-11" points="10.07 9.09 4.99 9.93 3.9 8.88 10.07 9.09"/><polygon class="cls-13" points="4.99 9.93 4.99 11.18 5.36 10.55 10.07 9.09 4.99 9.93"/><polygon class="cls-11" points="4.99 11.18 5.72 10.9 5.36 10.55 4.99 11.18"/><polygon class="cls-13" points="5.36 10.55 5.72 10.9 5.6 10.95 5.36 10.55"/><path class="cls-16" d="M4.45,10.8a4.8,4.8,0,0,0-2.15,2"/><path class="cls-16" d="M2,16.32a3.59,3.59,0,0,0,2,2.17"/><path class="cls-17" d="M9.06,16l-.87-.5h0A1.16,1.16,0,0,0,7,15.58a3.66,3.66,0,0,0-1.65,2.86,1.17,1.17,0,0,0,.48,1.07h0l.81.46.15-.24a1.78,1.78,0,0,0,.47-.19,3.63,3.63,0,0,0,1.65-2.86,1.86,1.86,0,0,0,0-.42Z"/><path class="cls-18" d="M9.06,16l-.87-.5h0A1.16,1.16,0,0,0,7,15.58a3.66,3.66,0,0,0-1.65,2.86,1.17,1.17,0,0,0,.48,1.07h0l.81.46.15-.24a1.78,1.78,0,0,0,.47-.19,3.63,3.63,0,0,0,1.65-2.86,1.86,1.86,0,0,0,0-.42Z"/><path class="cls-10" d="M7.86,16.06a3.66,3.66,0,0,0-1.65,2.86c0,1,.74,1.48,1.65.95A3.61,3.61,0,0,0,9.51,17C9.51,16,8.78,15.54,7.86,16.06Z"/><path class="cls-19" d="M7.22,19.17s0,0,0,0,0,0,0,0l.08-.19,0-.05h0a1.12,1.12,0,0,0,.22-.05,1.5,1.5,0,0,0,.27-.12,1.12,1.12,0,0,0,.34-.29.53.53,0,0,0,.11-.31q0-.3-.36-.09l-.24.14s-.07,0-.08,0,0,0,0-.06V18a.11.11,0,0,1,0-.08s0-.05.08-.07l.23-.14a.59.59,0,0,0,.23-.21.49.49,0,0,0,.08-.25c0-.19-.13-.21-.4-.06a1.73,1.73,0,0,0-.44.36l0,0s0,0,0,0l-.08-.08s0,0,0,0a.09.09,0,0,1,0-.05,1.27,1.27,0,0,1,.26-.26,2.68,2.68,0,0,1,.37-.26,1.24,1.24,0,0,1,.38-.15.3.3,0,0,1,.24,0,.3.3,0,0,1,.09.24.79.79,0,0,1-.06.29,1.26,1.26,0,0,1-.19.28.24.24,0,0,1,.23,0,.32.32,0,0,1,.08.23,1,1,0,0,1-.2.55,1.81,1.81,0,0,1-.56.49A1.36,1.36,0,0,1,7.22,19.17Z"/><polygon class="cls-11" points="34.55 15.31 38.33 12.89 39.99 13.43 34.55 15.31"/><polygon class="cls-11" points="34.55 15.31 37.81 12.59 37.09 11.75 34.55 15.31"/><polygon class="cls-13" points="37.81 12.59 37.81 13.22 34.55 15.31 37.81 12.59"/><path class="cls-20" d="M29.29,7.22a8,8,0,0,1,7.82-.07c2.43,1.38,2.72,3.94,1.25,5.31"/><path class="cls-5" d="M23.18,26.28c-1.76,1-1.76,2.66,0,3.68a7,7,0,0,0,6.37,0c1.76-1,1.76-2.66,0-3.68A7.07,7.07,0,0,0,23.18,26.28Z"/><path class="cls-21" d="M26.93,28.6h0l0,0,0,0,0,0,0,0a.46.46,0,0,0,.07-.07l.32.24.21.16h0a1.72,1.72,0,0,0-.19.28s-.06.11-.27.06S26.89,28.68,26.93,28.6Z"/><path class="cls-7" d="M23.82,28.49c-.25-.28,0-.75.21-1.36s.66-1.8.66-1.8l2.84-.59s3-.06,3.31.52-1.77,1.16-2.06,1.19L27,26.54l-.19.09-1.23,1.56Z"/><path class="cls-7" d="M29.05,25.73a7.73,7.73,0,0,0-.61.71c-.52.72-1.33,2-1.33,2a.55.55,0,0,0,.52.39s2.66-2.49,2.88-2.72.59-.92,0-1A2.22,2.22,0,0,0,29.05,25.73Z"/><path class="cls-22" d="M28.42,26.46a4,4,0,0,1,1-1s-.49.1-1.23,1Z"/><path class="cls-21" d="M28.74,27.34l-.18,0,.17.64L29,28a.81.81,0,0,0,.24-.09l-.05-.39L29,27.3Z"/><path class="cls-23" d="M30.22,27.49a.7.7,0,0,1,.39.4,2.47,2.47,0,0,1,.1.29c0,.1,0,.28-.12.31a.25.25,0,0,1-.12,0c-.27-.11-.52-.22-.79-.31A2.8,2.8,0,0,0,29,28a.5.5,0,0,0,0-.57.39.39,0,0,0-.2-.09l.2-.11a.63.63,0,0,1,.42-.1,1.08,1.08,0,0,1,.29.18A2.11,2.11,0,0,0,30.22,27.49Z"/><path class="cls-7" d="M24.2,27.88a7.08,7.08,0,0,1,1.72-.2c1.13-.05,2.64-.3,2.64-.3a.73.73,0,0,1,.17.64s-2,.62-2.62.71a4.82,4.82,0,0,1-1.84,0C23.75,28.64,23.42,28.12,24.2,27.88Z"/><polygon class="cls-17" points="28.27 22.58 29.1 24.57 28.5 24.94 27.35 23 28.27 22.58"/><path class="cls-18" d="M26.54,20.69a1.29,1.29,0,0,1,1.13.53c.17.36.72,1.48.72,1.48a1.32,1.32,0,0,1-1.05.55Z"/><path class="cls-21" d="M23.5,23.8a7.81,7.81,0,0,1,.23-.87l.87.3-.23.74-.74.7A1.12,1.12,0,0,1,23.5,23.8Z"/><path class="cls-10" d="M25.6,20.72c-.55.13-1.29.3-1.5.89s-.53,1.64-.53,1.64a1.11,1.11,0,0,0,1,.26l.11-.36v2.18c.42.46,2.52.34,2.84-.59v-3a1,1,0,0,0-1-1.09Z"/><polygon class="cls-18" points="24.68 23.15 24.96 22.29 24.68 23.54 24.68 23.15"/><path class="cls-23" d="M25.4,18.3a.31.31,0,0,0-.27.09c-.12.12-.09.34,0,.84l.35,0Z"/><path class="cls-23" d="M27.47,18.16a.51.51,0,0,0,.22-.05c.11-.06.14.06.08.17a.48.48,0,0,1-.41.27s-.11-.27-.11-.27Z"/><path class="cls-21" d="M25.56,19.27s-.13-.07-.19-.14a.23.23,0,0,0-.38.07c-.11.22.13.53.28.63a.25.25,0,0,0,.29,0l0,.87a.93.93,0,0,0,.7.53c.51.07.41-.35.24-.56v-.31a1.31,1.31,0,0,0,.39,0,1,1,0,0,0,.32-.43,1.89,1.89,0,0,0,.14-1.39,1,1,0,0,0-1.52-.49C25.37,18.4,25.56,19.27,25.56,19.27Z"/><path class="cls-23" d="M25.56,19.36s-.13-.17-.19-.23,0-.83,0-.83a.49.49,0,0,1,.08-.47c.18-.19.53-.16.79-.17a2.25,2.25,0,0,0,.91-.18c.36-.16.39-.18.43,0a.89.89,0,0,1-.15.77l-.12.19a.94.94,0,0,1-.45.13,3.22,3.22,0,0,1-1-.15c-.1,0-.12.09-.17.34S25.65,19.36,25.56,19.36Z"/><path class="cls-23" d="M25.4,18.36l-.32-.17a.17.17,0,0,1,.24-.08A.19.19,0,0,1,25.4,18.36Z"/><path class="cls-17" d="M26.54,20.38a3.51,3.51,0,0,1-.64-.19.54.54,0,0,1-.23-.22.75.75,0,0,0,.13.27c.12.15.74.26.74.26Z"/><path class="cls-23" d="M26.55,19.25a.09.09,0,0,1-.09.1.09.09,0,0,1-.1-.1.09.09,0,0,1,.1-.09A.09.09,0,0,1,26.55,19.25Z"/><path class="cls-23" d="M26.45,18.9l-.2.11a.12.12,0,0,1,.05-.16A.11.11,0,0,1,26.45,18.9Z"/><path class="cls-17" d="M26.49,19.89l.22.08a.12.12,0,1,1-.22-.08Z"/><path class="cls-23" d="M27.4,19l-.19-.14a.11.11,0,0,1,.16,0A.11.11,0,0,1,27.4,19Z"/><path class="cls-23" d="M27.34,19.23a.1.1,0,0,1-.09.1.1.1,0,0,1-.1-.1.09.09,0,0,1,.1-.1A.09.09,0,0,1,27.34,19.23Z"/><polygon class="cls-17" points="26.89 19.21 26.8 19.78 27.12 19.74 26.89 19.21"/><path class="cls-9" d="M30.15,25.63l-1.92-1.12a.11.11,0,0,0-.11,0l-3.38,1.95,2,1.15Z"/><polygon class="cls-24" points="26.7 27.44 25.66 26.84 28.7 25.09 29.74 25.69 26.7 27.44"/><polygon class="cls-23" points="26.19 25.78 26.21 25.79 26.72 26.08 27.63 25.56 27.64 25.55 27.12 25.24 26.19 25.78"/><polygon class="cls-24" points="26.21 25.79 26.72 26.08 27.63 25.56 27.12 25.27 26.21 25.79"/><path class="cls-24" d="M24.74,26.46v.05a.2.2,0,0,0,.09.16l1.8,1,.09,0a.16.16,0,0,0,.09,0l3.25-1.87a.17.17,0,0,0,.09-.16v0l-3.43,2Z"/><path class="cls-23" d="M26.72,27.61v.12a.16.16,0,0,0,.09,0l3.25-1.87a.17.17,0,0,0,.09-.16v0Z"/><path class="cls-24" d="M26.77,27.63a.21.21,0,0,0,.19,0l3.23-1.87a.21.21,0,0,0,.11-.15l.35-2.11s0,0,0,0a.23.23,0,0,0-.07-.15l-3.36,1.94a.12.12,0,0,0-.07.11Z"/><path class="cls-7" d="M26.72,27.61h.05l.39-2.28a.12.12,0,0,1,.07-.11l3.36-1.94,0,0-3.37,1.95a.15.15,0,0,0-.08.11Z"/><path class="cls-9" d="M28.59,25.69a.71.71,0,0,1,.33-.42c.15-.09.26-.05.24.09a.74.74,0,0,1-.33.42C28.68,25.87,28.57,25.83,28.59,25.69Z"/><path class="cls-21" d="M24.37,24a12.13,12.13,0,0,0,.82,2.39,5.12,5.12,0,0,0,.92.36c.22.08.32.19.28.22s-.35.06-.46.1,0,.22.27.4.45.17.42.3-.56.25-1,0-.59-.63-.86-.93a11.9,11.9,0,0,1-1.11-2.12s0-1,.36-1S24.37,24,24.37,24Z"/><path class="cls-9" d="M27.13,28.49a.53.53,0,0,0,.5.36l.77-.73Z"/><path class="cls-23" d="M27.6,28.94h0Z"/><path class="cls-23" d="M27.36,29.77a1.91,1.91,0,0,1,.11-.69h0a.26.26,0,0,1-.26,0,.48.48,0,0,1-.28-.52h0l-.12.1a.58.58,0,0,0-.24.35.84.84,0,0,0,.06.34,2.36,2.36,0,0,1,0,.65.71.71,0,0,0,.23.51,2.31,2.31,0,0,0,.24.2.27.27,0,0,0,.33,0,.24.24,0,0,0,0-.16C27.44,30.31,27.38,30.06,27.36,29.77Z"/><path class="cls-5" d="M27.66,28.8a.84.84,0,0,0-.06.14A.84.84,0,0,1,27.66,28.8Z"/><path class="cls-5" d="M26.93,28.6h0l0,0Z"/></g></g></svg>