<svg id="Capa_1" data-name="Capa 1" xmlns="http://www.w3.org/2000/svg" viewBox="0 0 40 40"><defs><style>.cls-1{fill:#eceff1;}.cls-2{fill:#388e3c;}.cls-3{fill:#2e7d32;}.cls-4{fill:#fafafa;}</style></defs><title>excel</title><path class="cls-1" d="M35.83,30.24H22.13a1,1,0,0,1-1-1V9.69a1,1,0,0,1,1-1h13.7a1,1,0,0,1,1,1V29.26A1,1,0,0,1,35.83,30.24Z"/><path class="cls-2" d="M26.05,14.58H22.13a1,1,0,0,1,0-2h3.92a1,1,0,0,1,0,2Z"/><path class="cls-2" d="M26.05,18.49H22.13a1,1,0,1,1,0-1.95h3.92a1,1,0,1,1,0,1.95Z"/><path class="cls-2" d="M26.05,22.41H22.13a1,1,0,0,1,0-2h3.92a1,1,0,0,1,0,2Z"/><path class="cls-2" d="M26.05,26.33H22.13a1,1,0,0,1,0-2h3.92a1,1,0,0,1,0,2Z"/><path class="cls-2" d="M31.92,14.58H30a1,1,0,0,1,0-2h2a1,1,0,1,1,0,2Z"/><path class="cls-2" d="M31.92,18.49H30a1,1,0,1,1,0-1.95h2a1,1,0,1,1,0,1.95Z"/><path class="cls-2" d="M31.92,22.41H30a1,1,0,0,1,0-2h2a1,1,0,1,1,0,2Z"/><path class="cls-2" d="M31.92,26.33H30a1,1,0,0,1,0-2h2a1,1,0,1,1,0,2Z"/><path class="cls-3" d="M22.76,5A1,1,0,0,0,22,4.81L6.29,7.75a1,1,0,0,0-.8,1V30.24a1,1,0,0,0,.8,1L22,34.14l.18,0a1,1,0,0,0,.63-.23,1,1,0,0,0,.35-.75V5.77A1,1,0,0,0,22.76,5Z"/><path class="cls-4" d="M19,22.74l-3.09-3.53,3.13-4A1,1,0,0,0,17.44,14l-2.9,3.73-2.44-2.8a1,1,0,0,0-1.47,1.29l2.69,3.08-2.73,3.51A1,1,0,0,0,12.14,24l2.49-3.21L17.48,24a1,1,0,0,0,.74.34,1,1,0,0,0,.64-.25A1,1,0,0,0,19,22.74Z"/></svg>