<svg id="Capa_1" data-name="Capa 1" xmlns="http://www.w3.org/2000/svg" viewBox="0 0 40 40"><defs><style>.cls-1{fill:#e7d0a9;}.cls-2{fill:#fff;}.cls-3{fill:#ffe4b8;}.cls-4{fill:#f16723;}.cls-5{fill:#fbd20a;}.cls-6{fill:#4ea33e;}.cls-7{fill:#7fc344;}</style></defs><title>IconoCV</title><path class="cls-1" d="M33,38.5H8.34a1.68,1.68,0,0,1-1.78-1.56V7.45A1.68,1.68,0,0,1,8.34,5.89H33a1.68,1.68,0,0,1,1.78,1.56V36.93A1.68,1.68,0,0,1,33,38.5Z"/><path class="cls-2" d="M9.09,38.5H8.25a1.68,1.68,0,0,1-1.78-1.56V7.45A1.68,1.68,0,0,1,8.25,5.89h.84Z"/><path class="cls-3" d="M30.68,38.5H9.91a1.68,1.68,0,0,1-1.78-1.56V7.45A1.68,1.68,0,0,1,9.91,5.89H30.68a1.67,1.67,0,0,1,1.77,1.56V36.93A1.68,1.68,0,0,1,30.68,38.5Z"/><path class="cls-2" d="M32.06,7.91h-23V36.23h23Z"/><path class="cls-4" d="M37.25,27.39a.86.86,0,1,1,0-1.71.86.86,0,1,1,0,1.71Zm0-1.13a.28.28,0,1,0,.31.28A.3.3,0,0,0,37.25,26.26Z"/><path d="M34.77,2.41a.19.19,0,0,0,.2-.17.2.2,0,0,0-.4,0A.19.19,0,0,0,34.77,2.41Z"/><path d="M39.41,35.83a.18.18,0,1,0-.2-.18A.19.19,0,0,0,39.41,35.83Z"/><path d="M36.81,18.92a.18.18,0,1,0-.2-.17A.19.19,0,0,0,36.81,18.92Z"/><path d="M.81,23a.18.18,0,1,0,0-.35.18.18,0,1,0,0,.35Z"/><path d="M8.13,3.78a.18.18,0,1,0-.2-.17A.19.19,0,0,0,8.13,3.78Z"/><path class="cls-4" d="M4,32.64H3.64v-.29a.31.31,0,0,0-.33-.29.31.31,0,0,0-.33.29v.29H2.65a.29.29,0,1,0,0,.58H3v.29a.31.31,0,0,0,.33.29.31.31,0,0,0,.33-.29v-.29H4a.29.29,0,1,0,0-.58Z"/><path d="M32.46,4a.26.26,0,1,0,0-.52.28.28,0,0,0-.3.26A.28.28,0,0,0,32.46,4Z"/><path d="M3.38,21.48a.26.26,0,1,0-.29-.26A.28.28,0,0,0,3.38,21.48Z"/><path d="M38.35,17.69a.26.26,0,1,0-.29-.26A.27.27,0,0,0,38.35,17.69Z"/><path d="M36.61,30.86a.26.26,0,1,0-.29-.26A.27.27,0,0,0,36.61,30.86Z"/><path class="cls-5" d="M2.88,7.88a1.06,1.06,0,0,1-1.13-1,1.06,1.06,0,0,1,1.13-1A1.06,1.06,0,0,1,4,6.89,1.06,1.06,0,0,1,2.88,7.88Zm0-1.4a.41.41,0,1,0,0,.81.41.41,0,1,0,0-.81Z"/><path d="M6.47,27.9a.54.54,0,0,1-.56-.5V21a.53.53,0,0,1,.56-.5A.53.53,0,0,1,7,21V27.4A.54.54,0,0,1,6.47,27.9Z"/><path d="M32.91,39H8.25a2.21,2.21,0,0,1-2.34-2.06V28.65a.57.57,0,0,1,1.13,0v8.29A1.14,1.14,0,0,0,8.25,38H32.91a1.14,1.14,0,0,0,1.21-1.06V18.44a.57.57,0,0,1,1.14,0v18.5A2.22,2.22,0,0,1,32.91,39Z"/><path d="M34.69,17.68a.54.54,0,0,1-.57-.5V15.79a.57.57,0,0,1,1.14,0v1.39A.54.54,0,0,1,34.69,17.68Z"/><path d="M6.47,20.3a.54.54,0,0,1-.56-.5V7.45A2.21,2.21,0,0,1,8.25,5.39H32.91a2.22,2.22,0,0,1,2.35,2.06v7.07a.57.57,0,0,1-1.14,0V7.45a1.14,1.14,0,0,0-1.21-1.06H8.25A1.14,1.14,0,0,0,7,7.45V19.8A.54.54,0,0,1,6.47,20.3Z"/><path d="M32.06,36.72h-23a.53.53,0,0,1-.56-.49V7.91a.54.54,0,0,1,.56-.5h23a.55.55,0,0,1,.57.5V36.23A.54.54,0,0,1,32.06,36.72Zm-22.4-1H31.49V8.41H9.66Z"/><path d="M28.72,17H12.44a.5.5,0,1,1,0-1H28.72a.5.5,0,1,1,0,1Z"/><path d="M23.45,13.36h-11a.54.54,0,0,1-.56-.5.53.53,0,0,1,.56-.5h11a.54.54,0,0,1,.57.5A.55.55,0,0,1,23.45,13.36Z"/><path d="M28.72,19.24H12.44a.5.5,0,1,1,0-1H28.72a.5.5,0,1,1,0,1Z"/><path d="M28.72,21.49H12.44a.54.54,0,0,1-.56-.5.53.53,0,0,1,.56-.5H28.72a.54.54,0,0,1,.57.5A.55.55,0,0,1,28.72,21.49Z"/><path d="M28.72,23.73H12.44a.5.5,0,1,1,0-1H28.72a.5.5,0,1,1,0,1Z"/><path d="M28.72,26H12.44a.53.53,0,0,1-.56-.5.54.54,0,0,1,.56-.5H28.72a.55.55,0,0,1,.57.5A.54.54,0,0,1,28.72,26Z"/><path d="M28.72,28.21H12.44a.5.5,0,1,1,0-1H28.72a.5.5,0,1,1,0,1Z"/><path d="M28.72,30.46H12.44a.5.5,0,1,1,0-1H28.72a.5.5,0,1,1,0,1Z"/><path d="M23.45,32.71h-11a.54.54,0,0,1-.56-.5.53.53,0,0,1,.56-.5h11a.54.54,0,0,1,.57.5A.55.55,0,0,1,23.45,32.71Z"/><path class="cls-6" d="M25.44,4.14H22.76V3.41A2.06,2.06,0,0,0,20.58,1.5,2.06,2.06,0,0,0,18.4,3.41v.73H15.72a2.91,2.91,0,0,0-3.09,2.71v.66a1.14,1.14,0,0,0,1.21,1.06H27.32a1.14,1.14,0,0,0,1.21-1.06V6.85A2.91,2.91,0,0,0,25.44,4.14Z"/><path class="cls-2" d="M23.48,4.14H21.21V3.41a1.85,1.85,0,1,0-3.69,0v.73H15.24a2.66,2.66,0,0,0-2.61,2.71v.66a1,1,0,0,0,1,1.06H25.07a1,1,0,0,0,1-1.06V6.85A2.67,2.67,0,0,0,23.48,4.14Z"/><path class="cls-7" d="M24,4.11h-1V3.38c0-1-1.45-1.91-2.36-1.91A2.28,2.28,0,0,0,18.4,3.38v.73H16.63a2.55,2.55,0,0,0-2.34,2.71v.67a1,1,0,0,0,.92,1.06H25.39a1,1,0,0,0,.92-1.06V6.82A2.55,2.55,0,0,0,24,4.11Z"/><path d="M27.32,9.07H13.84a1.67,1.67,0,0,1-1.77-1.56V6.85a3.45,3.45,0,0,1,3.65-3.21h2.12V3.41A2.59,2.59,0,0,1,20.58,1a2.59,2.59,0,0,1,2.74,2.41v.23h2.12A3.46,3.46,0,0,1,29.1,6.85v.66A1.68,1.68,0,0,1,27.32,9.07ZM15.72,4.64A2.38,2.38,0,0,0,13.2,6.85v.66a.6.6,0,0,0,.64.57H27.32A.6.6,0,0,0,28,7.51V6.85a2.38,2.38,0,0,0-2.52-2.21H22.76a.54.54,0,0,1-.57-.5V3.41a1.62,1.62,0,0,0-3.22,0v.73a.54.54,0,0,1-.57.5Z"/><path class="cls-2" d="M14.77,7.63a.32.32,0,0,1-.33-.29A2.52,2.52,0,0,1,17.1,5a.32.32,0,0,1,.33.29.31.31,0,0,1-.33.29,1.9,1.9,0,0,0-2,1.76A.32.32,0,0,1,14.77,7.63Z"/><path class="cls-5" d="M16.6,2h-.33V1.66a.34.34,0,0,0-.67,0V2h-.33a.31.31,0,0,0-.33.29.31.31,0,0,0,.33.29h.33v.29a.34.34,0,0,0,.67,0V2.53h.33a.31.31,0,0,0,.33-.29A.31.31,0,0,0,16.6,2Z"/></svg>