<?xml version="1.0" encoding="iso-8859-1"?>
<!-- Generator: Adobe Illustrator 19.0.0, SVG Export Plug-In . SVG Version: 6.00 Build 0)  -->
<svg version="1.1" id="Capa_1" xmlns="http://www.w3.org/2000/svg" xmlns:xlink="http://www.w3.org/1999/xlink" x="0px" y="0px"
	 viewBox="0 0 513.019 513.019" style="enable-background:new 0 0 513.019 513.019;" xml:space="preserve">
<g>
	<path style="fill:none;stroke:#193651;stroke-width:2;stroke-miterlimit:10;" d="M393.31,214.619c-24.8,20.8-53.6,40.8-84.8,59.2
		c-31.2,17.6-61.6,32-91.2,43.2"/>
	<path style="fill:none;stroke:#193651;stroke-width:2;stroke-miterlimit:10;" d="M114.91,144.219c24.8-20.8,53.6-40.8,84.8-59.2
		c31.2-17.6,61.6-32,91.2-43.2"/>
</g>
<g>
	<circle style="fill:#FFFFFF;" cx="32.51" cy="41.819" r="24"/>
	<circle style="fill:#FFFFFF;" cx="480.51" cy="309.819" r="24"/>
	<rect x="178.11" y="381.019" style="fill:#FFFFFF;" width="156.8" height="78.4"/>
	<path style="fill:#FFFFFF;" d="M301.31,459.419h-89.6v20c0,13.6,9.6,25.6,22.4,25.6h44.8c12,0,22.4-11.2,22.4-25.6V459.419z"/>
	<path style="fill:#FFFFFF;" d="M417.31,171.419c0-92.8-76-168-168.8-163.2c-79.2,4-145.6,68.8-152,148.8
		c-3.2,40.8,8,79.2,29.6,109.6c25.6,36.8,44,36,50.4,80.8l2.4,33.6h156.8l0.8-28.8c6.4-47.2,25.6-48,52-87.2
		C406.91,238.619,417.31,206.619,417.31,171.419z"/>
</g>
<g>
	<path style="fill:#193651;" d="M62.91,207.419l-12.8-9.6c-3.2,4.8-7.2,8.8-9.6,12.8l12.8,9.6
		C56.51,215.419,59.71,211.419,62.91,207.419z"/>
	<path style="fill:#193651;" d="M11.71,270.619l16,3.2c0.8-4.8,2.4-9.6,4-14.4l-15.2-4.8C14.11,260.219,13.31,265.819,11.71,270.619
		z"/>
	<path style="fill:#193651;" d="M35.71,313.019l-12,10.4c4,4.8,8.8,8.8,13.6,12l8.8-13.6C41.31,319.419,38.11,316.219,35.71,313.019
		z"/>
	<path style="fill:#193651;" d="M22.91,238.619l14.4,7.2c2.4-4,4.8-8.8,7.2-13.6l-13.6-8C28.51,229.019,25.31,233.819,22.91,238.619
		z"/>
	<path style="fill:#193651;" d="M26.91,288.219l-16,0.8c0,6.4,1.6,12.8,3.2,18.4l15.2-5.6
		C27.71,297.019,26.91,293.019,26.91,288.219z"/>
	<path style="fill:#193651;" d="M118.11,333.019l1.6,16c5.6-0.8,10.4-0.8,16-1.6l-2.4-16
		C128.51,331.419,122.91,332.219,118.11,333.019z"/>
	<path style="fill:#193651;" d="M98.91,333.819c-4,0-8,0-12,0l-0.8,16c4,0,8.8,0,12.8,0.8c1.6,0,2.4,0,4,0v-16
		C101.31,333.819,100.51,333.819,98.91,333.819z"/>
	<path style="fill:#193651;" d="M53.31,342.619c4.8,1.6,10.4,3.2,16.8,4.8l3.2-16c-4.8-0.8-9.6-2.4-14.4-4L53.31,342.619z"/>
	<path style="fill:#193651;" d="M495.71,87.419l-16-3.2c-0.8,4.8-2.4,9.6-4,14.4l15.2,5.6
		C493.31,98.619,494.91,93.019,495.71,87.419z"/>
	<path style="fill:#193651;" d="M445.31,151.419l12.8,9.6c3.2-4.8,7.2-8.8,9.6-12.8l-12.8-9.6
		C451.71,143.419,448.51,147.419,445.31,151.419z"/>
	<path style="fill:#193651;" d="M481.31,70.619l16-0.8c0-6.4-1.6-12.8-3.2-18.4l-15.2,5.6
		C480.51,61.819,481.31,65.819,481.31,70.619z"/>
	<path style="fill:#193651;" d="M484.51,120.219l-14.4-7.2c-2.4,4-4.8,8.8-7.2,13.6l13.6,8
		C479.71,129.819,482.11,125.019,484.51,120.219z"/>
	<path style="fill:#193651;" d="M472.51,45.819l12-10.4c-4-4.8-8.8-8.8-13.6-12l-8.8,13.6
		C466.11,39.419,469.31,42.619,472.51,45.819z"/>
	<path style="fill:#193651;" d="M389.31,25.819l-1.6-16c-5.6,0.8-10.4,0.8-16,1.6l2.4,16C378.91,26.619,384.51,26.619,389.31,25.819
		z"/>
	<path style="fill:#193651;" d="M408.51,25.019c4,0,8,0,12,0l0.8-16c-4,0-8-0.8-12.8-0.8c-1.6,0-2.4,0-4,0v16
		C406.11,25.019,406.91,25.019,408.51,25.019z"/>
	<path style="fill:#193651;" d="M454.91,16.219c-4.8-1.6-10.4-3.2-16.8-4.8l-3.2,16c4.8,0.8,9.6,2.4,14.4,4L454.91,16.219z"/>
	<path style="fill:#193651;" d="M497.31,282.619c-0.8-24-13.6-51.2-36.8-81.6c-10.4-12.8-22.4-25.6-35.2-38.4
		c-3.2-53.6-30.4-101.6-71.2-130.4c7.2-1.6,13.6-3.2,20-4l-2.4-16c-12,1.6-24,4.8-36.8,8c-26.4-14.4-56-21.6-87.2-20
		c-25.6,1.6-49.6,8.8-71.2,20c-28-7.2-54.4-12-77.6-12c-18.4,0-33.6,2.4-46.4,8c-5.6-4-12-6.4-20-6.4c-17.6,0-32,14.4-32,32
		c0,9.6,4,17.6,10.4,24c-2.4,25.6,9.6,56.8,36,92c12,16,27.2,31.2,44,46.4c4.8,24,14.4,47.2,28,67.2c8.8,12.8,16.8,21.6,24,28.8
		c8,8.8,14.4,15.2,19.2,25.6c-9.6,2.4-19.2,4-28.8,5.6l2.4,16c9.6-1.6,20-4,30.4-6.4c0.8,2.4,0.8,4.8,1.6,7.2l1.6,24.8h-19.2v16h20
		v23.2h-20v16h20v23.2h-20v16h20h33.6v12c0,18.4,13.6,33.6,30.4,33.6h44.8c16.8,0,30.4-15.2,30.4-33.6v-12h33.6h20v-16h-20v-23.2h20
		v-16h-20v-23.2h20v-16h-19.2l0.8-19.2c0.8-4,1.6-8,2.4-11.2c22.4,4.8,43.2,8,62.4,8c23.2,0,41.6-4,56-12c4.8,2.4,9.6,4,15.2,4
		c17.6,0,32-14.4,32-32C512.51,298.619,506.11,288.219,497.31,282.619z M16.51,41.819c0-8.8,7.2-16,16-16s16,7.2,16,16
		s-7.2,16-16,16S16.51,50.619,16.51,41.819z M88.51,157.019c-0.8,7.2-0.8,15.2,0,22.4c-10.4-10.4-20-20.8-28-32
		c-21.6-28-32.8-53.6-32.8-74.4c1.6,0,4,0.8,5.6,0.8c17.6,0,32-14.4,32-32c0-4-0.8-8-2.4-12c12-4,24.8-4.8,36.8-4.8
		c17.6,0,37.6,2.4,59.2,7.2C118.91,61.019,92.51,105.819,88.51,157.019z M293.31,478.619c0,9.6-6.4,17.6-14.4,17.6h-44.8
		c-8,0-14.4-8-14.4-17.6v-12h73.6V478.619z M326.91,451.419h-140.8v-23.2h140.8L326.91,451.419L326.91,451.419z M326.91,412.219
		h-140.8v-23.2h140.8L326.91,412.219L326.91,412.219z M328.51,351.419l-1.6,20.8h-141.6l-1.6-26.4c-4-32-15.2-43.2-28.8-57.6
		c-6.4-7.2-14.4-14.4-22.4-26.4c-20.8-29.6-31.2-67.2-28-104c6.4-76.8,68-137.6,144-141.6c88-4.8,160.8,67.2,160.8,155.2
		c0,32-9.6,62.4-27.2,88.8c-8.8,12-16,20.8-23.2,28C344.51,305.019,333.31,317.019,328.51,351.419z M452.51,325.819
		c-13.6,5.6-29.6,8-44,8c-17.6,0-36.8-2.4-57.6-7.2c4.8-10.4,11.2-17.6,19.2-27.2c7.2-8,15.2-16.8,24-29.6
		c17.6-25.6,27.2-54.4,29.6-84.8c8.8,8.8,16,17.6,23.2,26.4c19.2,24.8,30.4,48,32.8,67.2l0,0c-17.6,0-32,14.4-32,32
		C448.51,316.219,450.11,321.019,452.51,325.819z M480.51,326.619c-8.8,0-16-7.2-16-16s7.2-16,16-16s16,7.2,16,16
		C496.51,319.419,489.31,326.619,480.51,326.619z"/>
</g>
<path style="fill:#F16051;" d="M346.91,149.019l20.8-12.8l-12-29.6l-24,5.6c-6.4-8.8-13.6-16.8-23.2-23.2l5.6-24l-29.6-12l-12,21.6
	c-11.2-1.6-21.6-1.6-32.8,0l-12.8-20.8l-29.6,12l5.6,24c-8.8,6.4-16.8,13.6-23.2,23.2l-24-5.6l-10.4,28.8l20.8,12.8
	c-1.6,11.2-1.6,21.6,0,32.8l-20.8,12.8l12,29.6l24-5.6c6.4,8.8,13.6,16.8,23.2,23.2l-5.6,24l29.6,12l12.8-20.8
	c11.2,1.6,21.6,1.6,32.8,0l12.8,20.8l29.6-12l-5.6-24c8.8-6.4,16.8-13.6,23.2-23.2l24,5.6l12-29.6l-20.8-12.8
	C349.31,170.619,349.31,159.419,346.91,149.019z"/>
<circle style="fill:#FFFFFF;" cx="256.51" cy="165.019" r="47.2"/>
<path style="fill:#193651;" d="M307.71,144.219c-5.6-13.6-16-24-30.4-30.4c-6.4-3.2-13.6-4-21.6-4c-22.4,0-42.4,13.6-51.2,34.4
	c-5.6,13.6-5.6,28.8,0,42.4c5.6,13.6,16,24,30.4,30.4c6.4,3.2,13.6,4,21.6,4c22.4,0,42.4-13.6,51.2-34.4
	C313.31,173.019,313.31,157.819,307.71,144.219z M293.31,180.219c-6.4,15.2-20.8,24.8-36.8,24.8c-4.8,0-10.4-0.8-15.2-3.2
	c-9.6-4-17.6-12-21.6-21.6s-4-20.8,0-30.4c6.4-15.2,20.8-24.8,36.8-24.8c4.8,0,10.4,0.8,15.2,3.2c9.6,4,17.6,12,21.6,21.6
	C297.31,159.419,297.31,170.619,293.31,180.219z"/>
<g>
</g>
<g>
</g>
<g>
</g>
<g>
</g>
<g>
</g>
<g>
</g>
<g>
</g>
<g>
</g>
<g>
</g>
<g>
</g>
<g>
</g>
<g>
</g>
<g>
</g>
<g>
</g>
<g>
</g>
</svg>
