<svg id="Capa_1" data-name="Capa 1" xmlns="http://www.w3.org/2000/svg" viewBox="0 0 40 40"><defs><style>.cls-1{fill:#ffd9f3;}.cls-2{fill:#ff8cda;}.cls-3{fill:#ff3fc2;}</style></defs><title>XD</title><path class="cls-1" d="M28.1,4.43H11.69A2.63,2.63,0,0,0,9.06,7.06v.65H5.12a2.63,2.63,0,0,0-2.63,2.63v3.28a2.63,2.63,0,0,0,2.63,2.63H9.06V32a2.63,2.63,0,0,0,2.63,2.63h3.94a2.62,2.62,0,0,0,2.62,2.62h7.88a2.62,2.62,0,0,0,2.63-2.62H32.7A2.63,2.63,0,0,0,35.33,32V11L28.76,4.43Zm-3.28,5.91a2.63,2.63,0,0,0-2.63-2.63A2.63,2.63,0,0,1,24.82,10.34Zm0,3.28a2.63,2.63,0,0,1-2.63,2.63A2.63,2.63,0,0,0,24.82,13.62Z"/><path class="cls-2" d="M28.76,4.43H28.1V9a2.62,2.62,0,0,0,2.63,2.62h4.6V11Z"/><path class="cls-3" d="M24.82,10.34v3.28a2.63,2.63,0,0,1-2.63,2.63H5.12a2.63,2.63,0,0,1-2.63-2.63V10.34A2.63,2.63,0,0,1,5.12,7.71H22.19A2.63,2.63,0,0,1,24.82,10.34Z"/><path class="cls-3" d="M26.13,37.26H18.25a2.62,2.62,0,0,1-2.62-2.62V28.07a2.62,2.62,0,0,1,2.62-2.63h7.88a2.63,2.63,0,0,1,2.63,2.63v6.57A2.62,2.62,0,0,1,26.13,37.26Z"/><path d="M7.78,14.21l.33-.79c.09-.24.19-.47.28-.74h0c.11.27.2.5.31.74l.36.79H10.4L9.2,12l1.13-2.21H9.08l-.26.72c-.09.21-.18.45-.28.74h0c-.13-.29-.22-.53-.32-.74l-.3-.72H6.59l1.13,2.16-1.2,2.28Z"/><path d="M14.55,12a2,2,0,0,0-2.28-2.2H11v4.44h1.38A2,2,0,0,0,14.55,12Zm-2.42,1.29V10.71h.07c.65,0,1.15.22,1.15,1.26s-.51,1.29-1.15,1.29Z"/><rect x="4.46" y="12.97" width="1.31" height="1.31"/><path d="M29.22,4a.63.63,0,0,0-.46-.2H11.69A3.3,3.3,0,0,0,8.4,7.06H5.12a3.28,3.28,0,0,0-3.28,3.28v3.28a3.29,3.29,0,0,0,3.28,3.29H8.4V32a3.29,3.29,0,0,0,3.29,3.28h2a.66.66,0,0,0,0-1.31h-2a2,2,0,0,1-2-2V16.91H22.19a3.3,3.3,0,0,0,3.29-3.29V10.34a3.29,3.29,0,0,0-3.29-3.28H9.72a2,2,0,0,1,2-2H27.45V9a3.28,3.28,0,0,0,3.28,3.28h3.94V32a2,2,0,0,1-2,2h-2a.66.66,0,1,0,0,1.31h2A3.28,3.28,0,0,0,36,32V11a.68.68,0,0,0-.19-.47Zm-7,4.4a2,2,0,0,1,2,2v3.28a2,2,0,0,1-2,2H5.12a2,2,0,0,1-2-2V10.34a2,2,0,0,1,2-2ZM30.73,11a2,2,0,0,1-2-2V5.36L34.4,11Z"/><path d="M26.13,37.92a3.29,3.29,0,0,0,3.29-3.28V28.07a3.29,3.29,0,0,0-3.29-3.28H18.25A3.28,3.28,0,0,0,15,28.07v6.57a3.28,3.28,0,0,0,3.28,3.28Zm-9.85-3.28V28.07a2,2,0,0,1,2-2h7.88a2,2,0,0,1,2,2v6.57a2,2,0,0,1-2,2H18.25A2,2,0,0,1,16.28,34.64Z"/><polygon points="22.57 33.33 22.19 33.33 20.7 33.33 22.19 30.71 24.16 34.16 24.46 34.64 25.95 34.64 22.19 28.07 18.43 34.64 23.35 34.64 22.57 33.33"/></svg>