<svg id="Capa_1" data-name="Capa 1" xmlns="http://www.w3.org/2000/svg" xmlns:xlink="http://www.w3.org/1999/xlink" viewBox="0 0 40 40"><defs><style>.cls-1{mask:url(#mask);filter:url(#luminosity-noclip-5);}.cls-2,.cls-4,.cls-6,.cls-8{mix-blend-mode:multiply;}.cls-2{fill:url(#linear-gradient);}.cls-3{mask:url(#mask-2);filter:url(#luminosity-noclip-6);}.cls-4{fill:url(#linear-gradient-2);}.cls-5{mask:url(#mask-3);filter:url(#luminosity-noclip-7);}.cls-6{fill:url(#linear-gradient-3);}.cls-7{mask:url(#mask-4);filter:url(#luminosity-noclip-8);}.cls-8{fill:url(#linear-gradient-4);}.cls-9{opacity:0.5;}.cls-10{fill:#adacb2;opacity:0.1;}.cls-11{fill:#009ada;}.cls-12{mask:url(#mask-5);}.cls-13{fill:url(#linear-gradient-5);}.cls-14{mask:url(#mask-6);}.cls-15{fill:url(#linear-gradient-6);}.cls-16{mask:url(#mask-7);}.cls-17{fill:url(#linear-gradient-7);}.cls-18{mask:url(#mask-8);}.cls-19{fill:url(#linear-gradient-8);}.cls-20{fill:#bcbc13;stroke:#ffe100;stroke-miterlimit:10;}.cls-21{filter:url(#luminosity-noclip-4);}.cls-22{filter:url(#luminosity-noclip-3);}.cls-23{filter:url(#luminosity-noclip-2);}.cls-24{filter:url(#luminosity-noclip);}</style><filter id="luminosity-noclip" x="1.63" y="-8058.48" width="13.32" height="32766" filterUnits="userSpaceOnUse" color-interpolation-filters="sRGB"><feFlood flood-color="#fff" result="bg"/><feBlend in="SourceGraphic" in2="bg"/></filter><mask id="mask" x="1.63" y="-8058.48" width="13.32" height="32766" maskUnits="userSpaceOnUse"><g class="cls-24"/></mask><linearGradient id="linear-gradient" x1="11.62" y1="31.49" x2="4.96" y2="19.95" gradientUnits="userSpaceOnUse"><stop offset="0.77"/><stop offset="0.81" stop-color="#030303"/><stop offset="0.84" stop-color="#0c0c0c"/><stop offset="0.87" stop-color="#1c1c1c"/><stop offset="0.89" stop-color="#323232"/><stop offset="0.91" stop-color="#4e4e4e"/><stop offset="0.94" stop-color="#717171"/><stop offset="0.96" stop-color="#9b9b9b"/><stop offset="0.98" stop-color="#cacaca"/><stop offset="0.99" stop-color="#fff"/><stop offset="1" stop-color="#eaeaea"/></linearGradient><filter id="luminosity-noclip-2" x="23.58" y="-8058.48" width="9.71" height="32766" filterUnits="userSpaceOnUse" color-interpolation-filters="sRGB"><feFlood flood-color="#fff" result="bg"/><feBlend in="SourceGraphic" in2="bg"/></filter><mask id="mask-2" x="23.58" y="-8058.48" width="9.71" height="32766" maskUnits="userSpaceOnUse"><g class="cls-23"/></mask><linearGradient id="linear-gradient-2" x1="-825.2" y1="306.27" x2="-830.05" y2="297.86" gradientTransform="translate(330.49 850.33) rotate(90)" xlink:href="#linear-gradient"/><filter id="luminosity-noclip-3" x="28.43" y="-8058.48" width="9.71" height="32766" filterUnits="userSpaceOnUse" color-interpolation-filters="sRGB"><feFlood flood-color="#fff" result="bg"/><feBlend in="SourceGraphic" in2="bg"/></filter><mask id="mask-3" x="28.43" y="-8058.48" width="9.71" height="32766" maskUnits="userSpaceOnUse"><g class="cls-22"/></mask><linearGradient id="linear-gradient-3" x1="-820.38" y1="301.41" x2="-825.24" y2="293.01" gradientTransform="translate(330.49 850.33) rotate(90)" xlink:href="#linear-gradient"/><filter id="luminosity-noclip-4" x="9.95" y="-8058.48" width="18.71" height="32766" filterUnits="userSpaceOnUse" color-interpolation-filters="sRGB"><feFlood flood-color="#fff" result="bg"/><feBlend in="SourceGraphic" in2="bg"/></filter><mask id="mask-4" x="9.95" y="-8058.48" width="18.71" height="32766" maskUnits="userSpaceOnUse"><g class="cls-21"/></mask><linearGradient id="linear-gradient-4" x1="23.99" y1="28.24" x2="14.63" y2="12.03" xlink:href="#linear-gradient"/><filter id="luminosity-noclip-5" x="1.63" y="19.06" width="13.32" height="13.32" filterUnits="userSpaceOnUse" color-interpolation-filters="sRGB"><feFlood flood-color="#fff" result="bg"/><feBlend in="SourceGraphic" in2="bg"/></filter><mask id="mask-5" x="1.63" y="19.06" width="13.32" height="13.32" maskUnits="userSpaceOnUse"><g class="cls-1"><path class="cls-2" d="M15,25.72a6.66,6.66,0,1,1-6.66-6.66A6.66,6.66,0,0,1,15,25.72Z"/></g></mask><linearGradient id="linear-gradient-5" x1="11.62" y1="31.49" x2="4.96" y2="19.95" gradientUnits="userSpaceOnUse"><stop offset="0.77" stop-color="#fff"/><stop offset="0.97" stop-color="#fff"/><stop offset="0.99" stop-color="#fff"/><stop offset="1" stop-color="#fff"/></linearGradient><filter id="luminosity-noclip-6" x="23.58" y="17.84" width="9.71" height="9.71" filterUnits="userSpaceOnUse" color-interpolation-filters="sRGB"><feFlood flood-color="#fff" result="bg"/><feBlend in="SourceGraphic" in2="bg"/></filter><mask id="mask-6" x="23.58" y="17.84" width="9.71" height="9.71" maskUnits="userSpaceOnUse"><g class="cls-3"><path class="cls-4" d="M28.43,27.55a4.86,4.86,0,1,1,4.85-4.85A4.85,4.85,0,0,1,28.43,27.55Z"/></g></mask><linearGradient id="linear-gradient-6" x1="-825.2" y1="306.27" x2="-830.05" y2="297.86" gradientTransform="translate(330.49 850.33) rotate(90)" xlink:href="#linear-gradient-5"/><filter id="luminosity-noclip-7" x="28.43" y="22.66" width="9.71" height="9.71" filterUnits="userSpaceOnUse" color-interpolation-filters="sRGB"><feFlood flood-color="#fff" result="bg"/><feBlend in="SourceGraphic" in2="bg"/></filter><mask id="mask-7" x="28.43" y="22.66" width="9.71" height="9.71" maskUnits="userSpaceOnUse"><g class="cls-5"><path class="cls-6" d="M33.28,32.37a4.86,4.86,0,1,1,4.86-4.86A4.86,4.86,0,0,1,33.28,32.37Z"/></g></mask><linearGradient id="linear-gradient-7" x1="-820.38" y1="301.41" x2="-825.24" y2="293.01" gradientTransform="translate(330.49 850.33) rotate(90)" xlink:href="#linear-gradient-5"/><filter id="luminosity-noclip-8" x="9.95" y="10.78" width="18.71" height="18.71" filterUnits="userSpaceOnUse" color-interpolation-filters="sRGB"><feFlood flood-color="#fff" result="bg"/><feBlend in="SourceGraphic" in2="bg"/></filter><mask id="mask-8" x="9.95" y="10.78" width="18.71" height="18.71" maskUnits="userSpaceOnUse"><g class="cls-7"><path class="cls-8" d="M28.67,20.14a9.36,9.36,0,1,1-9.36-9.36A9.36,9.36,0,0,1,28.67,20.14Z"/></g></mask><linearGradient id="linear-gradient-8" x1="23.99" y1="28.24" x2="14.63" y2="12.03" xlink:href="#linear-gradient-5"/></defs><title>BasesDeDatos</title><g class="cls-9"><path class="cls-10" d="M36.58,33.34c0,.54-7.44,1-16.61,1s-16.61-.43-16.61-1,7.44-1,16.61-1S36.58,32.8,36.58,33.34Z"/><path class="cls-10" d="M36.16,33.34c0,.5-7.25.91-16.19.91s-16.19-.41-16.19-.91S11,32.43,20,32.43,36.16,32.84,36.16,33.34Z"/><path class="cls-10" d="M35.81,33.34c0,.45-7.09.81-15.84.81s-15.84-.36-15.84-.81,7.09-.81,15.84-.81S35.81,32.89,35.81,33.34Z"/><path class="cls-10" d="M35.46,33.34c0,.42-6.94.76-15.49.76s-15.49-.34-15.49-.76,6.94-.76,15.49-.76S35.46,32.92,35.46,33.34Z"/><path class="cls-10" d="M35.53,33.34c0,.41-7,.74-15.56.74s-15.56-.33-15.56-.74,7-.74,15.56-.74S35.53,32.93,35.53,33.34Z"/><path class="cls-10" d="M35.25,33.34c0,.39-6.84.7-15.28.7s-15.28-.31-15.28-.7,6.84-.7,15.28-.7S35.25,33,35.25,33.34Z"/><path class="cls-10" d="M34.9,33.34c0,.38-6.69.68-14.93.68S5,33.72,5,33.34s6.69-.68,14.93-.68S34.9,33,34.9,33.34Z"/><path class="cls-10" d="M34.34,33.34c0,.34-6.43.62-14.37.62S5.6,33.68,5.6,33.34,12,32.72,20,32.72,34.34,33,34.34,33.34Z"/><path class="cls-10" d="M33.92,33.34c0,.32-6.25.57-14,.57S6,33.66,6,33.34s6.24-.58,13.94-.58S33.92,33,33.92,33.34Z"/><path class="cls-10" d="M33.43,33.34c0,.29-6,.53-13.46.53s-13.45-.24-13.45-.53,6-.53,13.45-.53S33.43,33.05,33.43,33.34Z"/><path class="cls-10" d="M32.94,33.34c0,.27-5.81.49-13,.49s-13-.22-13-.49,5.8-.49,13-.49S32.94,33.07,32.94,33.34Z"/><path class="cls-10" d="M32.24,33.34c0,.25-5.49.45-12.27.45s-12.26-.2-12.26-.45,5.49-.45,12.26-.45S32.24,33.09,32.24,33.34Z"/><path class="cls-10" d="M31.66,33.34c0,.24-5.23.43-11.69.43s-11.68-.19-11.68-.43,5.23-.43,11.68-.43S31.66,33.1,31.66,33.34Z"/><path class="cls-10" d="M30.92,33.34c0,.22-4.9.4-11,.4S9,33.56,9,33.34s4.9-.4,11-.4S30.92,33.12,30.92,33.34Z"/><path class="cls-10" d="M30.29,33.34c0,.2-4.62.37-10.32.37s-10.32-.17-10.32-.37S14.27,33,20,33,30.29,33.13,30.29,33.34Z"/><path class="cls-10" d="M29.71,33.34c0,.18-4.36.32-9.74.32s-9.74-.14-9.74-.32S14.59,33,20,33,29.71,33.16,29.71,33.34Z"/><path class="cls-10" d="M29.19,33.34A83,83,0,0,1,20,33.6a82.77,82.77,0,0,1-9.21-.26A82.77,82.77,0,0,1,20,33.08,83,83,0,0,1,29.19,33.34Z"/><path class="cls-10" d="M28.4,33.34c0,.11-3.77.2-8.43.2s-8.42-.09-8.42-.2,3.77-.2,8.42-.2S28.4,33.23,28.4,33.34Z"/><path class="cls-10" d="M27.5,33.34c0,.07-3.37.14-7.53.14s-7.53-.07-7.53-.14,3.37-.14,7.53-.14S27.5,33.26,27.5,33.34Z"/><path class="cls-10" d="M26.56,33.34s-2.95.07-6.59.07-6.59,0-6.59-.07,2.95-.07,6.59-.07S26.56,33.3,26.56,33.34Z"/><path class="cls-10" d="M26.56,33.34s-2.95.07-6.59.07-6.59,0-6.59-.07,2.95-.07,6.59-.07S26.56,33.3,26.56,33.34Z"/></g><path class="cls-11" d="M33.66,22.19h0c0-.11,0-.21,0-.33a4.31,4.31,0,0,0-4.32-4.31,4.9,4.9,0,0,0-.77.07,9.55,9.55,0,0,0-18.79.61,8,8,0,0,0-1.39-.13,7.25,7.25,0,0,0,0,14.5H33.66a5.21,5.21,0,0,0,0-10.41Z"/><g class="cls-12"><path class="cls-13" d="M15,25.72a6.66,6.66,0,1,1-6.66-6.66A6.66,6.66,0,0,1,15,25.72Z"/></g><g class="cls-14"><path class="cls-15" d="M28.43,27.55a4.86,4.86,0,1,1,4.85-4.85A4.85,4.85,0,0,1,28.43,27.55Z"/></g><g class="cls-16"><path class="cls-17" d="M33.28,32.37a4.86,4.86,0,1,1,4.86-4.86A4.86,4.86,0,0,1,33.28,32.37Z"/></g><g class="cls-18"><path class="cls-19" d="M28.67,20.14a9.36,9.36,0,1,1-9.36-9.36A9.36,9.36,0,0,1,28.67,20.14Z"/></g><path class="cls-20" d="M13.9,26v2.33c0,1.17,2.56,2.12,5.72,2.12s5.73-.95,5.73-2.12V26Z"/><path class="cls-20" d="M25.35,26c0,1.17-2.56,2.12-5.73,2.12S13.9,27.12,13.9,26s2.56-2.12,5.72-2.12S25.35,24.78,25.35,26Z"/><path class="cls-20" d="M13.9,22.59v2.33c0,1.17,2.56,2.12,5.72,2.12s5.73-.95,5.73-2.12V22.59Z"/><path class="cls-20" d="M25.35,22.59c0,1.17-2.56,2.12-5.73,2.12s-5.72-.95-5.72-2.12,2.56-2.12,5.72-2.12S25.35,21.42,25.35,22.59Z"/><path class="cls-20" d="M13.9,19.23v2.33c0,1.17,2.56,2.12,5.72,2.12s5.73-.95,5.73-2.12V19.23Z"/><path class="cls-20" d="M25.35,19.23c0,1.17-2.56,2.12-5.73,2.12s-5.72-1-5.72-2.12,2.56-2.12,5.72-2.12S25.35,18.06,25.35,19.23Z"/><path class="cls-20" d="M19.62,20.79c-2.11,0-4.35-.55-4.35-1.56s2.24-1.55,4.35-1.55S24,18.23,24,19.23,21.73,20.79,19.62,20.79Zm0-2.87c-2.44,0-4.14.69-4.14,1.31s1.7,1.32,4.14,1.32,4.15-.7,4.15-1.32S22.07,17.92,19.62,17.92Z"/></svg>