<svg id="Capa_1" data-name="Capa 1" xmlns="http://www.w3.org/2000/svg" xmlns:xlink="http://www.w3.org/1999/xlink" viewBox="0 0 50 50"><defs><style>.cls-1{fill:#f16723;}.cls-2{fill:#4e9bd4;}.cls-3{fill:#7fc344;}.cls-4{fill:#ff3fc2;}.cls-5{fill:url(#Degradado_sin_nombre_8);}</style><linearGradient id="Degradado_sin_nombre_8" x1="13.95" y1="44.16" x2="35.82" y2="6.07" gradientUnits="userSpaceOnUse"><stop offset="0" stop-color="#feb200"/><stop offset="0.41" stop-color="#fec700"/><stop offset="1" stop-color="#ffe100"/></linearGradient></defs><title>icoGithub</title><path class="cls-1" d="M14.07,25a.54.54,0,1,1-.54-.54A.54.54,0,0,1,14.07,25Z"/><path class="cls-1" d="M.54,25.54H11.37a.54.54,0,1,0,0-1.08H.54a.54.54,0,1,0,0,1.08Z"/><path class="cls-2" d="M29.36,25a.54.54,0,1,1-.54-.54A.54.54,0,0,1,29.36,25Z"/><path class="cls-2" d="M15.83,25.54H26.65a.54.54,0,1,0,0-1.08H15.83a.54.54,0,0,0,0,1.08Z"/><path class="cls-3" d="M44.65,25a.54.54,0,1,1-.54-.54A.54.54,0,0,1,44.65,25Z"/><path class="cls-3" d="M31.12,25.54H41.94a.54.54,0,0,0,0-1.08H31.12a.54.54,0,1,0,0,1.08Z"/><path class="cls-4" d="M46.4,25.54H57.23a.54.54,0,0,0,0-1.08H46.4a.54.54,0,1,0,0,1.08Z"/><path class="cls-1" d="M8.5,45.58A.54.54,0,1,1,8,45,.54.54,0,0,1,8.5,45.58Z"/><path class="cls-1" d="M-5,46.12H5.79a.54.54,0,1,0,0-1.08H-5a.54.54,0,0,0-.54.54A.54.54,0,0,0-5,46.12Z"/><path class="cls-2" d="M23.79,45.58a.55.55,0,1,1-.54-.54A.54.54,0,0,1,23.79,45.58Z"/><path class="cls-2" d="M10.25,46.12H21.08a.54.54,0,1,0,0-1.08H10.25a.54.54,0,0,0,0,1.08Z"/><path class="cls-3" d="M39.07,45.58a.54.54,0,1,1-.54-.54A.54.54,0,0,1,39.07,45.58Z"/><path class="cls-3" d="M25.54,46.12H36.37a.54.54,0,1,0,0-1.08H25.54a.54.54,0,1,0,0,1.08Z"/><path class="cls-4" d="M40.83,46.12H51.65a.54.54,0,1,0,0-1.08H40.83a.54.54,0,0,0,0,1.08Z"/><path class="cls-1" d="M1.93,48.3a.54.54,0,1,1-.54-.54A.54.54,0,0,1,1.93,48.3Z"/><path class="cls-2" d="M17.22,48.3a.54.54,0,1,1-.54-.54A.54.54,0,0,1,17.22,48.3Z"/><path class="cls-2" d="M3.69,48.84H14.51a.54.54,0,1,0,0-1.08H3.69a.54.54,0,0,0,0,1.08Z"/><path class="cls-3" d="M32.51,48.3a.54.54,0,1,1-.54-.54A.54.54,0,0,1,32.51,48.3Z"/><path class="cls-3" d="M19,48.84H29.8a.54.54,0,1,0,0-1.08H19a.54.54,0,1,0,0,1.08Z"/><path class="cls-4" d="M47.8,48.3a.55.55,0,0,1-.55.54.54.54,0,0,1,0-1.08A.55.55,0,0,1,47.8,48.3Z"/><path class="cls-4" d="M34.26,48.84H45.09a.54.54,0,0,0,0-1.08H34.26a.54.54,0,0,0,0,1.08Z"/><path class="cls-1" d="M8.5,40.89A.54.54,0,1,1,8,40.35.54.54,0,0,1,8.5,40.89Z"/><path class="cls-1" d="M-5,41.43H5.79a.54.54,0,1,0,0-1.08H-5a.54.54,0,0,0-.54.54A.54.54,0,0,0-5,41.43Z"/><path class="cls-2" d="M23.79,40.89a.55.55,0,1,1-.54-.54A.54.54,0,0,1,23.79,40.89Z"/><path class="cls-2" d="M10.25,41.43H21.08a.54.54,0,0,0,0-1.08H10.25a.54.54,0,1,0,0,1.08Z"/><path class="cls-3" d="M39.07,40.89a.54.54,0,1,1-.54-.54A.54.54,0,0,1,39.07,40.89Z"/><path class="cls-3" d="M25.54,41.43H36.37a.54.54,0,1,0,0-1.08H25.54a.54.54,0,1,0,0,1.08Z"/><path class="cls-4" d="M40.83,41.43H51.65a.54.54,0,1,0,0-1.08H40.83a.54.54,0,0,0,0,1.08Z"/><path class="cls-1" d="M4.27,31.58A.54.54,0,1,1,3.73,31,.54.54,0,0,1,4.27,31.58Z"/><path class="cls-1" d="M-9.26,32.12H1.56a.54.54,0,1,0,0-1.08H-9.26a.54.54,0,0,0-.54.54A.54.54,0,0,0-9.26,32.12Z"/><path class="cls-2" d="M19.56,31.58A.54.54,0,1,1,19,31,.54.54,0,0,1,19.56,31.58Z"/><path class="cls-2" d="M6,32.12H16.85a.54.54,0,0,0,0-1.08H6a.54.54,0,1,0,0,1.08Z"/><path class="cls-3" d="M34.84,31.58A.54.54,0,1,1,34.3,31,.54.54,0,0,1,34.84,31.58Z"/><path class="cls-3" d="M21.31,32.12H32.14a.54.54,0,0,0,0-1.08H21.31a.54.54,0,0,0,0,1.08Z"/><path class="cls-4" d="M50.13,31.58a.54.54,0,1,1-.54-.54A.54.54,0,0,1,50.13,31.58Z"/><path class="cls-4" d="M36.6,32.12H47.43a.54.54,0,1,0,0-1.08H36.6a.54.54,0,1,0,0,1.08Z"/><path class="cls-1" d="M40.89,28.19a.55.55,0,0,1,.54-.55.55.55,0,0,1,.55.54.55.55,0,0,1-1.09,0Z"/><path class="cls-1" d="M54.42,27.56l-10.82.07a.54.54,0,0,0,0,1.08l10.83-.07a.55.55,0,0,0,.54-.55A.53.53,0,0,0,54.42,27.56Z"/><path class="cls-2" d="M25.61,28.29a.54.54,0,0,1,.53-.55.55.55,0,0,1,.55.54.54.54,0,0,1-.54.54A.52.52,0,0,1,25.61,28.29Z"/><path class="cls-2" d="M39.14,27.66l-10.83.07a.54.54,0,0,0-.54.54.55.55,0,0,0,.55.54l10.82-.07a.55.55,0,0,0,.54-.55A.54.54,0,0,0,39.14,27.66Z"/><path class="cls-3" d="M10.32,28.39a.55.55,0,0,1,.54-.55.54.54,0,1,1,0,1.08A.53.53,0,0,1,10.32,28.39Z"/><path class="cls-3" d="M23.85,27.76,13,27.83a.54.54,0,0,0-.54.54.55.55,0,0,0,.55.54l10.83-.07a.54.54,0,0,0,.53-.55A.53.53,0,0,0,23.85,27.76Z"/><path class="cls-4" d="M8.56,27.86l-10.82.07a.54.54,0,0,0-.54.54.54.54,0,0,0,.54.54l10.83-.07a.54.54,0,1,0,0-1.08Z"/><path class="cls-2" d="M40.89,35a.54.54,0,0,1,.54-.54A.55.55,0,0,1,42,35a.54.54,0,0,1-.54.54A.55.55,0,0,1,40.89,35Z"/><path class="cls-2" d="M54.42,34.4l-10.82.07a.55.55,0,0,0-.54.55.54.54,0,0,0,.54.54l10.83-.07a.55.55,0,0,0,.54-.55A.55.55,0,0,0,54.42,34.4Z"/><path class="cls-3" d="M25.61,35.13a.53.53,0,0,1,.53-.54.55.55,0,0,1,.55.54.54.54,0,0,1-1.08,0Z"/><path class="cls-3" d="M39.14,34.5l-10.83.07a.55.55,0,0,0-.54.55.55.55,0,0,0,.55.54l10.82-.07a.55.55,0,0,0,.54-.55A.54.54,0,0,0,39.14,34.5Z"/><path class="cls-4" d="M10.32,35.23a.54.54,0,1,1,.54.54A.54.54,0,0,1,10.32,35.23Z"/><path class="cls-4" d="M23.85,34.6,13,34.67a.55.55,0,0,0,0,1.09l10.83-.07a.54.54,0,0,0,.53-.55A.54.54,0,0,0,23.85,34.6Z"/><path class="cls-1" d="M34.91,38.25a.54.54,0,0,1,.54-.54.52.52,0,0,1,.54.53.54.54,0,1,1-1.08,0Z"/><path class="cls-1" d="M48.44,37.62l-10.83.07a.53.53,0,0,0-.53.55.52.52,0,0,0,.54.53l10.83-.07a.53.53,0,0,0,.53-.54A.54.54,0,0,0,48.44,37.62Z"/><path class="cls-2" d="M19.62,38.35a.55.55,0,0,1,1.09,0,.55.55,0,1,1-1.09,0Z"/><path class="cls-2" d="M33.15,37.72l-10.82.07a.55.55,0,0,0-.54.55.52.52,0,0,0,.54.53l10.83-.07a.54.54,0,0,0,.54-.54A.55.55,0,0,0,33.15,37.72Z"/><path class="cls-3" d="M4.34,38.45a.52.52,0,0,1,.53-.54.54.54,0,0,1,.55.53.55.55,0,0,1-.54.55A.54.54,0,0,1,4.34,38.45Z"/><path class="cls-3" d="M17.86,37.82,7,37.89a.55.55,0,0,0-.54.55.53.53,0,0,0,.55.53l10.82-.07a.54.54,0,0,0,.54-.54A.55.55,0,0,0,17.86,37.82Z"/><path class="cls-4" d="M2.58,37.92-8.25,38a.55.55,0,0,0-.54.55.55.55,0,0,0,.55.54L2.59,39a.54.54,0,0,0,0-1.08Z"/><path class="cls-1" d="M43.45,43.23a.54.54,0,0,1,1.08,0,.52.52,0,0,1-.53.54A.55.55,0,0,1,43.45,43.23Z"/><path class="cls-1" d="M57,42.6l-10.82.07a.55.55,0,0,0-.54.55.54.54,0,0,0,.54.54L57,43.69a.55.55,0,0,0,0-1.09Z"/><path class="cls-2" d="M28.17,43.33a.53.53,0,0,1,.53-.54.55.55,0,0,1,.55.54.54.54,0,0,1-1.08,0Z"/><path class="cls-2" d="M41.69,42.7l-10.82.07a.55.55,0,0,0-.54.55.55.55,0,0,0,.55.54l10.82-.07a.55.55,0,0,0,.54-.55A.55.55,0,0,0,41.69,42.7Z"/><path class="cls-3" d="M12.88,43.43a.54.54,0,0,1,.54-.54.54.54,0,1,1-.54.54Z"/><path class="cls-3" d="M26.41,42.8l-10.83.08a.54.54,0,0,0-.54.54.55.55,0,0,0,.55.54l10.82-.07a.55.55,0,0,0,.54-.55A.54.54,0,0,0,26.41,42.8Z"/><path class="cls-4" d="M11.12,42.9.29,43a.53.53,0,0,0-.53.54.54.54,0,0,0,.54.54L11.13,44a.55.55,0,0,0,.54-.55A.55.55,0,0,0,11.12,42.9Z"/><path class="cls-1" d="M25.61,35a.54.54,0,0,1,1.08,0,.55.55,0,0,1-.54.55A.54.54,0,0,1,25.61,35Z"/><path class="cls-1" d="M39.14,34.41l-10.83.07a.55.55,0,0,0-.54.55.53.53,0,0,0,.55.53l10.82-.07a.54.54,0,0,0,.54-.54A.54.54,0,0,0,39.14,34.41Z"/><path class="cls-2" d="M10.32,35.14a.54.54,0,0,1,.54-.54.52.52,0,0,1,.54.53.54.54,0,1,1-1.08,0Z"/><path class="cls-2" d="M23.85,34.51,13,34.58a.55.55,0,0,0-.54.55.54.54,0,0,0,.55.53l10.83-.07a.53.53,0,0,0,.53-.54A.54.54,0,0,0,23.85,34.51Z"/><path class="cls-3" d="M8.56,34.61l-10.82.07a.55.55,0,0,0-.54.55.52.52,0,0,0,.54.53l10.83-.07a.54.54,0,0,0,.54-.54A.55.55,0,0,0,8.56,34.61Z"/><path class="cls-1" d="M9.11,19.19a.55.55,0,1,1-.55-.54A.55.55,0,0,1,9.11,19.19Z"/><path class="cls-1" d="M-4.43,19.73H6.4a.54.54,0,0,0,0-1.08H-4.43a.54.54,0,0,0-.54.54A.54.54,0,0,0-4.43,19.73Z"/><path class="cls-2" d="M24.39,19.19a.54.54,0,1,1-.54-.54A.54.54,0,0,1,24.39,19.19Z"/><path class="cls-2" d="M10.86,19.73H21.69a.54.54,0,1,0,0-1.08H10.86a.54.54,0,0,0,0,1.08Z"/><path class="cls-3" d="M39.68,19.19a.54.54,0,1,1-.54-.54A.54.54,0,0,1,39.68,19.19Z"/><path class="cls-3" d="M26.15,19.73H37a.54.54,0,1,0,0-1.08H26.15a.54.54,0,1,0,0,1.08Z"/><path class="cls-4" d="M41.43,19.73H52.26a.54.54,0,0,0,0-1.08H41.43a.54.54,0,0,0,0,1.08Z"/><path class="cls-1" d="M2.54,21.9A.54.54,0,1,1,2,21.36.54.54,0,0,1,2.54,21.9Z"/><path class="cls-1" d="M-11,22.44H-.17a.54.54,0,0,0,.54-.54.54.54,0,0,0-.54-.54H-11a.54.54,0,0,0-.54.54A.54.54,0,0,0-11,22.44Z"/><path class="cls-2" d="M17.83,21.9a.55.55,0,1,1-.54-.54A.54.54,0,0,1,17.83,21.9Z"/><path class="cls-2" d="M4.29,22.44H15.12a.54.54,0,1,0,0-1.08H4.29a.54.54,0,0,0,0,1.08Z"/><path class="cls-3" d="M33.11,21.9a.54.54,0,1,1-.54-.54A.54.54,0,0,1,33.11,21.9Z"/><path class="cls-3" d="M19.58,22.44H30.41a.54.54,0,0,0,0-1.08H19.58a.54.54,0,0,0,0,1.08Z"/><path class="cls-4" d="M48.4,21.9a.54.54,0,1,1-.54-.54A.54.54,0,0,1,48.4,21.9Z"/><path class="cls-4" d="M34.87,22.44H45.69a.54.54,0,1,0,0-1.08H34.87a.54.54,0,0,0,0,1.08Z"/><path class="cls-1" d="M9.11,14.5A.55.55,0,1,1,8.56,14,.55.55,0,0,1,9.11,14.5Z"/><path class="cls-1" d="M-4.43,15H6.4A.54.54,0,1,0,6.4,14H-4.43A.54.54,0,0,0-5,14.5.54.54,0,0,0-4.43,15Z"/><path class="cls-2" d="M24.39,14.5a.54.54,0,1,1-.54-.54A.54.54,0,0,1,24.39,14.5Z"/><path class="cls-2" d="M10.86,15H21.69a.54.54,0,0,0,0-1.08H10.86a.54.54,0,0,0,0,1.08Z"/><path class="cls-3" d="M39.68,14.5a.54.54,0,1,1-.54-.54A.54.54,0,0,1,39.68,14.5Z"/><path class="cls-3" d="M26.15,15H37A.54.54,0,1,0,37,14H26.15a.54.54,0,0,0,0,1.08Z"/><path class="cls-4" d="M41.43,15H52.26a.54.54,0,1,0,0-1.08H41.43a.54.54,0,1,0,0,1.08Z"/><path class="cls-1" d="M4.88,5.19a.55.55,0,1,1-.54-.55A.55.55,0,0,1,4.88,5.19Z"/><path class="cls-1" d="M-8.66,5.73H2.17a.55.55,0,0,0,0-1.09H-8.66a.55.55,0,0,0-.54.55A.55.55,0,0,0-8.66,5.73Z"/><path class="cls-2" d="M20.16,5.19a.54.54,0,1,1-.54-.55A.54.54,0,0,1,20.16,5.19Z"/><path class="cls-2" d="M6.63,5.73H17.46a.55.55,0,0,0,0-1.09H6.63a.55.55,0,0,0,0,1.09Z"/><path class="cls-3" d="M35.45,5.19a.54.54,0,1,1-.54-.55A.54.54,0,0,1,35.45,5.19Z"/><path class="cls-3" d="M21.92,5.73H32.74a.55.55,0,1,0,0-1.09H21.92a.55.55,0,0,0,0,1.09Z"/><path class="cls-4" d="M50.74,5.19a.54.54,0,1,1-.54-.55A.54.54,0,0,1,50.74,5.19Z"/><path class="cls-4" d="M37.21,5.73H48a.55.55,0,0,0,0-1.09H37.21a.55.55,0,1,0,0,1.09Z"/><path class="cls-1" d="M41.5,1.79A.54.54,0,0,1,42,1.25a.52.52,0,0,1,.54.53.54.54,0,1,1-1.08,0Z"/><path class="cls-1" d="M55,1.16,44.2,1.23a.55.55,0,0,0-.54.55.54.54,0,0,0,.55.53L55,2.24a.53.53,0,0,0,.53-.54A.54.54,0,0,0,55,1.16Z"/><path class="cls-2" d="M26.21,1.89a.55.55,0,0,1,1.09,0,.55.55,0,1,1-1.09,0Z"/><path class="cls-2" d="M39.74,1.26l-10.82.07a.55.55,0,0,0-.54.55.52.52,0,0,0,.54.53l10.83-.07a.54.54,0,0,0,.54-.54A.55.55,0,0,0,39.74,1.26Z"/><path class="cls-3" d="M10.93,2a.52.52,0,0,1,.53-.54A.54.54,0,0,1,12,2a.55.55,0,0,1-.54.55A.54.54,0,0,1,10.93,2Z"/><path class="cls-3" d="M24.45,1.36l-10.82.07a.55.55,0,0,0-.54.55.53.53,0,0,0,.55.53l10.82-.07A.54.54,0,0,0,25,1.9.55.55,0,0,0,24.45,1.36Z"/><path class="cls-4" d="M9.17,1.46l-10.83.07a.55.55,0,0,0-.54.55.55.55,0,0,0,.55.54L9.17,2.54a.54.54,0,0,0,0-1.08Z"/><path class="cls-2" d="M41.5,8.64A.55.55,0,0,1,42,8.09a.54.54,0,0,1,.54.54.55.55,0,0,1-.54.55A.54.54,0,0,1,41.5,8.64Z"/><path class="cls-2" d="M55,8,44.2,8.08a.52.52,0,0,0-.53.54.54.54,0,0,0,.54.54L55,9.09a.53.53,0,0,0,.53-.54A.54.54,0,0,0,55,8Z"/><path class="cls-3" d="M26.21,8.74a.55.55,0,0,1,.54-.55.55.55,0,1,1-.54.55Z"/><path class="cls-3" d="M39.74,8.11l-10.82.07a.54.54,0,1,0,0,1.08l10.83-.07a.54.54,0,0,0,.54-.54A.55.55,0,0,0,39.74,8.11Z"/><path class="cls-4" d="M10.93,8.84a.54.54,0,1,1,1.08,0,.55.55,0,0,1-.54.55A.54.54,0,0,1,10.93,8.84Z"/><path class="cls-4" d="M24.46,8.21l-10.83.07a.54.54,0,0,0-.54.54.55.55,0,0,0,.55.54l10.82-.07a.54.54,0,0,0,0-1.08Z"/><path class="cls-1" d="M35.52,11.86a.53.53,0,0,1,.53-.55.55.55,0,0,1,.55.54.54.54,0,0,1-1.08,0Z"/><path class="cls-1" d="M49.05,11.23l-10.83.07a.54.54,0,0,0-.54.54.55.55,0,0,0,.55.54l10.82-.07a.55.55,0,0,0,.54-.55A.53.53,0,0,0,49.05,11.23Z"/><path class="cls-2" d="M20.23,12a.55.55,0,0,1,.54-.55.54.54,0,1,1-.54.55Z"/><path class="cls-2" d="M33.76,11.33l-10.83.07a.54.54,0,0,0-.54.54.55.55,0,0,0,.55.54l10.83-.07a.54.54,0,0,0,.53-.55A.52.52,0,0,0,33.76,11.33Z"/><path class="cls-3" d="M4.94,12.06a.55.55,0,0,1,.54-.55.54.54,0,0,1,.54.54.52.52,0,0,1-.53.54A.54.54,0,0,1,4.94,12.06Z"/><path class="cls-3" d="M18.47,11.43,7.65,11.5a.54.54,0,1,0,0,1.08l10.83-.07A.55.55,0,0,0,19,12,.54.54,0,0,0,18.47,11.43Z"/><path class="cls-4" d="M3.18,11.53l-10.82.07a.54.54,0,0,0-.54.54.55.55,0,0,0,.55.54l10.82-.07a.55.55,0,0,0,.54-.55A.53.53,0,0,0,3.18,11.53Z"/><path class="cls-1" d="M44.06,16.84a.55.55,0,0,1,.54-.55.54.54,0,0,1,.54.54.55.55,0,0,1-.54.55A.54.54,0,0,1,44.06,16.84Z"/><path class="cls-1" d="M57.59,16.21l-10.83.07a.54.54,0,0,0-.54.54.55.55,0,0,0,.55.54l10.82-.07a.54.54,0,0,0,.54-.54A.54.54,0,0,0,57.59,16.21Z"/><path class="cls-2" d="M28.77,16.94a.55.55,0,0,1,.54-.55.55.55,0,0,1,0,1.09A.55.55,0,0,1,28.77,16.94Z"/><path class="cls-2" d="M42.3,16.31l-10.83.07a.54.54,0,0,0,0,1.08l10.83-.07a.54.54,0,0,0,.54-.54A.55.55,0,0,0,42.3,16.31Z"/><path class="cls-3" d="M13.48,17a.55.55,0,0,1,.54-.55.55.55,0,0,1,.55.54.55.55,0,0,1-1.09,0Z"/><path class="cls-3" d="M27,16.41l-10.82.07a.54.54,0,0,0,0,1.08L27,17.49a.54.54,0,0,0,.54-.54A.55.55,0,0,0,27,16.41Z"/><path class="cls-4" d="M11.73,16.51.9,16.58a.54.54,0,1,0,0,1.08l10.82-.07a.54.54,0,0,0,0-1.08Z"/><path class="cls-1" d="M26.21,8.64a.54.54,0,0,1,.54-.54.55.55,0,0,1,.55.54.54.54,0,0,1-.54.54A.55.55,0,0,1,26.21,8.64Z"/><path class="cls-1" d="M39.74,8l-10.82.08a.54.54,0,1,0,0,1.08L39.75,9.1a.55.55,0,0,0,.54-.55A.55.55,0,0,0,39.74,8Z"/><path class="cls-2" d="M10.93,8.75a.53.53,0,0,1,.53-.55.55.55,0,0,1,.55.54.54.54,0,0,1-1.08,0Z"/><path class="cls-2" d="M24.45,8.12l-10.82.07a.54.54,0,0,0-.54.54.55.55,0,0,0,.55.54L24.46,9.2A.55.55,0,0,0,25,8.65.53.53,0,0,0,24.45,8.12Z"/><path class="cls-3" d="M9.17,8.22l-10.83.07a.54.54,0,0,0-.54.54.55.55,0,0,0,.55.54L9.17,9.3a.55.55,0,0,0,.54-.55A.52.52,0,0,0,9.17,8.22Z"/><path d="M24.94.17a24.95,24.95,0,1,0,25,25A25,25,0,0,0,24.94.17ZM20.43,46.66a4.71,4.71,0,0,0,.11-1V39.81c0-2.14.74-2.47,1.6-3.77a1.47,1.47,0,0,0-1-2.26c-5.82-.86-8.11-3.87-9-6.23A10,10,0,0,1,13.66,18,1.81,1.81,0,0,0,14,16.28a9,9,0,0,1-.1-4.32,10.61,10.61,0,0,1,3.8,1.72c.77.47,1.33.91,2.27.65a20.16,20.16,0,0,1,4.94-.7,19.73,19.73,0,0,1,4.95.71c.94.25,1.51-.2,2.27-.66A10.65,10.65,0,0,1,36,12a8.8,8.8,0,0,1-.09,4.31A1.83,1.83,0,0,0,36.23,18a9.94,9.94,0,0,1,1.53,9.55c-.89,2.36-3.18,5.37-9,6.23a1.49,1.49,0,0,0-1.12.85A1.47,1.47,0,0,0,27.75,36c.85,1.3,1.6,1.63,1.6,3.78v5.85a4.62,4.62,0,0,0,.11,1,21.92,21.92,0,0,1-9,0Zm11.87-.79a1.49,1.49,0,0,1,0-.21V39.82a7,7,0,0,0-.83-3.6c4.46-1.21,7.63-3.86,9.05-7.63a12.87,12.87,0,0,0-1.68-12c.46-2,.45-5.18-.65-6.62A2.22,2.22,0,0,0,36.25,9c-2.3.1-4.06,1.25-6,2.41a23,23,0,0,0-5.3-.71h0a23,23,0,0,0-5.3.71c-1.91-1.15-3.69-2.31-6-2.41a2.25,2.25,0,0,0-1.93.94c-1.09,1.44-1.1,4.6-.64,6.62a12.87,12.87,0,0,0-1.69,12c1.43,3.77,4.6,6.42,9,7.63a6.67,6.67,0,0,0-.78,2.61,3.23,3.23,0,0,1-4.28-1.46C12.21,35.4,10.23,33.82,8,34a1.47,1.47,0,1,0,.26,2.92c1-.09,2.08,1,2.63,1.93a6.06,6.06,0,0,0,6.76,3v3.76a1.64,1.64,0,0,1,0,.22A22,22,0,1,1,47,25.12,22.15,22.15,0,0,1,32.3,45.87Z"/><path class="cls-5" d="M24.9,3.15a22,22,0,0,0-7.34,42.67,1.49,1.49,0,0,0,0-.21V41.85a6.05,6.05,0,0,1-6.75-3c-.55-.92-1.58-2-2.62-1.92A1.47,1.47,0,0,1,8,34c2.26-.2,4.24,1.38,5.4,3.34a3.23,3.23,0,0,0,4.27,1.46,6.51,6.51,0,0,1,.78-2.61c-4.44-1.2-7.61-3.85-9-7.61a12.86,12.86,0,0,1,1.68-12c-.46-2-.44-5.16.65-6.59a2.23,2.23,0,0,1,1.92-1c2.3.11,4.06,1.26,6,2.41a22.41,22.41,0,0,1,5.29-.7h0a22.34,22.34,0,0,1,5.29.7c1.92-1.16,3.69-2.3,6-2.41a2.25,2.25,0,0,1,1.92,1c1.09,1.43,1.1,4.59.65,6.59a12.89,12.89,0,0,1,1.67,12c-1.42,3.76-4.58,6.41-9,7.61a7.06,7.06,0,0,1,.83,3.6v5.82a1.41,1.41,0,0,0,0,.21A22,22,0,0,0,24.9,3.15Z"/></svg>