<svg id="Capa_1" data-name="Capa 1" xmlns="http://www.w3.org/2000/svg" viewBox="0 0 40 40"><defs><style>.cls-1{fill:#f16723;}.cls-2{fill:#fbd20a;}.cls-3{fill:#4e9bd4;}.cls-4{fill:#fff;}.cls-5{fill:#3769a5;}.cls-6{fill:#f7f4eb;}</style></defs><title>IconoQuienSoy</title><path class="cls-1" d="M34.84,24.78a.78.78,0,1,1,0-1.54.78.78,0,1,1,0,1.54Zm0-1a.27.27,0,0,0-.29.25.28.28,0,0,0,.29.25.28.28,0,0,0,.28-.25A.27.27,0,0,0,34.84,23.76Z"/><path d="M3.76,30.15A.16.16,0,1,0,3.58,30,.17.17,0,0,0,3.76,30.15Z"/><path d="M2.75,13.74a.16.16,0,1,0-.18-.16A.17.17,0,0,0,2.75,13.74Z"/><path d="M35.24,11.56a.16.16,0,1,0-.18-.16A.17.17,0,0,0,35.24,11.56Z"/><path d="M13,4a.16.16,0,1,0-.18-.16A.17.17,0,0,0,13,4Z"/><path d="M34,21.85a.16.16,0,1,0-.18-.16A.17.17,0,0,0,34,21.85Z"/><path d="M35.66,28.92a.17.17,0,0,0,.18-.16.18.18,0,0,0-.36,0A.17.17,0,0,0,35.66,28.92Z"/><path class="cls-2" d="M5.26,6.25a1,1,0,0,1-1-.89,1,1,0,0,1,1-.89,1,1,0,0,1,1,.89A1,1,0,0,1,5.26,6.25ZM5.26,5a.4.4,0,0,0-.42.37.42.42,0,0,0,.84,0A.4.4,0,0,0,5.26,5Z"/><path class="cls-1" d="M3.35,25.27h-.3V25a.3.3,0,0,0-.6,0v.26h-.3a.27.27,0,1,0,0,.53h.3v.26a.3.3,0,0,0,.6,0V25.8h.3a.27.27,0,1,0,0-.53Z"/><path d="M34.28,9.62a.25.25,0,0,0,.27-.23.26.26,0,0,0-.27-.24.25.25,0,0,0-.26.24A.25.25,0,0,0,34.28,9.62Z"/><path class="cls-3" d="M34.61,31.09h-.3v-.26a.3.3,0,0,0-.6,0v.26h-.3a.26.26,0,1,0,0,.52h.3v.27a.3.3,0,0,0,.6,0v-.27h.3a.26.26,0,1,0,0-.52Z"/><path class="cls-4" d="M31.91,11.8l-.21-.1V6.31H9.56a3,3,0,0,0-3.2,2.78,2,2,0,0,0,0,.25h0V33.91a2.39,2.39,0,0,0,2.54,2.2H29.5A2.38,2.38,0,0,0,32,33.91V11.81Z"/><path class="cls-5" d="M31.93,11.8l-.18-.1V6.31H12.6A2.78,2.78,0,0,0,9.83,9.09c0,.09,0,.17,0,.25h0V33.91a2.2,2.2,0,0,0,2.2,2.2H29.85A2.19,2.19,0,0,0,32,33.91V11.81Z"/><path class="cls-6" d="M29.73,11.8l-.18-.1V6.31H10.81A2.75,2.75,0,0,0,8.1,9.09c0,.09,0,.17,0,.25h0V33.91a2.18,2.18,0,0,0,2.16,2.2H27.7a2.17,2.17,0,0,0,2.15-2.2V11.81Z"/><path class="cls-4" d="M31.7,11.84V8.55a1.07,1.07,0,0,0-1.14-1H9.66a2.44,2.44,0,0,0-2.6,2.26v1a4.15,4.15,0,0,0,2.88,1.05C11.92,11.9,31.7,11.84,31.7,11.84Z"/><path class="cls-4" d="M9,31.48a.29.29,0,0,1-.3-.26V28.76A.29.29,0,0,1,9,28.5a.29.29,0,0,1,.31.26v2.46A.29.29,0,0,1,9,31.48Z"/><path d="M6.36,18.53a.49.49,0,0,1-.52-.45V16.5a.49.49,0,0,1,.52-.45.49.49,0,0,1,.52.45v1.58A.49.49,0,0,1,6.36,18.53Z"/><path d="M32,24.67a.48.48,0,0,0-.51.45V34a1.91,1.91,0,0,1-2,1.76H8.9a1.9,1.9,0,0,1-2-1.76V19.13a.49.49,0,0,0-.52-.45.49.49,0,0,0-.52.45V34A2.88,2.88,0,0,0,8.9,36.61H29.5A2.88,2.88,0,0,0,32.56,34V25.12A.49.49,0,0,0,32,24.67Z"/><path d="M32.55,11.79h0s0,0,0-.06h0l0-.05h0l0-.05h0s0,0-.05-.05h0l-.06,0h0l-.06,0-.06,0h0V6.3a.5.5,0,0,0-.52-.45H9.56A3.51,3.51,0,0,0,5.84,9.08a1.55,1.55,0,0,0,0,.22.28.28,0,0,0,0,.09v6a.49.49,0,0,0,.52.45.49.49,0,0,0,.52-.45V11.31a4,4,0,0,0,2.68,1h22V24a.52.52,0,0,0,1,0V11.86A.17.17,0,0,0,32.55,11.79Zm-1.37-.38H9.56a2.81,2.81,0,0,1-2-.77v-.8A2,2,0,0,1,9.66,8h20.9a.58.58,0,0,1,.62.54Zm0-4.18a1.79,1.79,0,0,0-.62-.1H9.66A3.27,3.27,0,0,0,7,8.46,2.67,2.67,0,0,1,9.56,6.75H31.18Z"/><path class="cls-4" d="M9,15.32a.29.29,0,0,1-.3-.27A2.28,2.28,0,0,1,11.08,13a.26.26,0,1,1,0,.52,1.72,1.72,0,0,0-1.81,1.58A.29.29,0,0,1,9,15.32Z"/><path class="cls-4" d="M9,16.69a.29.29,0,0,1-.3-.26V16a.29.29,0,0,1,.3-.26.29.29,0,0,1,.31.26v.41A.29.29,0,0,1,9,16.69Z"/><path class="cls-4" d="M22.84,21.21H15.11a.93.93,0,0,1-1-.86V17.08a.93.93,0,0,1,1-.86h7.73a.93.93,0,0,1,1,.86v3.27A.93.93,0,0,1,22.84,21.21Z"/><path d="M22.84,21.66H15.11a1.43,1.43,0,0,1-1.51-1.31V17.08a1.43,1.43,0,0,1,1.51-1.31h7.73a1.43,1.43,0,0,1,1.51,1.31v3.27A1.43,1.43,0,0,1,22.84,21.66Zm-7.73-5a.46.46,0,0,0-.48.41v3.27a.46.46,0,0,0,.48.41h7.73a.45.45,0,0,0,.47-.41V17.08a.45.45,0,0,0-.47-.41Z"/><path class="cls-2" d="M28.5,4.13h-.3V3.87a.29.29,0,0,0-.3-.26.28.28,0,0,0-.3.26v.26h-.3a.29.29,0,0,0-.31.26.29.29,0,0,0,.31.27h.3v.26a.28.28,0,0,0,.3.26.29.29,0,0,0,.3-.26V4.66h.3a.27.27,0,1,0,0-.53Z"/></svg>