<svg id="Capa_1" data-name="Capa 1" xmlns="http://www.w3.org/2000/svg" viewBox="0 0 40 40"><defs><style>.cls-1{fill:#ffd782;}.cls-2{fill:#55b56a;}.cls-3{fill:#ad6327;}.cls-4{fill:#69cc7b;}.cls-5{fill:#42874f;}.cls-6{fill:#66342e;}</style></defs><title>kactus</title><path class="cls-1" d="M7.69,10.69l.84-.83,1.76,1.77-.83.83Z"/><path class="cls-1" d="M11.81,11.63,13,10.45l.83.83-1.18,1.18Z"/><path class="cls-1" d="M21.23,4,23,2.21l.84.83L22.06,4.81Z"/><path class="cls-1" d="M15.93,3l.83-.83L18.53,4l-.83.83Z"/><path class="cls-1" d="M19.29,2h1.18V3.8H19.29Z"/><path class="cls-1" d="M10.47,8.51h1.17v2.94H10.47Z"/><path class="cls-2" d="M22.82,29.11H16.94V5.57a2.35,2.35,0,0,1,2.35-2.35h1.18a2.35,2.35,0,0,1,2.35,2.35V29.11Z"/><path class="cls-3" d="M25.77,36.17H14V29.11H25.77Z"/><path class="cls-4" d="M26.36,15V10.28a2.35,2.35,0,1,1,4.7,0v5.88a4.7,4.7,0,0,1-4.7,4.71H22.82V16.16h2.36A1.17,1.17,0,0,0,26.36,15Z"/><path class="cls-4" d="M13.41,19.11V13.22a2.36,2.36,0,0,0-4.71,0v7.06A4.71,4.71,0,0,0,13.41,25h3.53V20.28H14.58A1.17,1.17,0,0,1,13.41,19.11Z"/><path class="cls-5" d="M26.36,19.11H22.82V17.93h3.54a1.76,1.76,0,0,0,1.76-1.77V15H29.3v1.17A3,3,0,0,1,26.36,19.11Z"/><path class="cls-5" d="M16.94,23.22H13.41a2.93,2.93,0,0,1-2.94-2.94v-.59h1.17v.59a1.77,1.77,0,0,0,1.77,1.77h3.53Z"/><path class="cls-5" d="M10.47,17.34h1.17v1.18H10.47Z"/><path class="cls-5" d="M28.12,9.69H29.3v1.18H28.12Z"/><path class="cls-1" d="M19.29,5h1.18V6.16H19.29Z"/><path class="cls-5" d="M19.29,7.33h1.18V9.69H19.29Z"/><path class="cls-1" d="M22.82,25h2.36v1.18H22.82Z"/><path class="cls-1" d="M22.82,22.64h2.95v1.17H22.82Z"/><path class="cls-1" d="M14,6.75h2.94V7.92H14Z"/><path class="cls-1" d="M14.58,9.1h2.36v1.18H14.58Z"/><path class="cls-1" d="M31.06,10.87H34V12H31.06Z"/><path class="cls-1" d="M31.06,13.22h2.36V14.4H31.06Z"/><path class="cls-1" d="M31.06,15.57H34v1.18H31.06Z"/><path class="cls-1" d="M24.59,10.28h1.77v1.17H24.59Z"/><path class="cls-1" d="M24.59,12.63h1.77v1.18H24.59Z"/><path class="cls-1" d="M5.76,13.22H8.7V14.4H5.76Z"/><path class="cls-1" d="M5.76,15.57H8.7v1.18H5.76Z"/><path class="cls-1" d="M18.7,11.45h1.18v1.18H18.7Z"/><path class="cls-1" d="M19.88,14.4h1.18v1.17H19.88Z"/><path class="cls-1" d="M18.7,17.34h1.18v1.18H18.7Z"/><path class="cls-1" d="M19.88,19.69h1.18v1.18H19.88Z"/><path class="cls-1" d="M18.7,22.05h1.18v1.17H18.7Z"/><path class="cls-1" d="M19.88,24.4h1.18v1.18H19.88Z"/><path class="cls-6" d="M19.88,34.41H15.76V30.88h1.18v2.35h2.94Z"/><path class="cls-6" d="M21.06,33.23h1.18v1.18H21.06Z"/></svg>