<svg id="Capa_1" data-name="Capa 1" xmlns="http://www.w3.org/2000/svg" viewBox="0 0 138 138"><defs><style>.cls-1{fill:#ff6e1d;}.cls-2{fill:#f2ebd9;}.cls-3{fill:#ffcc75;}.cls-4{fill:#fff;}.cls-5{fill:#082947;}</style></defs><title>megafono</title><path class="cls-1" d="M129.37,31.19a2.14,2.14,0,0,0-2.13,2.14V94.27a2.13,2.13,0,0,1-2.13,2.13v4.26a2.13,2.13,0,0,1,2.13,2.13v8.52a2.13,2.13,0,1,0,4.26,0v-78A2.13,2.13,0,0,0,129.37,31.19Z"/><path class="cls-2" d="M52.37,113.34,77,119.4a11.74,11.74,0,0,0,2.5.33A11.66,11.66,0,0,0,91,110.88l1.34-5.43-4.14-1-1.34,5.43a7.35,7.35,0,0,1-7.15,5.61,7.64,7.64,0,0,1-1.77-.21L53.39,109.2a7.35,7.35,0,0,1-4.55-3.34,7.25,7.25,0,0,1-1-4.47,2.12,2.12,0,0,1,2.31-1.93l.26,0,1-4.14-6.21-1.53-1.34,5.43a11.66,11.66,0,0,0,8.52,14.08Z"/><path class="cls-2" d="M12.89,77.29a2.13,2.13,0,0,1-2.13-2.13V61A2.13,2.13,0,1,0,6.5,61V83.68a2.13,2.13,0,1,0,4.26,0,2.13,2.13,0,0,1,2.13-2.13Z"/><path class="cls-3" d="M125.11,96.4A2.14,2.14,0,0,1,123,94.27V36L15,62.62V75.16a2.13,2.13,0,0,1-2.13,2.13v4.26a1.79,1.79,0,0,1,.51.07L87.19,99.78l8.28,2L123,108.6v-5.81a2.13,2.13,0,0,1,2.13-2.13ZM89.48,56,24.76,71.93a2.22,2.22,0,0,1-.51.06,2.13,2.13,0,0,1-.51-4.2L88.46,51.86a2.13,2.13,0,0,1,1,4.14Zm24.78-6.1L97.76,54a2.29,2.29,0,0,1-.51.06,2.13,2.13,0,0,1-.51-4.2l16.5-4.06a2.13,2.13,0,0,1,1,4.14Z"/><path class="cls-4" d="M88.46,51.86,23.74,67.79a2.13,2.13,0,0,0,.51,4.2,2.22,2.22,0,0,0,.51-.06L89.48,56a2.13,2.13,0,0,0-1-4.14Z"/><path class="cls-4" d="M113.24,45.76l-16.5,4.06a2.13,2.13,0,0,0,.51,4.2,2.29,2.29,0,0,0,.51-.06l16.5-4.06a2.13,2.13,0,0,0-1-4.14Z"/><path class="cls-5" d="M129.37,26.93a6.41,6.41,0,0,0-6.15,4.67L14.47,58.37A6.39,6.39,0,0,0,2.23,61V83.68a6.39,6.39,0,0,0,12.24,2.59l26.58,6.54-1.33,5.43a15.89,15.89,0,0,0,11.63,19.24l24.59,6a15.72,15.72,0,0,0,3.4.46h.42a15.92,15.92,0,0,0,15.42-12.1l1.34-5.43,26.7,6.57a6.39,6.39,0,0,0,12.55-1.73v-78A6.4,6.4,0,0,0,129.37,26.93Zm2.13,84.38a2.13,2.13,0,1,1-4.26,0v-8.52a2.13,2.13,0,1,0-4.26,0v5.81l-27.51-6.78-8.28-2L13.4,81.62a1.79,1.79,0,0,0-.51-.07,2.13,2.13,0,0,0-2.13,2.13,2.13,2.13,0,1,1-4.26,0V61a2.13,2.13,0,1,1,4.26,0v14.2a2.13,2.13,0,0,0,4.26,0V62.62L123,36V94.27a2.13,2.13,0,0,0,4.26,0V33.32a2.13,2.13,0,1,1,4.26,0Zm-87.65-12,1.34-5.43,6.21,1.53,32.7,8-1.33,5.43A3.13,3.13,0,0,1,79,111.12l-24.59-6.06a3.09,3.09,0,0,1-1.92-1.41,3,3,0,0,1-.44-1.88,2.13,2.13,0,0,0-1.67-2.27l-.26,0a2.12,2.12,0,0,0-2.31,1.93,7.25,7.25,0,0,0,1,4.47,7.35,7.35,0,0,0,4.55,3.34L78,115.26a7.64,7.64,0,0,0,1.77.21,7.35,7.35,0,0,0,7.15-5.61l1.34-5.43,4.14,1L91,110.88a11.66,11.66,0,0,1-11.58,8.85,11.74,11.74,0,0,1-2.5-.33l-24.59-6.06a11.66,11.66,0,0,1-8.52-14.08Z"/></svg>