<svg id="Capa_1" data-name="Capa 1" xmlns="http://www.w3.org/2000/svg" viewBox="0 0 40 40"><defs><style>.cls-1{fill:#4375ab;}.cls-2{fill:#76beca;}.cls-3{fill:#8f4228;}.cls-4{fill:#de9b5b;}.cls-5{fill:#eab67c;}.cls-6{fill:#c23717;}.cls-7{fill:#c7dee0;}.cls-8{fill:#6e2716;}.cls-9{fill:#363535;}.cls-10{fill:#18192e;}.cls-11{fill:#bcbfc3;}.cls-12{fill:#7c3c22;}.cls-13{fill:#fff;}.cls-14{fill:#525151;}.cls-15{fill:#edba2c;}.cls-16{fill:#a9bec9;}.cls-17{fill:#77c4fc;}.cls-18{fill:#e58f22;}.cls-19{fill:#eebd77;}.cls-20{fill:#da7f38;}.cls-21{fill:#e2a456;}.cls-22{fill:#d1c3b6;}.cls-23{fill:#ad5622;}.cls-24{fill:#d77c38;}.cls-25{fill:#e6945f;}</style></defs><title>NominaYGestionHumana</title><rect class="cls-1" x="19.24" y="10.13" width="0.77" height="10.85"/><polygon class="cls-1" points="30.45 23.14 8.8 23.14 8.8 19.22 9.57 19.22 9.57 22.36 29.68 22.36 29.68 19.22 30.45 19.22 30.45 23.14"/><path class="cls-2" d="M35.35,14.7a5.29,5.29,0,1,1-5.28-5.29A5.28,5.28,0,0,1,35.35,14.7Z"/><path class="cls-3" d="M33,17.88c-.28-.18-.26-3.24-.25-3.92.06-4.28-5.43-4.22-5.39-.13,0,.74.05,3.86-.25,4A5,5,0,0,0,33,17.88Z"/><rect class="cls-2" x="28.76" y="15.14" width="2.62" height="0.81"/><path class="cls-4" d="M31.07,14.81h-2a2.22,2.22,0,0,1-.37,1.07,1.39,1.39,0,1,0,2.75,0A2.33,2.33,0,0,1,31.07,14.81Z"/><path class="cls-5" d="M30.07,11l-1.79,1.11.35,2.51a2.06,2.06,0,0,0,1.44.83,2.05,2.05,0,0,0,1.43-.83l.35-2.51Z"/><path class="cls-5" d="M28.49,13.14c-.32-.28-.57.07-.18.65,0,0,0,.2.24.2Z"/><path class="cls-5" d="M31.64,13.14c.33-.28.57.07.18.65,0,0,0,.2-.24.2Z"/><path class="cls-2" d="M31.79,15.78l-1.72.1-1.73-.1-.93.58c.31.95,2.19,2.41,2.66,2.86h0c.47-.45,2.34-1.9,2.65-2.86Z"/><path class="cls-6" d="M33.78,18.46a5.29,5.29,0,0,1-7.42,0l.14-1.36c.35-1,1.84-1.32,1.84-1.32l1.73,3.44,1.72-3.44s1.49.31,1.84,1.33Z"/><polygon class="cls-7" points="28.76 15.14 30.07 15.88 29.22 16.81 28.23 15.73 28.76 15.14"/><polygon class="cls-7" points="31.38 15.14 30.07 15.88 30.91 16.81 31.9 15.73 31.38 15.14"/><path class="cls-8" d="M30.07,10.88a2,2,0,0,0-2,2.38h4A2,2,0,0,0,30.07,10.88Z"/><path class="cls-2" d="M14.47,14.7A5.29,5.29,0,1,1,9.18,9.41,5.28,5.28,0,0,1,14.47,14.7Z"/><path class="cls-3" d="M12.13,15.4c-.28-.18-.26-.76-.25-1.44.06-4.28-5.43-4.22-5.39-.13,0,.74,0,1.37-.25,1.57A5,5,0,0,0,12.13,15.4Z"/><rect class="cls-2" x="7.88" y="15.14" width="2.62" height="0.81"/><path class="cls-4" d="M10.19,14.81h-2a2.33,2.33,0,0,1-.37,1.07,1.39,1.39,0,1,0,2.75,0A2.33,2.33,0,0,1,10.19,14.81Z"/><path class="cls-5" d="M9.18,11,7.4,12.14l.35,2.51a2.05,2.05,0,0,0,1.43.83,2.06,2.06,0,0,0,1.44-.83L11,12.14Z"/><path class="cls-5" d="M7.61,13.14c-.33-.28-.57.07-.18.65,0,0,0,.2.24.2Z"/><path class="cls-5" d="M10.76,13.14c.33-.28.57.07.18.65,0,0,0,.2-.24.2Z"/><path class="cls-2" d="M10.91,15.78l-1.73.1-1.72-.1-.93.58c.31.95,2.18,2.41,2.65,2.86h0c.48-.45,2.35-1.9,2.66-2.86Z"/><path class="cls-9" d="M12.89,18.46a5.29,5.29,0,0,1-7.42,0l.15-1.36c.35-1,1.84-1.32,1.84-1.32l1.72,3.44,1.73-3.44s1.49.31,1.84,1.33Z"/><polygon class="cls-7" points="7.88 15.14 9.18 15.88 8.34 16.81 7.35 15.73 7.88 15.14"/><polygon class="cls-7" points="10.49 15.14 9.18 15.88 10.03 16.81 11.02 15.73 10.49 15.14"/><path class="cls-3" d="M9.18,10.88a2,2,0,0,0-2,2.38h4A2,2,0,0,0,9.18,10.88Z"/><path class="cls-10" d="M9.41,14.48v-1h1.43c.08.54-.13,1-.68,1Zm.19-.19h.56a.51.51,0,0,0,.38-.14.77.77,0,0,0,.14-.47H9.6Z"/><path class="cls-10" d="M8.21,14.48c-.55,0-.76-.44-.69-1H9v1Zm.56-.8H7.69a.71.71,0,0,0,.14.47.49.49,0,0,0,.38.14h.56Z"/><rect class="cls-10" x="8.71" y="13.5" width="0.96" height="0.18"/><path class="cls-10" d="M30.3,14.48v-1h1.43c.07.54-.14,1-.69,1Zm.18-.19H31a.49.49,0,0,0,.38-.14.71.71,0,0,0,.14-.47H30.48Z"/><path class="cls-10" d="M29.09,14.48c-.55,0-.76-.44-.68-1h1.43v1Zm.56-.8H28.57a.77.77,0,0,0,.14.47.52.52,0,0,0,.38.14h.56Z"/><rect class="cls-10" x="29.59" y="13.5" width="0.96" height="0.18"/><path class="cls-2" d="M24.91,6.67a5.29,5.29,0,1,1-5.29-5.29A5.28,5.28,0,0,1,24.91,6.67Z"/><rect class="cls-2" x="18.08" y="7.81" width="3.09" height="0.96"/><path class="cls-4" d="M18.44,7.43h2.37a2.85,2.85,0,0,0,.44,1.26c0,2.54-3.28,2.53-3.25,0A2.85,2.85,0,0,0,18.44,7.43Z"/><path class="cls-5" d="M19.63,3l2.1,1.3-.41,3a2.43,2.43,0,0,1-1.69,1,2.4,2.4,0,0,1-1.69-1l-.42-3Z"/><path class="cls-11" d="M21.66,9.67a7.55,7.55,0,0,1-1.37,2.24,4.92,4.92,0,0,1-.67,0,4.63,4.63,0,0,1-.65,0,7.38,7.38,0,0,1-1.38-2.24l1.06-.87,1-.12,1,.12Z"/><path class="cls-5" d="M21.48,5.46c.39-.33.67.07.22.77,0,0,0,.23-.29.23Z"/><path class="cls-5" d="M17.77,5.46c-.39-.33-.67.07-.22.77,0,0,0,.23.29.23Z"/><path class="cls-4" d="M21.57,5.61a.19.19,0,0,1,.17,0s.1,0,0,.16l-.13.36a.2.2,0,0,0-.16,0C21.46,5.9,21.89,5.69,21.57,5.61Z"/><path class="cls-4" d="M17.68,5.61a.18.18,0,0,0-.17,0s-.09,0,0,.16l.12.36a.2.2,0,0,1,.16,0C17.8,5.9,17.36,5.69,17.68,5.61Z"/><path class="cls-12" d="M21.63,5.37,21.41,6h-.24l.19-1.69c-.32-.52-.9-.5-1.73-.41-.84-.09-1.42-.11-1.74.41L18.08,6h-.24l-.21-.67C16.05,1.58,23.21,1.58,21.63,5.37Z"/><path class="cls-9" d="M17.17,8.33l2.06,3.61-.26,0a5.28,5.28,0,0,1-3.86-2.5A5.73,5.73,0,0,1,17.17,8.33Z"/><path class="cls-9" d="M24.14,9.41a5.26,5.26,0,0,1-3.85,2.5l-.27,0,2.06-3.61A5.73,5.73,0,0,1,24.14,9.41Z"/><polygon class="cls-13" points="18.08 7.81 19.63 8.69 18.63 9.78 17.46 8.51 18.08 7.81"/><polygon class="cls-13" points="21.17 7.81 19.63 8.69 20.63 9.78 21.79 8.51 21.17 7.81"/><path class="cls-14" d="M19.18,11.93l-.21,0a4.52,4.52,0,0,1-.83-.17,4.7,4.7,0,0,1-.88-.94l.55-.59L16.37,8.54l1.45-.62A16.57,16.57,0,0,0,19.18,11.93Z"/><path class="cls-14" d="M21.44,10.21s.28.29.55.59a4.43,4.43,0,0,1-.88.94,4.59,4.59,0,0,1-.82.17l-.22,0a15.73,15.73,0,0,0,1.36-4l1.45.62Z"/><rect class="cls-15" x="10.66" y="26.93" width="18.22" height="6.38"/><rect class="cls-1" x="10.66" y="25.8" width="18.22" height="6.95"/><path class="cls-16" d="M13,28.54a.19.19,0,0,1-.18.19H11.65a.19.19,0,0,1-.18-.19v-.78a.18.18,0,0,1,.18-.18h1.16a.18.18,0,0,1,.18.18Z"/><path class="cls-17" d="M14.88,28.54a.19.19,0,0,1-.18.19H13.53a.19.19,0,0,1-.18-.19v-.78a.18.18,0,0,1,.18-.18H14.7a.18.18,0,0,1,.18.18Z"/><path class="cls-17" d="M16.76,28.54a.19.19,0,0,1-.18.19H15.41a.2.2,0,0,1-.18-.19v-.78a.19.19,0,0,1,.18-.18h1.17a.18.18,0,0,1,.18.18Z"/><path class="cls-17" d="M18.65,28.54a.2.2,0,0,1-.18.19H17.3a.19.19,0,0,1-.18-.19v-.78a.18.18,0,0,1,.18-.18h1.17a.19.19,0,0,1,.18.18Z"/><path class="cls-15" d="M20.53,28.54a.19.19,0,0,1-.18.19H19.18a.19.19,0,0,1-.18-.19v-.78a.18.18,0,0,1,.18-.18h1.17a.18.18,0,0,1,.18.18Z"/><path class="cls-15" d="M22.41,28.54a.19.19,0,0,1-.18.19H21.07a.19.19,0,0,1-.18-.19v-.78a.18.18,0,0,1,.18-.18h1.16a.18.18,0,0,1,.18.18Z"/><path class="cls-15" d="M24.3,28.54a.19.19,0,0,1-.18.19H23a.19.19,0,0,1-.18-.19v-.78a.18.18,0,0,1,.18-.18h1.17a.18.18,0,0,1,.18.18Z"/><path class="cls-15" d="M26.18,28.54a.19.19,0,0,1-.18.19H24.84a.19.19,0,0,1-.18-.19v-.78a.18.18,0,0,1,.18-.18H26a.18.18,0,0,1,.18.18Z"/><path class="cls-15" d="M28.07,28.54a.19.19,0,0,1-.18.19H26.72a.19.19,0,0,1-.18-.19v-.78a.18.18,0,0,1,.18-.18h1.17a.18.18,0,0,1,.18.18Z"/><rect class="cls-16" x="11.47" y="28.98" width="1.53" height="1.15" rx="0.18"/><path class="cls-16" d="M14.88,29.94a.18.18,0,0,1-.18.18H13.53a.18.18,0,0,1-.18-.18v-.78a.18.18,0,0,1,.18-.18H14.7a.18.18,0,0,1,.18.18Z"/><rect class="cls-16" x="15.23" y="28.98" width="1.53" height="1.15" rx="0.18"/><rect class="cls-15" x="17.12" y="28.98" width="1.53" height="1.15" rx="0.18"/><path class="cls-15" d="M20.53,29.94a.18.18,0,0,1-.18.18H19.18a.18.18,0,0,1-.18-.18v-.78a.18.18,0,0,1,.18-.18h1.17a.18.18,0,0,1,.18.18Z"/><path class="cls-15" d="M22.41,29.94a.18.18,0,0,1-.18.18H21.07a.18.18,0,0,1-.18-.18v-.78a.18.18,0,0,1,.18-.18h1.16a.18.18,0,0,1,.18.18Z"/><rect class="cls-16" x="22.77" y="28.85" width="1.53" height="1.15" rx="0.18"/><path class="cls-16" d="M26.18,29.81A.18.18,0,0,1,26,30H24.84a.18.18,0,0,1-.18-.19V29a.18.18,0,0,1,.18-.18H26a.18.18,0,0,1,.18.18Z"/><path class="cls-18" d="M28.07,29.94a.18.18,0,0,1-.18.18H26.72a.18.18,0,0,1-.18-.18v-.78a.18.18,0,0,1,.18-.18h1.17a.18.18,0,0,1,.18.18Z"/><rect class="cls-16" x="11.47" y="30.38" width="1.53" height="1.15" rx="0.18"/><rect class="cls-16" x="13.35" y="30.38" width="1.53" height="1.15" rx="0.18"/><path class="cls-16" d="M22.23,30.38H15.41a.19.19,0,0,0-.18.18v.78a.19.19,0,0,0,.18.18h6.82a.18.18,0,0,0,.18-.18v-.78A.18.18,0,0,0,22.23,30.38Z"/><path class="cls-16" d="M24.3,31.21a.19.19,0,0,1-.18.19H23a.19.19,0,0,1-.18-.19v-.78a.18.18,0,0,1,.18-.18h1.17a.18.18,0,0,1,.18.18Z"/><rect class="cls-16" x="24.66" y="30.25" width="1.53" height="1.15" rx="0.18"/><path class="cls-16" d="M28.07,31.21a.19.19,0,0,1-.18.19H26.72a.19.19,0,0,1-.18-.19v-.78a.18.18,0,0,1,.18-.18h1.17a.18.18,0,0,1,.18.18Z"/><rect class="cls-18" x="24.63" y="26.32" width="0.65" height="0.56"/><rect class="cls-18" x="26.01" y="26.32" width="0.65" height="0.56"/><rect class="cls-18" x="27.39" y="26.32" width="0.65" height="0.56"/><path class="cls-19" d="M17.36,31.25l-1.85,2.56a.41.41,0,1,1-.66-.48l1.85-2.56A.41.41,0,0,1,17.36,31.25Z"/><path class="cls-19" d="M14.08,30.08l-.94,2.45a.34.34,0,0,1-.64-.24l.94-2.45A.34.34,0,0,1,14.08,30.08Z"/><path class="cls-19" d="M11.35,35c-.17.39-.79,1.54-1,1.84l2.36,1.35c.5-.67.76-1.26,1.15-1.75,1.3.24,2.26-1.15,3.16-1.71.44-.27.8-.47.8-.47a.53.53,0,0,0-.77-.41c-.68.22-1.75,1.24-1.84.81a4.53,4.53,0,0,1,.55-1.22,15.77,15.77,0,0,0-1.88-1.07A4.87,4.87,0,0,0,12.7,32S10.8,34.49,11.35,35Z"/><path class="cls-19" d="M16.53,30.24,15,33a.41.41,0,0,1-.71-.41l1.57-2.75A.41.41,0,0,1,16.53,30.24Z"/><path class="cls-20" d="M16.85,30.78l-.19.28a1.35,1.35,0,0,0,.44.31s0,0,.2-.27a.25.25,0,0,0-.08-.35A.27.27,0,0,0,16.85,30.78Z"/><path class="cls-19" d="M15.64,30.18l-1.56,2.75a.41.41,0,1,1-.71-.4l1.55-2.76A.41.41,0,0,1,15.64,30.18Z"/><path class="cls-20" d="M15.08,29.77a1.64,1.64,0,0,0-.16.3,1.35,1.35,0,0,0,.47.26,1.6,1.6,0,0,0,.17-.29.25.25,0,0,0-.12-.34A.26.26,0,0,0,15.08,29.77Z"/><path class="cls-20" d="M13.57,29.81l-.1.27a1.26,1.26,0,0,0,.42.16A2.7,2.7,0,0,0,14,30a.22.22,0,0,0-.14-.27A.21.21,0,0,0,13.57,29.81Z"/><path class="cls-20" d="M17,34.7l0,0c.44-.27.8-.47.8-.47s-.31-.13-.53,0S17,34.58,17,34.7Z"/><path class="cls-20" d="M16,29.83a1.64,1.64,0,0,0-.16.3,1.21,1.21,0,0,0,.47.26,1.6,1.6,0,0,0,.17-.29.25.25,0,0,0-.12-.34A.27.27,0,0,0,16,29.83Z"/><polygon class="cls-21" points="15.82 29.83 14.4 32.31 15.81 30.13 15.82 29.83"/><path class="cls-19" d="M23.31,31.08,24.48,34a.41.41,0,0,0,.76-.31l-1.17-2.94A.41.41,0,0,0,23.31,31.08Z"/><path class="cls-19" d="M26.68,32.53l.16,1.16a.34.34,0,1,0,.67-.09l-.15-1.15A.34.34,0,0,0,26.68,32.53Z"/><path class="cls-19" d="M28.24,36.18c.06.41.38,1.68.49,2l-2.62.73c-.32-.77-.43-1.4-.69-2-1.32-.09-1.92-1.66-2.65-2.43l-.66-.65a.52.52,0,0,1,.84-.21c.61.38,1.4,1.63,1.59,1.23a4.35,4.35,0,0,0-.23-1.31c1.82-.65,2.76-.62,3.08-.92C27.39,32.67,28.89,35.81,28.24,36.18Z"/><path class="cls-19" d="M25.06,32.45l.19,1.13a.41.41,0,0,0,.79-.22l-.19-1.13A.41.41,0,0,0,25.06,32.45Z"/><path class="cls-20" d="M23.91,30.75c.12.28.12.28.12.31a1.23,1.23,0,0,1-.5.2A1.82,1.82,0,0,1,23.4,31a.26.26,0,0,1,.17-.32A.26.26,0,0,1,23.91,30.75Z"/><path class="cls-19" d="M25.87,32.62l.24,1.12a.41.41,0,0,0,.79-.22l-.24-1.12A.41.41,0,0,0,25.87,32.62Z"/><path class="cls-20" d="M22.8,34.51l0,0-.66-.65c.09-.1.32-.05.51.13S22.89,34.41,22.8,34.51Z"/><path class="cls-22" d="M26.78,22.93a3.06,3.06,0,0,0-2.85-2.32,3.71,3.71,0,0,0-3.29-2.16V16.5h1.55l-2.56-2.79L17.06,16.5h1.55v2.55l-.23.16A3.81,3.81,0,0,0,12.9,22.4c-1.77,1.15-1.05,2.55,0,2.55H26.38A1.05,1.05,0,0,0,26.78,22.93Z"/><path class="cls-23" d="M22.41,24.36l-2.78-2s-2.78,2-2.79,2S22.41,24.37,22.41,24.36Z"/><path class="cls-24" d="M22.42,24.36l-2.79-2,2.79-2a.33.33,0,0,1,.11.25V24.1A.35.35,0,0,1,22.42,24.36Z"/><path class="cls-24" d="M16.72,24.1V20.57a.33.33,0,0,1,.12-.25l2.79,2s-2.78,2-2.79,2A.47.47,0,0,1,16.72,24.1Z"/><path class="cls-25" d="M16.84,20.32a.33.33,0,0,1,.22-.08h5.13a.36.36,0,0,1,.23.08l-2.79,2Z"/><path class="cls-10" d="M19.86,6.08v-1h1.43c.07.55-.14,1-.69,1ZM20,5.9h.56A.46.46,0,0,0,21,5.75a.68.68,0,0,0,.14-.46H20Z"/><path class="cls-10" d="M18.65,6.08c-.55,0-.76-.43-.68-1H19.4v1Zm.56-.79H18.13a.74.74,0,0,0,.14.46.48.48,0,0,0,.38.15h.56Z"/><rect class="cls-10" x="19.15" y="5.1" width="0.96" height="0.18"/></svg>