<svg id="Capa_1" data-name="Capa 1" xmlns="http://www.w3.org/2000/svg" viewBox="0 0 40 40"><defs><style>.cls-1{fill:#030104;}</style></defs><title>ps</title><path class="cls-1" d="M14.37,12.16a6.55,6.55,0,0,0-1.64.16V17.5a5.94,5.94,0,0,0,1.32.1c2.11,0,3.42-1.07,3.42-2.86C17.47,13.12,16.35,12.16,14.37,12.16Z"/><path class="cls-1" d="M33.47,3.08h-28A1.94,1.94,0,0,0,3.56,5V33a2,2,0,0,0,1.95,2h28a2,2,0,0,0,2-2V5A1.94,1.94,0,0,0,33.47,3.08ZM19.78,18.8a8.11,8.11,0,0,1-5.7,1.85,10.2,10.2,0,0,1-1.35-.08v6.28H8.79V9.53a32.47,32.47,0,0,1,5.37-.36c2.44,0,4.19.46,5.36,1.4a5.12,5.12,0,0,1,1.88,4.07A5.6,5.6,0,0,1,19.78,18.8Zm5.93,8.31a8.93,8.93,0,0,1-4.12-.89l.7-2.83a7.82,7.82,0,0,0,3.42,1c1.19,0,1.69-.42,1.69-1.07s-.39-1-1.87-1.46c-2.63-.88-3.65-2.32-3.62-3.83,0-2.36,2-4.17,5.18-4.17a8.7,8.7,0,0,1,3.59.73L30,17.29a6.28,6.28,0,0,0-2.76-.73c-1,0-1.51.39-1.51,1s.49.91,2.06,1.46c2.42.83,3.44,2.06,3.46,3.93C31.23,25.36,29.35,27.11,25.71,27.11Z"/></svg>