<svg id="Capa_1" data-name="Capa 1" xmlns="http://www.w3.org/2000/svg" viewBox="0 0 40 40"><defs><style>.cls-1{fill:#0f4057;}.cls-2{fill:#bfcbdb;}.cls-3{fill:#d5e3f4;}.cls-4,.cls-9{fill:#fff;}.cls-5{fill:none;stroke:#fff;stroke-linecap:round;stroke-miterlimit:10;stroke-width:0.25px;}.cls-6{fill:#a8b4c1;}.cls-7{fill:#211915;opacity:0.5;}.cls-8{fill:#c83c2b;}.cls-9{font-size:4.42px;font-family:AsapCondensed-Bold, AsapCondensed Bold;font-weight:700;}.cls-10{fill:#2b94c8;}.cls-11{fill:#5dc82b;}</style></defs><title>web</title><path class="cls-1" d="M7,35.58c0-2,5.54-3.55,12.37-3.55s12.38,1.59,12.38,3.55-5.54,3.55-12.38,3.55S7,37.54,7,35.58Z"/><polygon class="cls-2" points="10.91 33.72 9.75 36.99 29 36.99 27.84 33.72 10.91 33.72"/><polygon class="cls-3" points="25.88 35.45 12.87 35.45 14.07 29.03 24.68 29.03 25.88 35.45"/><rect class="cls-3" x="2.94" y="9.27" width="32.87" height="19.89"/><rect class="cls-1" x="4.35" y="10.68" width="30.05" height="15.66"/><rect class="cls-4" x="6.91" y="1.69" width="24.92" height="24.68"/><rect class="cls-3" x="8.23" y="2.91" width="22.29" height="3.43"/><rect class="cls-3" x="8.23" y="7.41" width="22.29" height="1.25"/><rect class="cls-3" x="8.23" y="9.37" width="22.29" height="1.25"/><rect class="cls-3" x="8.23" y="11.33" width="22.29" height="1.25"/><rect class="cls-3" x="8.23" y="21.97" width="22.29" height="1.25"/><rect class="cls-3" x="8.23" y="23.93" width="22.29" height="1.25"/><rect class="cls-3" x="8.19" y="13.97" width="6.8" height="6.8"/><line class="cls-5" x1="8.84" y1="14.62" x2="14.33" y2="20.12"/><line class="cls-5" x1="8.84" y1="20.12" x2="14.33" y2="14.62"/><rect class="cls-3" x="15.96" y="13.97" width="6.8" height="6.8"/><line class="cls-5" x1="16.61" y1="14.62" x2="22.11" y2="20.12"/><line class="cls-5" x1="16.61" y1="20.12" x2="22.11" y2="14.62"/><rect class="cls-3" x="23.76" y="13.97" width="6.8" height="6.8"/><line class="cls-5" x1="24.41" y1="14.62" x2="29.91" y2="20.12"/><line class="cls-5" x1="24.41" y1="20.12" x2="29.91" y2="14.62"/><polygon class="cls-6" points="25.07 31.1 24.68 29.03 14.07 29.03 13.68 31.1 25.07 31.1"/><rect class="cls-7" x="11.97" y="4.64" width="8.77" height="7.7"/><rect class="cls-8" x="10.9" y="3.57" width="8.77" height="7.7"/><text class="cls-9" transform="translate(11.83 9.01)">CSS</text><rect class="cls-7" x="24.72" y="7.49" width="12.26" height="7.7"/><rect class="cls-10" x="23.64" y="6.41" width="12.26" height="7.7"/><text class="cls-9" transform="translate(24.42 11.85)">HTML</text><rect class="cls-7" x="17.27" y="18.33" width="8.77" height="7.7"/><rect class="cls-11" x="16.19" y="17.25" width="8.77" height="7.7"/><text class="cls-9" transform="translate(18.68 22.69)">JS</text></svg>