<svg id="Capa_1" data-name="Capa 1" xmlns="http://www.w3.org/2000/svg" viewBox="0 0 50 50"><defs><style>.cls-1{fill:#acacac;}.cls-2{fill:#fff;}</style></defs><title>wwwInactivo</title><path class="cls-1" d="M40.12,22.93h4.32a2.7,2.7,0,0,0,2.7-2.7V8.35a2.7,2.7,0,0,0-2.7-2.7H5.56a2.7,2.7,0,0,0-2.7,2.7V20.23a2.7,2.7,0,0,0,2.7,2.7Z"/><path class="cls-1" d="M36,37l7.48,7.47a2.15,2.15,0,0,0,3-3L39,33.92Z"/><path class="cls-2" d="M40.66,27.79A10.8,10.8,0,1,1,29.86,17,10.79,10.79,0,0,1,40.66,27.79Z"/><path class="cls-1" d="M36.88,27.79a7,7,0,1,1-7-7A7,7,0,0,1,36.88,27.79Z"/><path d="M29.86,19.87a7.92,7.92,0,1,0,7.92,7.92A7.93,7.93,0,0,0,29.86,19.87Zm0,14A6.12,6.12,0,1,1,36,27.79,6.13,6.13,0,0,1,29.86,33.91Z"/><path d="M29.86,23.74a.9.9,0,1,0,0,1.8,2.25,2.25,0,0,1,2.25,2.25.9.9,0,1,0,1.8,0A4.06,4.06,0,0,0,29.86,23.74Z"/><path d="M7.51,11.54a.91.91,0,0,0-1.22-.39.9.9,0,0,0-.38,1.21l2.42,4.69a.91.91,0,0,0,.81.48.89.89,0,0,0,.8-.51l1.47-3L13,17.05a.91.91,0,0,0,.8.48h0a.88.88,0,0,0,.8-.51l2.25-4.68a.9.9,0,0,0-1.62-.78l-1.47,3.06-1.59-3.08a.92.92,0,0,0-.82-.49.89.89,0,0,0-.79.51L9.1,14.62Z"/><path d="M13.3,6.55a.92.92,0,0,0,.63-.26.89.89,0,0,0,0-1.28.92.92,0,0,0-.63-.26.94.94,0,0,0-.64.26.92.92,0,0,0,0,1.28A.94.94,0,0,0,13.3,6.55Z"/><path d="M48,20.23V8.35a3.6,3.6,0,0,0-3.6-3.6H17.08a.9.9,0,1,0,0,1.8H44.44a1.81,1.81,0,0,1,1.8,1.8V20.23a1.81,1.81,0,0,1-1.8,1.8H40.05a11.76,11.76,0,0,0-6.33-5.29L35.05,14l1.6,3.08a.9.9,0,0,0,.8.48h0a.89.89,0,0,0,.8-.51l2.24-4.68a.9.9,0,0,0-1.62-.78l-1.46,3.06-1.6-3.08a.9.9,0,0,0-.81-.49.91.91,0,0,0-.8.51l-1.47,3.06-1.59-3.08a.9.9,0,0,0-1.6.82l2,3.85a11.66,11.66,0,0,0-1.68-.12,11.93,11.93,0,0,0-3.19.44l2-4.19a.9.9,0,1,0-1.62-.78l-1.47,3.06L24,11.54a.9.9,0,0,0-.81-.49.91.91,0,0,0-.8.51l-1.47,3.06-1.59-3.08a.9.9,0,0,0-1.6.82l2.42,4.69a.93.93,0,0,0,.82.48.87.87,0,0,0,.79-.51l1.47-3,1.59,3.08.1.14A11.75,11.75,0,0,0,19.68,22H5.56a1.81,1.81,0,0,1-1.8-1.8V8.35a1.81,1.81,0,0,1,1.8-1.8H9.25a.9.9,0,0,0,0-1.8H5.56A3.6,3.6,0,0,0,2,8.35V20.23a3.6,3.6,0,0,0,3.6,3.6H18.85a11.57,11.57,0,0,0-.69,4A11.71,11.71,0,0,0,35.69,37.94l7.14,7.14a3.05,3.05,0,0,0,4.32-4.32L44.34,38a.9.9,0,1,0-1.27,1.27L45.88,42a1.27,1.27,0,0,1,0,1.77,1.25,1.25,0,0,1-1.77,0L37.2,36.9a11.7,11.7,0,0,0,3.67-13.07h3.57A3.6,3.6,0,0,0,48,20.23ZM29.86,37.69a9.9,9.9,0,1,1,9.9-9.9A9.91,9.91,0,0,1,29.86,37.69Z"/><path d="M40.93,35.82a.92.92,0,1,0,.64-.26A.94.94,0,0,0,40.93,35.82Z"/></svg>